<svg width="318" height="157" viewBox="0 0 318 157" fill="none" xmlns="http://www.w3.org/2000/svg">
<path d="M268.582 86.7746C263.62 93.3399 256.534 97.0222 248.872 97.6103C240.691 98.2385 231.942 95.4127 224.706 89.0256C222.029 86.6611 219.795 84.0446 218.002 81.2668C210.021 69.0352 209.572 53.0778 217.908 42.0426C219.4 40.0674 221.164 38.3574 223.008 36.9176C222.634 37.0941 220.569 38.3955 215.86 43.3659C214.572 44.725 213.659 46.0505 212.489 47.6463C202.417 61.3827 204.873 82.5541 218.886 94.9267C226.123 101.313 235.042 103.542 243.222 102.915C249.809 102.409 255.421 100.171 261.026 95.0332C267.13 89.4362 268.513 86.9581 268.726 86.5726C268.675 86.6392 268.632 86.7081 268.582 86.7756L268.582 86.7746Z" fill="url(#paint0_linear_1_7285)"/>
<path d="M253.055 72.7702C256.817 67.7922 255.446 58.9427 250.31 54.407C247.658 52.0669 244.454 51.0313 241.457 51.262C238.649 51.4788 236.022 52.8057 234.202 55.2103C233.629 55.9684 233.171 56.7898 232.822 57.6552C233.84 57.2209 234.924 56.9522 236.039 56.8657C239.037 56.636 242.24 57.6696 244.892 60.0096C249.246 63.8555 250.964 71.1216 249.018 75.9309C250.565 75.2714 251.958 74.2202 253.055 72.7692L253.055 72.7702Z" fill="url(#paint1_linear_1_7285)"/>
<path d="M261.473 40.2057C275.49 52.5729 278.532 73.6093 268.272 87.1896C263.31 93.755 256.146 97.3748 248.483 97.9629C240.302 98.5901 231.554 95.7653 224.317 89.3782C210.304 77.0066 207.261 55.9753 217.519 42.3952C222.482 35.8266 229.645 32.208 237.307 31.6199C245.487 30.9908 254.236 33.8196 261.473 40.2068L261.473 40.2057ZM252.194 72.9992C255.955 68.0212 254.84 60.3161 249.704 55.7804C247.052 53.4403 243.848 52.4047 240.85 52.6354C238.042 52.8521 235.416 54.1791 233.596 56.5837C229.838 61.5572 230.951 69.2667 236.089 73.7981C238.742 76.1402 241.946 77.1767 244.943 76.9471C247.751 76.7314 250.376 75.4046 252.194 72.9992Z" fill="url(#paint2_linear_1_7285)"/>
<path d="M246.662 60.9112L251.251 57.7834L246.54 60.751L251.408 53.7173L246.351 60.6455L247.333 55.6049L246.137 60.6166L244.281 52.7916L245.914 60.6665L242.706 56.6459L245.732 60.7847L238.212 56.6846L245.607 60.9612L240.079 60.2959L245.564 61.1587L236.786 63.1862L245.609 61.3581L241.008 64.4582L245.731 61.5183L240.863 68.553L245.92 61.6248L244.949 66.6932L246.135 61.6537L248.028 69.5749L246.357 61.6038L249.577 65.6531L246.539 61.4846L254.058 65.5858L246.664 61.3081L252.18 61.9457L246.707 61.1116L255.446 58.989L246.662 60.9112Z" fill="white"/>
<path d="M266.59 89.4629L269.979 85.0624L266.425 89.3489L268.866 81.149L266.212 89.3064L265.579 84.2106L266 89.3462L261.804 82.4856L265.804 89.4625L261.505 86.6392L265.667 89.6319L257.247 88.0742L265.603 89.8386L260.143 90.926L265.624 90.0393L257.911 94.6968L265.729 90.2155L262.319 94.5921L265.894 90.3294L263.454 98.5292L266.107 90.3719L266.759 95.4916L266.32 90.3321L270.581 97.2719L266.515 90.2158L270.834 93.0629L266.651 90.0465L275.072 91.6052L266.716 89.8397L272.157 88.7295L266.695 89.6391L274.342 84.9034L266.59 89.4629Z" fill="white"/>
<path d="M218.893 86.7746C213.932 93.3399 206.845 97.0222 199.184 97.6103C191.002 98.2385 182.254 95.4127 175.017 89.0256C172.34 86.6611 170.107 84.0446 168.314 81.2668C160.333 69.0352 159.884 53.0778 168.219 42.0426C169.711 40.0674 171.476 38.3574 173.32 36.9176C172.946 37.0941 170.881 38.3955 166.172 43.3659C164.884 44.725 163.971 46.0505 162.8 47.6463C152.728 61.3827 155.185 82.5541 169.198 94.9267C176.434 101.313 185.353 103.542 193.534 102.915C200.12 102.409 205.732 100.171 211.337 95.0332C217.442 89.4362 218.825 86.9581 219.038 86.5726C218.986 86.6392 218.944 86.7081 218.893 86.7756L218.893 86.7746Z" fill="url(#paint3_linear_1_7285)"/>
<path d="M203.367 72.7702C207.128 67.7922 205.758 58.9427 200.622 54.407C197.97 52.0669 194.766 51.0313 191.768 51.262C188.96 51.4788 186.334 52.8057 184.514 55.2103C183.941 55.9684 183.482 56.7898 183.134 57.6552C184.152 57.2209 185.236 56.9522 186.35 56.8657C189.348 56.636 192.552 57.6696 195.204 60.0096C199.557 63.8555 201.276 71.1216 199.329 75.9309C200.877 75.2714 202.27 74.2202 203.366 72.7692L203.367 72.7702Z" fill="url(#paint4_linear_1_7285)"/>
<path d="M211.784 40.2057C225.801 52.5729 228.843 73.6093 218.583 87.1896C213.622 93.755 206.457 97.3748 198.795 97.9629C190.613 98.5901 181.865 95.7653 174.629 89.3782C160.615 77.0066 157.573 55.9753 167.83 42.3952C172.794 35.8266 179.956 32.208 187.619 31.6199C195.798 30.9908 204.548 33.8196 211.784 40.2068L211.784 40.2057ZM202.505 72.9992C206.267 68.0212 205.151 60.3161 200.016 55.7804C197.363 53.4403 194.16 52.4047 191.162 52.6354C188.354 52.8521 185.728 54.1791 183.907 56.5837C180.149 61.5572 181.262 69.2667 186.401 73.7981C189.053 76.1402 192.258 77.1767 195.255 76.9471C198.063 76.7314 200.687 75.4046 202.505 72.9992Z" fill="url(#paint5_linear_1_7285)"/>
<path d="M196.974 60.9112L201.562 57.7834L196.852 60.751L201.719 53.7173L196.663 60.6455L197.644 55.6049L196.448 60.6166L194.592 52.7916L196.226 60.6665L193.018 56.6459L196.044 60.7847L188.524 56.6846L195.918 60.9612L190.39 60.2959L195.876 61.1587L187.097 63.1862L195.92 61.3581L191.32 64.4582L196.042 61.5183L191.175 68.553L196.231 61.6248L195.261 66.6932L196.446 61.6537L198.34 69.5749L196.669 61.6038L199.889 65.6531L196.85 61.4846L204.369 65.5858L196.976 61.3081L202.492 61.9457L197.019 61.1116L205.758 58.989L196.974 60.9112Z" fill="white"/>
<path d="M216.901 89.4629L220.291 85.0624L216.736 89.3489L219.177 81.149L216.523 89.3064L215.89 84.2106L216.311 89.3462L212.115 82.4856L216.116 89.4625L211.817 86.6392L215.979 89.6319L207.559 88.0742L215.915 89.8386L210.455 90.926L215.935 90.0393L208.223 94.6968L216.04 90.2155L212.631 94.5921L216.205 90.3294L213.765 98.5292L216.418 90.3719L217.071 95.4916L216.631 90.3321L220.892 97.2719L216.827 90.2158L221.146 93.0629L216.963 90.0465L225.383 91.6052L217.028 89.8397L222.468 88.7295L217.006 89.6391L224.654 84.9034L216.901 89.4629Z" fill="white"/>
<path d="M148.255 86.5637L138.378 86.8533C136.453 86.9099 134.495 86.1179 132.798 84.405C128.581 80.1522 127.542 71.8113 130.478 65.811C132.232 62.2256 135.015 60.2747 137.869 60.1914L147.747 59.9018C144.892 59.9851 142.109 61.936 140.355 65.5214C137.419 71.5217 138.458 79.8626 142.675 84.1154C144.373 85.8282 146.33 86.6203 148.255 86.5637Z" fill="url(#paint6_linear_1_7285)"/>
<path d="M147.884 108.412C144.592 108.509 141.3 108.606 138.007 108.702C145.793 108.475 153.381 103.154 158.163 93.3808C166.171 77.019 163.334 54.278 151.84 42.6851C147.211 38.0168 141.873 35.8571 136.627 36.0117C139.919 35.9155 143.212 35.8193 146.504 35.7221C151.751 35.5685 157.088 37.7282 161.716 42.3956C173.211 53.9884 176.048 76.7304 168.04 93.0911C163.257 102.865 155.669 108.184 147.883 108.413L147.884 108.412Z" fill="url(#paint7_linear_1_7285)"/>
<path d="M122.795 102.029C111.3 90.436 108.462 67.694 116.47 51.3322C124.477 34.9704 140.344 31.0916 151.839 42.6843C163.334 54.2771 166.171 77.0191 158.162 93.3799C150.155 109.742 134.289 113.621 122.794 102.028L122.795 102.029ZM143.45 62.6397C139.233 58.3869 133.415 59.8088 130.478 65.8111C127.542 71.8114 128.581 80.1523 132.798 84.4051C137.015 88.6579 142.834 87.2339 145.771 81.2337C148.708 75.2313 147.667 66.8925 143.45 62.6397Z" fill="url(#paint8_linear_1_7285)"/>
<path d="M164.53 44.8611L169.779 43.8453L164.489 44.6768L171.553 40.3629L164.368 44.5145L167.25 40.4904L164.193 44.4097L165.731 36.9038L163.98 44.3704L162.809 39.6744L163.773 44.4054L158.887 38.0364L163.593 44.5121L159.056 41.8761L163.477 44.6681L155.03 43.1665L163.435 44.8594L158.188 45.8462L163.477 45.0436L156.413 49.3576L163.598 45.2059L160.713 49.2601L163.773 45.3118L162.23 52.9149L163.986 45.3511L165.156 50.076L164.193 45.315L169.078 51.6852L164.373 45.2084L168.912 47.8165L164.489 45.0523L172.941 46.4568L164.53 44.8611Z" fill="white"/>
<path d="M21.8606 63.5145C26.4674 58.9601 31.1508 56.2228 38.9551 54.9916C39.2127 54.9516 39.4767 54.9119 39.7422 54.8746C49.8719 53.445 54.9017 54.8958 60.2511 57.4442C65.8993 60.1362 69.6763 64.8386 70.7619 70.8527C70.8501 71.3455 70.9101 71.8234 70.9471 72.2893C70.9471 72.2893 70.9799 68.1349 70.2866 64.1131C69.9127 61.943 69.2016 59.8814 68.4435 58.3774C66.5178 54.5594 61.8114 48.7419 53.5337 46.6291C50.2287 45.7856 46.2501 45.6087 41.6676 46.0112C36.3585 46.4773 30.0898 47.5599 23.4762 52.8418C19.9857 55.6286 17.4119 59.7413 15.6432 65.2791C15.1618 66.7875 14.6221 70.2442 14.5378 71.9743C14.4576 73.596 14.556 74.9555 14.6609 76.2803C14.8246 78.3687 15.0623 80.0437 15.0623 80.0437C15.0338 79.6593 15.1726 70.1293 21.8583 63.5161L21.8606 63.5145Z" fill="url(#paint9_linear_1_7285)"/>
<path d="M66.0116 83.5684L78.2957 103.968C78.2957 103.968 79.4529 95.941 76.7199 88.5976C74.8569 83.5911 68.6728 79.7031 68.6728 79.7031L66.0128 83.5683L66.0116 83.5684Z" fill="url(#paint10_linear_1_7285)"/>
<path d="M46.2668 74.0106C46.2258 73.9761 46.1816 73.9458 46.1397 73.9139C46.077 73.8673 46.0108 73.8225 45.9438 73.7815C45.889 73.7463 45.8316 73.7115 45.7723 73.6808C45.7155 73.6497 45.6581 73.6236 45.5991 73.5953C45.5323 73.5643 45.4651 73.5309 45.3951 73.5041C45.2269 73.7048 44.6441 74.384 43.9947 74.9608C43.4639 75.4326 42.9526 75.8177 42.2171 76.296C41.4068 76.822 40.7828 76.9682 40.188 77.8445C39.778 78.4501 39.5731 79.2007 39.6169 79.9188C39.6696 80.8135 39.9154 84.087 40.0551 85.9256C40.108 84.7109 40.8475 83.5995 42.0918 83.022C42.1009 83.0158 45.7963 82.0951 47.2579 78.5093C47.8652 77.0239 47.5947 75.3934 46.5636 74.286C46.471 74.1858 46.3711 74.0954 46.2668 74.0106Z" fill="url(#paint11_linear_1_7285)"/>
<path d="M19.8888 105.024C20.4609 104.238 21.3628 103.695 22.3862 103.519L38.9952 100.556C40.6285 100.298 42.2015 100.977 42.9691 102.247C43.4795 103.081 45.4811 106.6 49.4242 106.047C51.3178 105.749 52.9312 104.256 53.4445 102.513C53.8088 101.286 53.4925 99.7418 51.4443 97.7317C51.3519 97.6415 51.2581 97.5603 51.1664 97.4751C51.1154 97.5609 50.4954 98.6022 49.201 99.4195C48.4973 99.8634 44.6715 101.409 41.6789 97.0775C40.472 94.9906 39.2082 94.4935 38.0503 94.4717C37.2336 94.4437 35.5788 94.7476 34.1617 95.0304C32.2993 95.4 30.2971 95.7561 28.5615 96.0271C27.2149 96.239 24.9635 96.7517 21.4575 97.3786C18.745 97.8626 17.915 99.7002 18.0578 100.953C18.1375 101.65 19.3015 107.541 19.4268 108.058C19.3828 107.853 19.3134 105.813 19.8886 105.022L19.8888 105.024Z" fill="url(#paint12_linear_1_7285)"/>
<path d="M77.9578 97.6961C76.1216 87.4037 66.5171 83.7589 66.0115 83.5684C66.3215 83.3333 72.2051 78.8834 70.7589 70.8516C69.6735 64.8388 65.8952 60.1365 60.2481 57.4431C54.8987 54.8947 49.8689 53.4439 39.7392 54.8735C39.4725 54.911 39.2098 54.9505 38.9522 54.9905C31.1479 56.2217 26.4644 58.959 21.8576 63.5134C15.1733 70.1277 15.0345 79.6577 15.0628 80.0409C15.1384 81.0026 15.6629 81.8846 16.5077 82.4687C17.3337 83.0441 18.3915 83.2786 19.479 83.1057L35.609 80.3507C37.3694 80.05 38.5299 78.8839 38.7279 77.1522C38.9333 75.4195 40.4959 73.719 42.8209 73.324C44.4666 73.064 45.723 73.3867 46.5615 74.2848C47.5927 75.3923 47.8632 77.0227 47.2559 78.5082C45.7942 82.094 42.0989 83.0147 42.0897 83.0209C40.5907 83.7145 39.8119 85.1819 40.097 86.6714L40.5459 91.7887C40.8417 93.3105 42.2419 94.4517 43.9471 94.5656C45.3008 94.6547 48.3939 94.7403 51.4409 97.7307C53.4889 99.7396 53.8065 101.283 53.4411 102.512C52.9264 104.254 51.3143 105.747 49.4209 106.046C45.4789 106.599 43.4761 103.08 42.9657 102.246C42.1983 100.977 40.6253 100.298 38.9918 100.555L22.3828 103.518C21.3593 103.692 20.4575 104.237 19.8854 105.023C19.31 105.812 19.1171 106.77 19.3437 107.682C19.4543 108.118 21.1955 118.346 30.3246 123.434C36.5868 126.929 43.7911 127.974 52.3176 126.628C52.5357 126.592 52.7529 126.559 52.9733 126.522C61.5528 125.059 68.2427 121.656 72.8592 116.408C77.5964 111.025 79.2154 104.745 77.955 97.694L77.9578 97.6961Z" fill="url(#paint13_linear_1_7285)"/>
<path d="M28.5498 49.9738L34.7406 51.6726L28.6211 49.7336L38.8046 48.5247L28.5935 49.4756L34.1717 46.2985L28.4734 49.2552L34.8188 41.1989L28.2719 49.0909L29.9694 42.9002L28.0307 49.021L26.8218 38.8375L27.7737 49.0472L24.5956 43.4704L27.5522 49.1687L19.497 42.8219L27.3892 49.37L21.1985 47.6724L27.318 49.6114L17.1345 50.8203L27.3454 49.8682L21.7674 53.0465L27.4656 50.0886L21.1189 58.1451L27.6669 50.2517L25.9695 56.4436L27.9083 50.3228L29.1172 60.5063L28.1665 50.2965L31.3434 55.8734L28.3869 50.1763L36.442 56.5219L28.5498 49.9738Z" fill="white"/>
<path d="M70.7032 52.7077C76.1185 49.1525 81.2503 47.3938 89.144 47.7278C89.4045 47.7394 89.671 47.7527 89.9387 47.7685C100.151 48.3672 104.796 50.7825 109.536 54.337C114.542 58.0911 117.316 63.4468 117.193 69.5568C117.182 70.0573 117.147 70.5376 117.091 71.0017C117.091 71.0017 117.943 66.9356 118.058 62.856C118.12 60.6549 117.83 58.4934 117.383 56.8693C116.249 52.7462 112.784 46.114 105.087 42.4084C102.013 40.929 98.148 39.97 93.5763 39.4597C88.2796 38.8684 81.9206 38.692 74.3943 42.5641C70.4222 44.6068 67.0871 48.1304 64.2598 53.2099C63.49 54.5936 62.2784 57.8756 61.8542 59.555C61.4554 61.129 61.2834 62.4812 61.1247 63.8006C60.8728 65.8802 60.7751 67.5691 60.7751 67.5691C60.8231 67.1867 62.8408 57.8717 70.7006 52.7087L70.7032 52.7077Z" fill="url(#paint14_linear_1_7285)"/>
<path d="M110.027 81.0844L118.042 103.508C118.042 103.508 120.761 95.8673 119.532 88.1289C118.694 82.8531 113.399 77.8206 113.399 77.8206L110.028 81.0844L110.027 81.0844Z" fill="url(#paint15_linear_1_7285)"/>
<path d="M92.5574 67.8163C92.524 67.7743 92.4867 67.7359 92.4519 67.6964C92.3996 67.6383 92.3436 67.5813 92.286 67.5278C92.2392 67.4826 92.1898 67.4371 92.1378 67.3953C92.0882 67.3536 92.037 67.3167 91.9848 67.2773C91.9254 67.2337 91.8662 67.1877 91.8028 67.1476C91.5984 67.3111 90.8929 67.8619 90.1424 68.2991C89.5289 68.6568 88.9516 68.9334 88.1362 69.257C87.238 69.6127 86.5974 69.6328 85.8412 70.3744C85.3198 70.8871 84.9707 71.5825 84.8718 72.2951C84.7469 73.1826 84.3415 76.4402 84.1154 78.2702C84.407 77.0899 85.3515 76.1464 86.6853 75.8259C86.6955 75.8216 90.4998 75.6487 92.6407 72.4221C93.5293 71.0858 93.5861 69.434 92.7939 68.1448C92.723 68.0283 92.6428 67.92 92.5574 67.8163Z" fill="url(#paint16_linear_1_7285)"/>
<path d="M60.5749 93.0101C61.2909 92.3531 62.2823 91.9984 63.3202 92.0285L80.1872 92.4033C81.8395 92.4725 83.2473 93.449 83.7491 94.8453C84.0848 95.7635 85.3521 99.609 89.3269 99.8449C91.242 99.9271 93.1184 98.7819 93.9658 97.1743C94.5652 96.0434 94.56 94.4673 92.949 92.0923C92.8762 91.9857 92.8003 91.8876 92.7272 91.7859C92.6603 91.86 91.8469 92.7583 90.4166 93.304C89.6391 93.6002 85.5834 94.3603 83.505 89.5228C82.734 87.2387 81.5932 86.5019 80.4624 86.2519C79.6672 86.0632 77.9851 86.0344 76.54 86.0318C74.6412 86.0265 72.6082 85.9802 70.8532 85.9032C69.4914 85.845 67.183 85.9031 63.6222 85.8254C60.8676 85.7642 59.6911 87.4019 59.5836 88.6586C59.5242 89.3575 59.5022 95.3621 59.523 95.8932C59.5202 95.6841 59.855 93.6707 60.575 93.0089L60.5749 93.0101Z" fill="url(#paint17_linear_1_7285)"/>
<path d="M118.949 97.2929C119.181 86.8405 110.486 81.3711 110.028 81.0845C110.378 80.9153 117.024 77.7147 117.193 69.5554C117.316 63.4466 114.54 58.0909 109.536 54.3356C104.795 50.7811 100.151 48.3658 89.9383 47.7671C89.6694 47.7512 89.4041 47.738 89.1437 47.7264C81.2499 47.3925 76.1182 49.1511 70.7028 52.7063C62.8442 57.8705 60.8264 67.1855 60.7785 67.5668C60.6627 68.5245 61.0028 69.4927 61.7155 70.2321C62.4117 70.9592 63.4023 71.398 64.5026 71.4432L80.859 71.9273C82.6441 71.9801 84.012 71.0661 84.5481 69.4076C85.0915 67.7495 86.9591 66.391 89.3164 66.4629C90.981 66.5329 92.1489 67.0974 92.7937 68.1434C93.5858 69.4326 93.5291 71.0844 92.6404 72.4207C90.4996 75.6473 86.6952 75.8202 86.685 75.8245C85.0785 76.2084 84.0253 77.4932 84.0107 79.0097L83.4403 84.1148C83.4298 85.6651 84.5771 87.0603 86.2264 87.5087C87.5358 87.8632 90.5511 88.5579 92.9476 92.0911C94.5587 94.4648 94.5652 96.041 93.9645 97.173C93.1159 98.7793 91.2407 99.9247 89.3256 99.8436C85.352 99.6078 84.0835 95.7622 83.7477 94.8441C83.2459 93.449 81.838 92.4725 80.1859 92.402L63.3188 92.0272C62.2811 91.9959 61.2895 92.3518 60.5736 93.0089C59.8536 93.6695 59.4753 94.5707 59.5175 95.5086C59.5399 95.9578 59.2271 106.329 67.1721 113.119C72.6209 117.782 79.477 120.229 88.1014 120.593C88.3222 120.601 88.5417 120.611 88.7652 120.618C97.4646 120.878 104.695 118.863 110.256 114.63C115.963 110.288 118.79 104.452 118.947 97.2902L118.949 97.2929Z" fill="url(#paint18_linear_1_7285)"/>
<path d="M79.9345 40.7544L85.668 43.642L80.0518 40.533L90.2735 41.3586L80.0757 40.2746L86.1714 38.2615L80.0015 40.0348L87.8127 33.3899L79.8364 39.834L82.7229 34.1003L79.6137 39.7178L80.4393 29.496L79.3566 39.6927L77.3422 33.5982L79.1155 39.7681L72.472 31.9558L78.916 39.9333L73.1823 37.0468L78.7985 40.1559L68.5768 39.3303L78.7747 40.413L72.6789 42.4274L78.8489 40.6528L71.0365 47.2976L79.0141 40.8524L76.1275 46.5873L79.2367 40.9698L78.4111 51.1916L79.495 40.995L81.5082 47.0894L79.7348 40.9207L86.3784 48.7319L79.9345 40.7544Z" fill="white"/>
<path d="M299.291 52.1411C298.991 48.9959 297.072 48.1603 293.609 48.4898L287.821 49.0405L287.312 43.6901L308.959 41.6303L309.468 46.9808L304.182 47.4838C305.113 48.5996 305.749 49.9372 306.15 51.4885L309.864 51.1351L310.372 56.483L306.659 56.8364C306.735 62.9904 302.34 66.8356 296.99 67.3446L313.527 85.643L306.102 86.3494L289.629 68.045L289.12 62.6946L294.908 62.1438C298.368 61.8146 300.099 60.6343 299.799 57.4865L288.724 58.5402L288.216 53.1923L299.291 52.1386L299.291 52.1411Z" fill="#F5EA87"/>
<defs>
<linearGradient id="paint0_linear_1_7285" x1="206.694" y1="72.4328" x2="266.836" y2="66.7104" gradientUnits="userSpaceOnUse">
<stop stop-color="#CFA842"/>
<stop offset="0.06" stop-color="#BA8F34"/>
<stop offset="0.14" stop-color="#A77827"/>
<stop offset="0.23" stop-color="#98661C"/>
<stop offset="0.34" stop-color="#8D5915"/>
<stop offset="0.48" stop-color="#875211"/>
<stop offset="0.79" stop-color="#865010"/>
</linearGradient>
<linearGradient id="paint1_linear_1_7285" x1="238.344" y1="51.4376" x2="254.712" y2="71.6895" gradientUnits="userSpaceOnUse">
<stop offset="0.05" stop-color="#865010"/>
<stop offset="0.16" stop-color="#875212"/>
<stop offset="0.23" stop-color="#8D5A19"/>
<stop offset="0.28" stop-color="#976926"/>
<stop offset="0.33" stop-color="#A57D39"/>
<stop offset="0.37" stop-color="#B79751"/>
<stop offset="0.41" stop-color="#CDB76E"/>
<stop offset="0.45" stop-color="#E7DD90"/>
<stop offset="0.48" stop-color="#FFFFAF"/>
<stop offset="0.5" stop-color="#F8F3A0"/>
<stop offset="0.55" stop-color="#E8D57B"/>
<stop offset="0.61" stop-color="#CFA842"/>
</linearGradient>
<linearGradient id="paint2_linear_1_7285" x1="219.328" y1="80.2927" x2="270.915" y2="46.4121" gradientUnits="userSpaceOnUse">
<stop offset="0.07" stop-color="#CFA842"/>
<stop offset="0.21" stop-color="#E1C86A"/>
<stop offset="0.36" stop-color="#F1E38D"/>
<stop offset="0.48" stop-color="#FBF3A2"/>
<stop offset="0.56" stop-color="#FFFAAA"/>
<stop offset="1" stop-color="#EBD964"/>
</linearGradient>
<linearGradient id="paint3_linear_1_7285" x1="157.006" y1="72.4328" x2="217.148" y2="66.7104" gradientUnits="userSpaceOnUse">
<stop stop-color="#CFA842"/>
<stop offset="0.06" stop-color="#BA8F34"/>
<stop offset="0.14" stop-color="#A77827"/>
<stop offset="0.23" stop-color="#98661C"/>
<stop offset="0.34" stop-color="#8D5915"/>
<stop offset="0.48" stop-color="#875211"/>
<stop offset="0.79" stop-color="#865010"/>
</linearGradient>
<linearGradient id="paint4_linear_1_7285" x1="188.655" y1="51.4376" x2="205.024" y2="71.6895" gradientUnits="userSpaceOnUse">
<stop offset="0.05" stop-color="#865010"/>
<stop offset="0.16" stop-color="#875212"/>
<stop offset="0.23" stop-color="#8D5A19"/>
<stop offset="0.28" stop-color="#976926"/>
<stop offset="0.33" stop-color="#A57D39"/>
<stop offset="0.37" stop-color="#B79751"/>
<stop offset="0.41" stop-color="#CDB76E"/>
<stop offset="0.45" stop-color="#E7DD90"/>
<stop offset="0.48" stop-color="#FFFFAF"/>
<stop offset="0.5" stop-color="#F8F3A0"/>
<stop offset="0.55" stop-color="#E8D57B"/>
<stop offset="0.61" stop-color="#CFA842"/>
</linearGradient>
<linearGradient id="paint5_linear_1_7285" x1="169.64" y1="80.2927" x2="221.226" y2="46.4121" gradientUnits="userSpaceOnUse">
<stop offset="0.07" stop-color="#CFA842"/>
<stop offset="0.21" stop-color="#E1C86A"/>
<stop offset="0.36" stop-color="#F1E38D"/>
<stop offset="0.48" stop-color="#FBF3A2"/>
<stop offset="0.56" stop-color="#FFFAAA"/>
<stop offset="1" stop-color="#EBD964"/>
</linearGradient>
<linearGradient id="paint6_linear_1_7285" x1="138.117" y1="61.4681" x2="138.75" y2="82.5198" gradientUnits="userSpaceOnUse">
<stop stop-color="#865010"/>
<stop offset="0.37" stop-color="#CFA842"/>
<stop offset="0.62" stop-color="#EBD964"/>
<stop offset="0.89" stop-color="#CFA842"/>
<stop offset="1" stop-color="#C08D10"/>
</linearGradient>
<linearGradient id="paint7_linear_1_7285" x1="155.459" y1="91.7648" x2="150.379" y2="22.7818" gradientUnits="userSpaceOnUse">
<stop offset="0.05" stop-color="#7A4910"/>
<stop offset="0.31" stop-color="#EBD964"/>
<stop offset="0.62" stop-color="#FFFFAF"/>
<stop offset="1" stop-color="#CFA842"/>
</linearGradient>
<linearGradient id="paint8_linear_1_7285" x1="116.826" y1="76.5887" x2="186.931" y2="62.1287" gradientUnits="userSpaceOnUse">
<stop stop-color="#865010"/>
<stop offset="0.38" stop-color="#EBD964"/>
<stop offset="0.8" stop-color="#EBD964"/>
<stop offset="1" stop-color="#CFA842"/>
</linearGradient>
<linearGradient id="paint9_linear_1_7285" x1="12.6177" y1="66.3599" x2="68.9009" y2="56.3543" gradientUnits="userSpaceOnUse">
<stop offset="0.05" stop-color="#865010"/>
<stop offset="0.12" stop-color="#875212"/>
<stop offset="0.15" stop-color="#8D5A19"/>
<stop offset="0.18" stop-color="#976926"/>
<stop offset="0.21" stop-color="#A57D39"/>
<stop offset="0.23" stop-color="#B79751"/>
<stop offset="0.26" stop-color="#CDB76E"/>
<stop offset="0.28" stop-color="#E7DD90"/>
<stop offset="0.29" stop-color="#FFFFAF"/>
<stop offset="0.31" stop-color="#F7F09D"/>
<stop offset="0.34" stop-color="#E5D175"/>
<stop offset="0.37" stop-color="#D9BA59"/>
<stop offset="0.4" stop-color="#D1AC48"/>
<stop offset="0.42" stop-color="#CFA842"/>
<stop offset="0.58" stop-color="#CBA33A"/>
<stop offset="0.8" stop-color="#C19627"/>
<stop offset="0.83" stop-color="#C09424"/>
</linearGradient>
<linearGradient id="paint10_linear_1_7285" x1="67.2505" y1="92.6831" x2="77.7378" y2="91.2576" gradientUnits="userSpaceOnUse">
<stop offset="0.05" stop-color="#865010"/>
<stop offset="0.12" stop-color="#875212"/>
<stop offset="0.15" stop-color="#8D5A19"/>
<stop offset="0.18" stop-color="#976926"/>
<stop offset="0.21" stop-color="#A57D39"/>
<stop offset="0.23" stop-color="#B79751"/>
<stop offset="0.26" stop-color="#CDB76E"/>
<stop offset="0.28" stop-color="#E7DD90"/>
<stop offset="0.29" stop-color="#FFFFAF"/>
<stop offset="0.31" stop-color="#F7F09D"/>
<stop offset="0.34" stop-color="#E5D175"/>
<stop offset="0.37" stop-color="#D9BA59"/>
<stop offset="0.4" stop-color="#D1AC48"/>
<stop offset="0.42" stop-color="#CFA842"/>
<stop offset="0.58" stop-color="#CBA33A"/>
<stop offset="0.8" stop-color="#C19627"/>
<stop offset="0.83" stop-color="#C09424"/>
</linearGradient>
<linearGradient id="paint11_linear_1_7285" x1="39.2758" y1="80.1831" x2="47.901" y2="79.0107" gradientUnits="userSpaceOnUse">
<stop offset="0.05" stop-color="#865010"/>
<stop offset="0.12" stop-color="#875212"/>
<stop offset="0.15" stop-color="#8D5A19"/>
<stop offset="0.18" stop-color="#976926"/>
<stop offset="0.21" stop-color="#A57D39"/>
<stop offset="0.23" stop-color="#B79751"/>
<stop offset="0.26" stop-color="#CDB76E"/>
<stop offset="0.28" stop-color="#E7DD90"/>
<stop offset="0.29" stop-color="#FFFFAF"/>
<stop offset="0.31" stop-color="#F7F09D"/>
<stop offset="0.34" stop-color="#E5D175"/>
<stop offset="0.37" stop-color="#D9BA59"/>
<stop offset="0.4" stop-color="#D1AC48"/>
<stop offset="0.42" stop-color="#CFA842"/>
<stop offset="0.58" stop-color="#CBA33A"/>
<stop offset="0.8" stop-color="#C19627"/>
<stop offset="0.83" stop-color="#C09424"/>
</linearGradient>
<linearGradient id="paint12_linear_1_7285" x1="18.4296" y1="103.689" x2="53.1843" y2="98.7536" gradientUnits="userSpaceOnUse">
<stop offset="0.05" stop-color="#865010"/>
<stop offset="0.12" stop-color="#875212"/>
<stop offset="0.15" stop-color="#8D5A19"/>
<stop offset="0.18" stop-color="#976926"/>
<stop offset="0.21" stop-color="#A57D39"/>
<stop offset="0.23" stop-color="#B79751"/>
<stop offset="0.26" stop-color="#CDB76E"/>
<stop offset="0.28" stop-color="#E7DD90"/>
<stop offset="0.29" stop-color="#FFFFAF"/>
<stop offset="0.31" stop-color="#F7F09D"/>
<stop offset="0.34" stop-color="#E5D175"/>
<stop offset="0.37" stop-color="#D9BA59"/>
<stop offset="0.4" stop-color="#D1AC48"/>
<stop offset="0.42" stop-color="#CFA842"/>
<stop offset="0.58" stop-color="#CBA33A"/>
<stop offset="0.8" stop-color="#C19627"/>
<stop offset="0.83" stop-color="#C09424"/>
</linearGradient>
<linearGradient id="paint13_linear_1_7285" x1="21.1423" y1="94.8581" x2="75.4535" y2="85.4506" gradientUnits="userSpaceOnUse">
<stop stop-color="#DCC144"/>
<stop offset="0.11" stop-color="#E4CF5D"/>
<stop offset="0.31" stop-color="#F3E687"/>
<stop offset="0.47" stop-color="#FBF4A0"/>
<stop offset="0.56" stop-color="#FFFAAA"/>
<stop offset="0.68" stop-color="#FEF8A6"/>
<stop offset="0.78" stop-color="#FAF39B"/>
<stop offset="0.87" stop-color="#F5EA89"/>
<stop offset="0.96" stop-color="#EEDF70"/>
<stop offset="1" stop-color="#EBD964"/>
</linearGradient>
<linearGradient id="paint14_linear_1_7285" x1="61.0805" y1="53.672" x2="118.231" y2="54.9764" gradientUnits="userSpaceOnUse">
<stop offset="0.05" stop-color="#865010"/>
<stop offset="0.12" stop-color="#875212"/>
<stop offset="0.15" stop-color="#8D5A19"/>
<stop offset="0.18" stop-color="#976926"/>
<stop offset="0.21" stop-color="#A57D39"/>
<stop offset="0.23" stop-color="#B79751"/>
<stop offset="0.26" stop-color="#CDB76E"/>
<stop offset="0.28" stop-color="#E7DD90"/>
<stop offset="0.29" stop-color="#FFFFAF"/>
<stop offset="0.31" stop-color="#F7F09D"/>
<stop offset="0.34" stop-color="#E5D175"/>
<stop offset="0.37" stop-color="#D9BA59"/>
<stop offset="0.4" stop-color="#D1AC48"/>
<stop offset="0.42" stop-color="#CFA842"/>
<stop offset="0.58" stop-color="#CBA33A"/>
<stop offset="0.8" stop-color="#C19627"/>
<stop offset="0.83" stop-color="#C09424"/>
</linearGradient>
<linearGradient id="paint15_linear_1_7285" x1="109.442" y1="90.2643" x2="120.004" y2="90.9375" gradientUnits="userSpaceOnUse">
<stop offset="0.05" stop-color="#865010"/>
<stop offset="0.12" stop-color="#875212"/>
<stop offset="0.15" stop-color="#8D5A19"/>
<stop offset="0.18" stop-color="#976926"/>
<stop offset="0.21" stop-color="#A57D39"/>
<stop offset="0.23" stop-color="#B79751"/>
<stop offset="0.26" stop-color="#CDB76E"/>
<stop offset="0.28" stop-color="#E7DD90"/>
<stop offset="0.29" stop-color="#FFFFAF"/>
<stop offset="0.31" stop-color="#F7F09D"/>
<stop offset="0.34" stop-color="#E5D175"/>
<stop offset="0.37" stop-color="#D9BA59"/>
<stop offset="0.4" stop-color="#D1AC48"/>
<stop offset="0.42" stop-color="#CFA842"/>
<stop offset="0.58" stop-color="#CBA33A"/>
<stop offset="0.8" stop-color="#C19627"/>
<stop offset="0.83" stop-color="#C09424"/>
</linearGradient>
<linearGradient id="paint16_linear_1_7285" x1="84.4853" y1="72.4869" x2="93.1722" y2="73.0405" gradientUnits="userSpaceOnUse">
<stop offset="0.05" stop-color="#865010"/>
<stop offset="0.12" stop-color="#875212"/>
<stop offset="0.15" stop-color="#8D5A19"/>
<stop offset="0.18" stop-color="#976926"/>
<stop offset="0.21" stop-color="#A57D39"/>
<stop offset="0.23" stop-color="#B79751"/>
<stop offset="0.26" stop-color="#CDB76E"/>
<stop offset="0.28" stop-color="#E7DD90"/>
<stop offset="0.29" stop-color="#FFFFAF"/>
<stop offset="0.31" stop-color="#F7F09D"/>
<stop offset="0.34" stop-color="#E5D175"/>
<stop offset="0.37" stop-color="#D9BA59"/>
<stop offset="0.4" stop-color="#D1AC48"/>
<stop offset="0.42" stop-color="#CFA842"/>
<stop offset="0.58" stop-color="#CBA33A"/>
<stop offset="0.8" stop-color="#C19627"/>
<stop offset="0.83" stop-color="#C09424"/>
</linearGradient>
<linearGradient id="paint17_linear_1_7285" x1="59.408" y1="91.4138" x2="94.453" y2="93.4377" gradientUnits="userSpaceOnUse">
<stop offset="0.05" stop-color="#865010"/>
<stop offset="0.12" stop-color="#875212"/>
<stop offset="0.15" stop-color="#8D5A19"/>
<stop offset="0.18" stop-color="#976926"/>
<stop offset="0.21" stop-color="#A57D39"/>
<stop offset="0.23" stop-color="#B79751"/>
<stop offset="0.26" stop-color="#CDB76E"/>
<stop offset="0.28" stop-color="#E7DD90"/>
<stop offset="0.29" stop-color="#FFFFAF"/>
<stop offset="0.31" stop-color="#F7F09D"/>
<stop offset="0.34" stop-color="#E5D175"/>
<stop offset="0.37" stop-color="#D9BA59"/>
<stop offset="0.4" stop-color="#D1AC48"/>
<stop offset="0.42" stop-color="#CFA842"/>
<stop offset="0.58" stop-color="#CBA33A"/>
<stop offset="0.8" stop-color="#C19627"/>
<stop offset="0.83" stop-color="#C09424"/>
</linearGradient>
<linearGradient id="paint18_linear_1_7285" x1="63.8127" y1="83.2927" x2="118.912" y2="84.7939" gradientUnits="userSpaceOnUse">
<stop stop-color="#DCC144"/>
<stop offset="0.11" stop-color="#E4CF5D"/>
<stop offset="0.31" stop-color="#F3E687"/>
<stop offset="0.47" stop-color="#FBF4A0"/>
<stop offset="0.56" stop-color="#FFFAAA"/>
<stop offset="0.68" stop-color="#FEF8A6"/>
<stop offset="0.78" stop-color="#FAF39B"/>
<stop offset="0.87" stop-color="#F5EA89"/>
<stop offset="0.96" stop-color="#EEDF70"/>
<stop offset="1" stop-color="#EBD964"/>
</linearGradient>
</defs>
</svg>
