<svg width="440" height="205" viewBox="0 0 440 205" fill="none" xmlns="http://www.w3.org/2000/svg">
<rect width="440" height="204" rx="50" fill="#75A425"/>
<rect y="5" width="440" height="200" rx="50" fill="url(#paint0_linear_1_3977)"/>
<mask id="path-3-outside-1_1_3977" maskUnits="userSpaceOnUse" x="109" y="36" width="232" height="105" fill="black">
<rect fill="white" x="109" y="36" width="232" height="105"/>
<path d="M142.287 79V37H164.727C170.527 37 174.807 38.04 177.567 40.12C180.327 42.16 181.707 44.78 181.707 47.98C181.707 50.1 181.107 52 179.907 53.68C178.747 55.32 177.047 56.62 174.807 57.58C172.567 58.54 169.807 59.02 166.527 59.02L167.727 55.78C171.007 55.78 173.827 56.24 176.187 57.16C178.587 58.08 180.427 59.42 181.707 61.18C183.027 62.9 183.687 64.98 183.687 67.42C183.687 71.06 182.167 73.9 179.127 75.94C176.127 77.98 171.727 79 165.927 79H142.287ZM156.207 69.1H164.727C166.287 69.1 167.447 68.82 168.207 68.26C169.007 67.7 169.407 66.88 169.407 65.8C169.407 64.72 169.007 63.9 168.207 63.34C167.447 62.78 166.287 62.5 164.727 62.5H155.247V53.14H162.807C164.407 53.14 165.567 52.88 166.287 52.36C167.047 51.8 167.427 51.02 167.427 50.02C167.427 48.98 167.047 48.2 166.287 47.68C165.567 47.16 164.407 46.9 162.807 46.9H156.207V69.1ZM201.653 52.6H220.373V62.8H201.653V52.6ZM202.613 68.32H223.613V79H188.693V37H222.833V47.68H202.613V68.32ZM224.505 79L242.865 37H256.785L275.145 79H260.505L246.945 43.72H252.465L238.905 79H224.505ZM235.425 71.68L239.025 61.48H258.345L261.945 71.68H235.425ZM284.415 79V47.98H272.115V37H310.875V47.98H298.575V79H284.415ZM134.448 139.96C131.048 139.96 127.908 139.44 125.028 138.4C122.188 137.32 119.708 135.8 117.588 133.84C115.508 131.88 113.888 129.56 112.728 126.88C111.568 124.2 110.988 121.24 110.988 118C110.988 114.76 111.568 111.8 112.728 109.12C113.888 106.44 115.528 104.12 117.648 102.16C119.768 100.2 122.268 98.7 125.148 97.66C128.068 96.58 131.268 96.04 134.748 96.04C138.908 96.04 142.608 96.74 145.848 98.14C149.128 99.54 151.828 101.54 153.948 104.14L144.888 112.12C143.568 110.6 142.128 109.46 140.568 108.7C139.048 107.9 137.348 107.5 135.468 107.5C133.908 107.5 132.488 107.74 131.208 108.22C129.968 108.7 128.908 109.4 128.028 110.32C127.148 111.24 126.468 112.34 125.988 113.62C125.508 114.9 125.268 116.36 125.268 118C125.268 119.56 125.508 121 125.988 122.32C126.468 123.6 127.148 124.7 128.028 125.62C128.908 126.54 129.948 127.26 131.148 127.78C132.388 128.26 133.768 128.5 135.288 128.5C136.888 128.5 138.448 128.24 139.968 127.72C141.488 127.16 143.108 126.22 144.828 124.9L152.748 134.62C150.188 136.34 147.268 137.66 143.988 138.58C140.708 139.5 137.528 139.96 134.448 139.96ZM140.448 132.82V116.86H152.748V134.62L140.448 132.82ZM154.221 139L172.581 97H186.501L204.861 139H190.221L176.661 103.72H182.181L168.621 139H154.221ZM165.141 131.68L168.741 121.48H188.061L191.661 131.68H165.141ZM207.121 139V97H218.761L235.561 124.42H229.441L245.761 97H257.401L257.521 139H244.621L244.501 116.44H246.541L235.381 135.22H229.141L217.501 116.44H220.021V139H207.121ZM277.327 112.6H296.047V122.8H277.327V112.6ZM278.287 128.32H299.287V139H264.367V97H298.507V107.68H278.287V128.32ZM320.398 139.96C316.878 139.96 313.478 139.56 310.198 138.76C306.918 137.96 304.218 136.92 302.098 135.64L306.658 125.32C308.658 126.48 310.878 127.42 313.318 128.14C315.798 128.82 318.198 129.16 320.518 129.16C321.878 129.16 322.938 129.08 323.698 128.92C324.498 128.72 325.078 128.46 325.438 128.14C325.798 127.78 325.978 127.36 325.978 126.88C325.978 126.12 325.558 125.52 324.718 125.08C323.878 124.64 322.758 124.28 321.358 124C319.998 123.68 318.498 123.36 316.858 123.04C315.218 122.68 313.558 122.22 311.878 121.66C310.238 121.1 308.718 120.36 307.318 119.44C305.958 118.52 304.858 117.32 304.018 115.84C303.178 114.32 302.758 112.44 302.758 110.2C302.758 107.6 303.478 105.24 304.918 103.12C306.398 100.96 308.578 99.24 311.458 97.96C314.378 96.68 317.998 96.04 322.318 96.04C325.158 96.04 327.958 96.34 330.718 96.94C333.478 97.54 335.958 98.46 338.158 99.7L333.898 109.96C331.818 108.92 329.798 108.14 327.838 107.62C325.918 107.1 324.038 106.84 322.198 106.84C320.838 106.84 319.758 106.96 318.958 107.2C318.158 107.44 317.578 107.76 317.218 108.16C316.898 108.56 316.738 109 316.738 109.48C316.738 110.2 317.158 110.78 317.998 111.22C318.838 111.62 319.938 111.96 321.298 112.24C322.698 112.52 324.218 112.82 325.858 113.14C327.538 113.46 329.198 113.9 330.838 114.46C332.478 115.02 333.978 115.76 335.338 116.68C336.738 117.6 337.858 118.8 338.698 120.28C339.538 121.76 339.958 123.6 339.958 125.8C339.958 128.36 339.218 130.72 337.738 132.88C336.298 135 334.138 136.72 331.258 138.04C328.378 139.32 324.758 139.96 320.398 139.96Z"/>
</mask>
<path d="M142.287 79H141.287V80H142.287V79ZM142.287 37V36H141.287V37H142.287ZM177.567 40.12L176.965 40.9186L176.973 40.9242L177.567 40.12ZM179.907 53.68L179.093 53.0988L179.091 53.1025L179.907 53.68ZM174.807 57.58L174.413 56.6609L174.413 56.6609L174.807 57.58ZM166.527 59.02L165.589 58.6727L165.09 60.02H166.527V59.02ZM167.727 55.78V54.78H167.031L166.789 55.4327L167.727 55.78ZM176.187 57.16L175.824 58.0917L175.829 58.0937L176.187 57.16ZM181.707 61.18L180.898 61.7682L180.906 61.7786L180.914 61.7888L181.707 61.18ZM179.127 75.94L178.57 75.1096L178.565 75.1131L179.127 75.94ZM156.207 69.1H155.207V70.1H156.207V69.1ZM168.207 68.26L167.634 67.4408L167.624 67.4477L167.614 67.4549L168.207 68.26ZM168.207 63.34L167.614 64.1451L167.624 64.1523L167.634 64.1592L168.207 63.34ZM155.247 62.5H154.247V63.5H155.247V62.5ZM155.247 53.14V52.14H154.247V53.14H155.247ZM166.287 52.36L166.873 53.1707L166.88 53.1651L166.287 52.36ZM166.287 47.68L165.702 48.4907L165.712 48.4981L165.723 48.5053L166.287 47.68ZM156.207 46.9V45.9H155.207V46.9H156.207ZM143.287 79V37H141.287V79H143.287ZM142.287 38H164.727V36H142.287V38ZM164.727 38C170.444 38 174.462 39.0317 176.965 40.9186L178.169 39.3214C175.153 37.0483 170.611 36 164.727 36V38ZM176.973 40.9242C179.499 42.7916 180.707 45.1231 180.707 47.98H182.707C182.707 44.4369 181.155 41.5284 178.162 39.3158L176.973 40.9242ZM180.707 47.98C180.707 49.8976 180.169 51.5932 179.093 53.0988L180.721 54.2612C182.045 52.4068 182.707 50.3024 182.707 47.98H180.707ZM179.091 53.1025C178.058 54.5626 176.52 55.758 174.413 56.6609L175.201 58.4991C177.574 57.482 179.436 56.0774 180.724 54.2575L179.091 53.1025ZM174.413 56.6609C172.333 57.5525 169.716 58.02 166.527 58.02V60.02C169.898 60.02 172.802 59.5275 175.201 58.4991L174.413 56.6609ZM167.465 59.3673L168.665 56.1273L166.789 55.4327L165.589 58.6727L167.465 59.3673ZM167.727 56.78C170.918 56.78 173.608 57.228 175.824 58.0917L176.55 56.2283C174.046 55.252 171.097 54.78 167.727 54.78V56.78ZM175.829 58.0937C178.082 58.9573 179.751 60.191 180.898 61.7682L182.516 60.5918C181.103 58.649 179.092 57.2027 176.545 56.2263L175.829 58.0937ZM180.914 61.7888C182.083 63.3125 182.687 65.1711 182.687 67.42H184.687C184.687 64.7889 183.971 62.4875 182.5 60.5712L180.914 61.7888ZM182.687 67.42C182.687 70.7244 181.335 73.254 178.57 75.1096L179.684 76.7704C182.999 74.546 184.687 71.3956 184.687 67.42H182.687ZM178.565 75.1131C175.803 76.9912 171.637 78 165.927 78V80C171.818 80 176.451 78.9688 179.689 76.7669L178.565 75.1131ZM165.927 78H142.287V80H165.927V78ZM156.207 70.1H164.727V68.1H156.207V70.1ZM164.727 70.1C166.374 70.1 167.789 69.8105 168.8 69.0651L167.614 67.4549C167.106 67.8295 166.201 68.1 164.727 68.1V70.1ZM168.781 69.0792C169.879 68.3101 170.407 67.166 170.407 65.8H168.407C168.407 66.594 168.135 67.0899 167.634 67.4408L168.781 69.0792ZM170.407 65.8C170.407 64.434 169.879 63.2899 168.781 62.5208L167.634 64.1592C168.135 64.5101 168.407 65.006 168.407 65.8H170.407ZM168.8 62.5349C167.789 61.7895 166.374 61.5 164.727 61.5V63.5C166.201 63.5 167.106 63.7705 167.614 64.1451L168.8 62.5349ZM164.727 61.5H155.247V63.5H164.727V61.5ZM156.247 62.5V53.14H154.247V62.5H156.247ZM155.247 54.14H162.807V52.14H155.247V54.14ZM162.807 54.14C164.47 54.14 165.893 53.8785 166.873 53.1707L165.702 51.5493C165.242 51.8815 164.344 52.14 162.807 52.14V54.14ZM166.88 53.1651C167.913 52.4039 168.427 51.3157 168.427 50.02H166.427C166.427 50.7243 166.181 51.1961 165.694 51.5549L166.88 53.1651ZM168.427 50.02C168.427 48.6997 167.923 47.5875 166.852 46.8547L165.723 48.5053C166.171 48.8125 166.427 49.2603 166.427 50.02H168.427ZM166.873 46.8693C165.893 46.1615 164.47 45.9 162.807 45.9V47.9C164.344 47.9 165.242 48.1585 165.702 48.4907L166.873 46.8693ZM162.807 45.9H156.207V47.9H162.807V45.9ZM155.207 46.9V69.1H157.207V46.9H155.207ZM201.653 52.6V51.6H200.653V52.6H201.653ZM220.373 52.6H221.373V51.6H220.373V52.6ZM220.373 62.8V63.8H221.373V62.8H220.373ZM201.653 62.8H200.653V63.8H201.653V62.8ZM202.613 68.32H201.613V69.32H202.613V68.32ZM223.613 68.32H224.613V67.32H223.613V68.32ZM223.613 79V80H224.613V79H223.613ZM188.693 79H187.693V80H188.693V79ZM188.693 37V36H187.693V37H188.693ZM222.833 37H223.833V36H222.833V37ZM222.833 47.68V48.68H223.833V47.68H222.833ZM202.613 47.68V46.68H201.613V47.68H202.613ZM201.653 53.6H220.373V51.6H201.653V53.6ZM219.373 52.6V62.8H221.373V52.6H219.373ZM220.373 61.8H201.653V63.8H220.373V61.8ZM202.653 62.8V52.6H200.653V62.8H202.653ZM202.613 69.32H223.613V67.32H202.613V69.32ZM222.613 68.32V79H224.613V68.32H222.613ZM223.613 78H188.693V80H223.613V78ZM189.693 79V37H187.693V79H189.693ZM188.693 38H222.833V36H188.693V38ZM221.833 37V47.68H223.833V37H221.833ZM222.833 46.68H202.613V48.68H222.833V46.68ZM201.613 47.68V68.32H203.613V47.68H201.613ZM224.505 79L223.588 78.5995L222.976 80H224.505V79ZM242.865 37V36H242.21L241.948 36.5995L242.865 37ZM256.785 37L257.701 36.5995L257.439 36H256.785V37ZM275.145 79V80H276.673L276.061 78.5995L275.145 79ZM260.505 79L259.571 79.3588L259.818 80H260.505V79ZM246.945 43.72V42.72H245.489L246.011 44.0788L246.945 43.72ZM252.465 43.72L253.398 44.0788L253.92 42.72H252.465V43.72ZM238.905 79V80H239.591L239.838 79.3588L238.905 79ZM235.425 71.68L234.482 71.3472L234.011 72.68H235.425V71.68ZM239.025 61.48V60.48H238.317L238.082 61.1472L239.025 61.48ZM258.345 61.48L259.288 61.1472L259.052 60.48H258.345V61.48ZM261.945 71.68V72.68H263.358L262.888 71.3472L261.945 71.68ZM225.421 79.4005L243.781 37.4005L241.948 36.5995L223.588 78.5995L225.421 79.4005ZM242.865 38H256.785V36H242.865V38ZM255.868 37.4005L274.228 79.4005L276.061 78.5995L257.701 36.5995L255.868 37.4005ZM275.145 78H260.505V80H275.145V78ZM261.438 78.6412L247.878 43.3612L246.011 44.0788L259.571 79.3588L261.438 78.6412ZM246.945 44.72H252.465V42.72H246.945V44.72ZM251.531 43.3612L237.971 78.6412L239.838 79.3588L253.398 44.0788L251.531 43.3612ZM238.905 78H224.505V80H238.905V78ZM236.368 72.0128L239.968 61.8128L238.082 61.1472L234.482 71.3472L236.368 72.0128ZM239.025 62.48H258.345V60.48H239.025V62.48ZM257.402 61.8128L261.002 72.0128L262.888 71.3472L259.288 61.1472L257.402 61.8128ZM261.945 70.68H235.425V72.68H261.945V70.68ZM284.415 79H283.415V80H284.415V79ZM284.415 47.98H285.415V46.98H284.415V47.98ZM272.115 47.98H271.115V48.98H272.115V47.98ZM272.115 37V36H271.115V37H272.115ZM310.875 37H311.875V36H310.875V37ZM310.875 47.98V48.98H311.875V47.98H310.875ZM298.575 47.98V46.98H297.575V47.98H298.575ZM298.575 79V80H299.575V79H298.575ZM285.415 79V47.98H283.415V79H285.415ZM284.415 46.98H272.115V48.98H284.415V46.98ZM273.115 47.98V37H271.115V47.98H273.115ZM272.115 38H310.875V36H272.115V38ZM309.875 37V47.98H311.875V37H309.875ZM310.875 46.98H298.575V48.98H310.875V46.98ZM297.575 47.98V79H299.575V47.98H297.575ZM298.575 78H284.415V80H298.575V78ZM125.028 138.4L124.673 139.335L124.68 139.338L124.688 139.341L125.028 138.4ZM117.588 133.84L116.902 134.568L116.909 134.574L117.588 133.84ZM112.728 126.88L111.81 127.277L111.81 127.277L112.728 126.88ZM112.728 109.12L111.81 108.723L111.81 108.723L112.728 109.12ZM117.648 102.16L116.969 101.426L116.969 101.426L117.648 102.16ZM125.148 97.66L125.488 98.6006L125.495 98.5979L125.148 97.66ZM145.848 98.14L145.451 99.058L145.455 99.0597L145.848 98.14ZM153.948 104.14L154.609 104.89L155.331 104.254L154.723 103.508L153.948 104.14ZM144.888 112.12L144.133 112.776L144.793 113.536L145.549 112.87L144.888 112.12ZM140.568 108.7L140.102 109.585L140.116 109.592L140.13 109.599L140.568 108.7ZM131.208 108.22L130.857 107.284L130.847 107.287L131.208 108.22ZM128.028 110.32L128.751 111.011L128.751 111.011L128.028 110.32ZM125.988 113.62L126.924 113.971L126.924 113.971L125.988 113.62ZM125.988 122.32L125.048 122.662L125.052 122.671L125.988 122.32ZM128.028 125.62L128.751 124.929L128.751 124.929L128.028 125.62ZM131.148 127.78L130.75 128.698L130.769 128.705L130.787 128.713L131.148 127.78ZM139.968 127.72L140.292 128.666L140.303 128.662L140.314 128.658L139.968 127.72ZM144.828 124.9L145.603 124.268L144.99 123.515L144.219 124.107L144.828 124.9ZM152.748 134.62L153.306 135.45L154.216 134.838L153.523 133.988L152.748 134.62ZM143.988 138.58L144.258 139.543L144.258 139.543L143.988 138.58ZM140.448 132.82H139.448V133.684L140.303 133.809L140.448 132.82ZM140.448 116.86V115.86H139.448V116.86H140.448ZM152.748 116.86H153.748V115.86H152.748V116.86ZM152.748 134.62L152.603 135.609L153.748 135.777V134.62H152.748ZM134.448 138.96C131.151 138.96 128.127 138.456 125.368 137.459L124.688 139.341C127.689 140.424 130.945 140.96 134.448 140.96V138.96ZM125.383 137.465C122.657 136.428 120.288 134.974 118.267 133.106L116.909 134.574C119.128 136.626 121.719 138.212 124.673 139.335L125.383 137.465ZM118.274 133.112C116.295 131.248 114.753 129.041 113.646 126.483L111.81 127.277C113.023 130.079 114.721 132.512 116.902 134.568L118.274 133.112ZM113.646 126.483C112.546 123.941 111.988 121.118 111.988 118H109.988C109.988 121.362 110.59 124.459 111.81 127.277L113.646 126.483ZM111.988 118C111.988 114.882 112.546 112.059 113.646 109.517L111.81 108.723C110.59 111.541 109.988 114.638 109.988 118H111.988ZM113.646 109.517C114.751 106.963 116.31 104.759 118.327 102.894L116.969 101.426C114.746 103.481 113.025 105.917 111.81 108.723L113.646 109.517ZM118.327 102.894C120.343 101.03 122.726 99.5979 125.488 98.6006L124.808 96.7194C121.81 97.8021 119.193 99.3696 116.969 101.426L118.327 102.894ZM125.495 98.5979C128.292 97.5635 131.373 97.04 134.748 97.04V95.04C131.164 95.04 127.844 95.5965 124.801 96.7221L125.495 98.5979ZM134.748 97.04C138.796 97.04 142.357 97.7209 145.451 99.058L146.245 97.222C142.859 95.7591 139.02 95.04 134.748 95.04V97.04ZM145.455 99.0597C148.596 100.4 151.162 102.305 153.173 104.772L154.723 103.508C152.494 100.775 149.66 98.6797 146.241 97.2203L145.455 99.0597ZM153.287 103.39L144.227 111.37L145.549 112.87L154.609 104.89L153.287 103.39ZM145.643 111.464C144.249 109.859 142.705 108.629 141.006 107.801L140.13 109.599C141.551 110.291 142.887 111.341 144.133 112.776L145.643 111.464ZM141.034 107.815C139.357 106.933 137.495 106.5 135.468 106.5V108.5C137.201 108.5 138.739 108.867 140.102 109.585L141.034 107.815ZM135.468 106.5C133.805 106.5 132.264 106.756 130.857 107.284L131.559 109.156C132.712 108.724 134.011 108.5 135.468 108.5V106.5ZM130.847 107.287C129.476 107.818 128.291 108.598 127.305 109.629L128.751 111.011C129.525 110.202 130.46 109.582 131.569 109.153L130.847 107.287ZM127.305 109.629C126.325 110.654 125.576 111.872 125.052 113.269L126.924 113.971C127.36 112.808 127.971 111.826 128.751 111.011L127.305 109.629ZM125.052 113.269C124.522 114.681 124.268 116.263 124.268 118H126.268C126.268 116.457 126.494 115.119 126.924 113.971L125.052 113.269ZM124.268 118C124.268 119.664 124.524 121.221 125.048 122.662L126.928 121.978C126.492 120.779 126.268 119.456 126.268 118H124.268ZM125.052 122.671C125.576 124.068 126.325 125.286 127.305 126.311L128.751 124.929C127.971 124.114 127.36 123.132 126.924 121.969L125.052 122.671ZM127.305 126.311C128.28 127.33 129.432 128.126 130.75 128.698L131.546 126.862C130.465 126.394 129.536 125.75 128.751 124.929L127.305 126.311ZM130.787 128.713C132.157 129.243 133.662 129.5 135.288 129.5V127.5C133.874 127.5 132.619 127.277 131.509 126.847L130.787 128.713ZM135.288 129.5C136.999 129.5 138.668 129.222 140.292 128.666L139.644 126.774C138.228 127.258 136.777 127.5 135.288 127.5V129.5ZM140.314 128.658C141.954 128.054 143.662 127.055 145.437 125.693L144.219 124.107C142.554 125.385 141.022 126.266 139.622 126.782L140.314 128.658ZM144.053 125.532L151.973 135.252L153.523 133.988L145.603 124.268L144.053 125.532ZM152.19 133.79C149.727 135.445 146.906 136.723 143.718 137.617L144.258 139.543C147.63 138.597 150.649 137.235 153.306 135.45L152.19 133.79ZM143.718 137.617C140.517 138.515 137.428 138.96 134.448 138.96V140.96C137.628 140.96 140.899 140.485 144.258 139.543L143.718 137.617ZM141.448 132.82V116.86H139.448V132.82H141.448ZM140.448 117.86H152.748V115.86H140.448V117.86ZM151.748 116.86V134.62H153.748V116.86H151.748ZM152.893 133.631L140.593 131.831L140.303 133.809L152.603 135.609L152.893 133.631ZM154.221 139L153.305 138.599L152.693 140H154.221V139ZM172.581 97V96H171.927L171.665 96.5995L172.581 97ZM186.501 97L187.418 96.5995L187.156 96H186.501V97ZM204.861 139V140H206.39L205.778 138.599L204.861 139ZM190.221 139L189.288 139.359L189.534 140H190.221V139ZM176.661 103.72V102.72H175.206L175.728 104.079L176.661 103.72ZM182.181 103.72L183.115 104.079L183.637 102.72H182.181V103.72ZM168.621 139V140H169.308L169.555 139.359L168.621 139ZM165.141 131.68L164.198 131.347L163.728 132.68H165.141V131.68ZM168.741 121.48V120.48H168.034L167.798 121.147L168.741 121.48ZM188.061 121.48L189.004 121.147L188.769 120.48H188.061V121.48ZM191.661 131.68V132.68H193.075L192.604 131.347L191.661 131.68ZM155.138 139.401L173.498 97.4005L171.665 96.5995L153.305 138.599L155.138 139.401ZM172.581 98H186.501V96H172.581V98ZM185.585 97.4005L203.945 139.401L205.778 138.599L187.418 96.5995L185.585 97.4005ZM204.861 138H190.221V140H204.861V138ZM191.155 138.641L177.595 103.361L175.728 104.079L189.288 139.359L191.155 138.641ZM176.661 104.72H182.181V102.72H176.661V104.72ZM181.248 103.361L167.688 138.641L169.555 139.359L183.115 104.079L181.248 103.361ZM168.621 138H154.221V140H168.621V138ZM166.084 132.013L169.684 121.813L167.798 121.147L164.198 131.347L166.084 132.013ZM168.741 122.48H188.061V120.48H168.741V122.48ZM187.118 121.813L190.718 132.013L192.604 131.347L189.004 121.147L187.118 121.813ZM191.661 130.68H165.141V132.68H191.661V130.68ZM207.121 139H206.121V140H207.121V139ZM207.121 97V96H206.121V97H207.121ZM218.761 97L219.614 96.4776L219.321 96H218.761V97ZM235.561 124.42V125.42H237.347L236.414 123.898L235.561 124.42ZM229.441 124.42L228.582 123.909L227.682 125.42H229.441V124.42ZM245.761 97V96H245.193L244.902 96.4885L245.761 97ZM257.401 97L258.401 96.9971L258.398 96H257.401V97ZM257.521 139V140H258.524L258.521 138.997L257.521 139ZM244.621 139L243.621 139.005L243.626 140H244.621V139ZM244.501 116.44V115.44H243.496L243.501 116.445L244.501 116.44ZM246.541 116.44L247.401 116.951L248.299 115.44H246.541V116.44ZM235.381 135.22V136.22H235.95L236.241 135.731L235.381 135.22ZM229.141 135.22L228.291 135.747L228.584 136.22H229.141V135.22ZM217.501 116.44V115.44H215.705L216.651 116.967L217.501 116.44ZM220.021 116.44H221.021V115.44H220.021V116.44ZM220.021 139V140H221.021V139H220.021ZM208.121 139V97H206.121V139H208.121ZM207.121 98H218.761V96H207.121V98ZM217.908 97.5224L234.708 124.942L236.414 123.898L219.614 96.4776L217.908 97.5224ZM235.561 123.42H229.441V125.42H235.561V123.42ZM230.3 124.931L246.62 97.5114L244.902 96.4885L228.582 123.909L230.3 124.931ZM245.761 98H257.401V96H245.761V98ZM256.401 97.0029L256.521 139.003L258.521 138.997L258.401 96.9971L256.401 97.0029ZM257.521 138H244.621V140H257.521V138ZM245.621 138.995L245.501 116.435L243.501 116.445L243.621 139.005L245.621 138.995ZM244.501 117.44H246.541V115.44H244.501V117.44ZM245.682 115.929L234.522 134.709L236.241 135.731L247.401 116.951L245.682 115.929ZM235.381 134.22H229.141V136.22H235.381V134.22ZM229.991 134.693L218.351 115.913L216.651 116.967L228.291 135.747L229.991 134.693ZM217.501 117.44H220.021V115.44H217.501V117.44ZM219.021 116.44V139H221.021V116.44H219.021ZM220.021 138H207.121V140H220.021V138ZM277.327 112.6V111.6H276.327V112.6H277.327ZM296.047 112.6H297.047V111.6H296.047V112.6ZM296.047 122.8V123.8H297.047V122.8H296.047ZM277.327 122.8H276.327V123.8H277.327V122.8ZM278.287 128.32H277.287V129.32H278.287V128.32ZM299.287 128.32H300.287V127.32H299.287V128.32ZM299.287 139V140H300.287V139H299.287ZM264.367 139H263.367V140H264.367V139ZM264.367 97V96H263.367V97H264.367ZM298.507 97H299.507V96H298.507V97ZM298.507 107.68V108.68H299.507V107.68H298.507ZM278.287 107.68V106.68H277.287V107.68H278.287ZM277.327 113.6H296.047V111.6H277.327V113.6ZM295.047 112.6V122.8H297.047V112.6H295.047ZM296.047 121.8H277.327V123.8H296.047V121.8ZM278.327 122.8V112.6H276.327V122.8H278.327ZM278.287 129.32H299.287V127.32H278.287V129.32ZM298.287 128.32V139H300.287V128.32H298.287ZM299.287 138H264.367V140H299.287V138ZM265.367 139V97H263.367V139H265.367ZM264.367 98H298.507V96H264.367V98ZM297.507 97V107.68H299.507V97H297.507ZM298.507 106.68H278.287V108.68H298.507V106.68ZM277.287 107.68V128.32H279.287V107.68H277.287ZM310.198 138.76L310.435 137.788L310.198 138.76ZM302.098 135.64L301.184 135.236L300.828 136.041L301.581 136.496L302.098 135.64ZM306.658 125.32L307.16 124.455L306.195 123.895L305.744 124.916L306.658 125.32ZM313.318 128.14L313.035 129.099L313.045 129.102L313.054 129.104L313.318 128.14ZM323.698 128.92L323.904 129.899L323.923 129.895L323.941 129.89L323.698 128.92ZM325.438 128.14L326.103 128.887L326.125 128.868L326.145 128.847L325.438 128.14ZM324.718 125.08L324.254 125.966L324.254 125.966L324.718 125.08ZM321.358 124L321.129 124.973L321.146 124.977L321.162 124.981L321.358 124ZM316.858 123.04L316.644 124.017L316.655 124.019L316.667 124.021L316.858 123.04ZM311.878 121.66L311.555 122.606L311.562 122.609L311.878 121.66ZM307.318 119.44L306.758 120.268L306.769 120.276L307.318 119.44ZM304.018 115.84L303.143 116.324L303.149 116.334L304.018 115.84ZM304.918 103.12L304.093 102.555L304.091 102.558L304.918 103.12ZM311.458 97.96L311.057 97.0441L311.052 97.0462L311.458 97.96ZM330.718 96.94L330.506 97.9172L330.506 97.9172L330.718 96.94ZM338.158 99.7L339.082 100.083L339.422 99.2643L338.649 98.8288L338.158 99.7ZM333.898 109.96L333.451 110.854L334.411 111.334L334.822 110.343L333.898 109.96ZM327.838 107.62L327.577 108.585L327.582 108.587L327.838 107.62ZM318.958 107.2L318.671 106.242L318.671 106.242L318.958 107.2ZM317.218 108.16L316.475 107.491L316.456 107.513L316.437 107.535L317.218 108.16ZM317.998 111.22L317.534 112.106L317.551 112.115L317.568 112.123L317.998 111.22ZM321.298 112.24L321.097 113.219L321.102 113.221L321.298 112.24ZM325.858 113.14L325.667 114.121L325.671 114.122L325.858 113.14ZM330.838 114.46L330.515 115.406L330.515 115.406L330.838 114.46ZM335.338 116.68L334.778 117.508L334.789 117.516L335.338 116.68ZM338.698 120.28L337.829 120.774L337.829 120.774L338.698 120.28ZM337.738 132.88L336.913 132.315L336.911 132.318L337.738 132.88ZM331.258 138.04L331.665 138.954L331.675 138.949L331.258 138.04ZM320.398 138.96C316.955 138.96 313.635 138.569 310.435 137.788L309.961 139.732C313.322 140.551 316.802 140.96 320.398 140.96V138.96ZM310.435 137.788C307.221 137.004 304.623 135.996 302.615 134.784L301.581 136.496C303.813 137.844 306.616 138.916 309.961 139.732L310.435 137.788ZM303.013 136.044L307.573 125.724L305.744 124.916L301.184 135.236L303.013 136.044ZM306.157 126.185C308.232 127.389 310.527 128.359 313.035 129.099L313.601 127.181C311.23 126.481 309.085 125.571 307.16 124.455L306.157 126.185ZM313.054 129.104C315.611 129.806 318.1 130.16 320.518 130.16V128.16C318.297 128.16 315.986 127.834 313.583 127.176L313.054 129.104ZM320.518 130.16C321.904 130.16 323.044 130.08 323.904 129.899L323.492 127.941C322.832 128.08 321.852 128.16 320.518 128.16V130.16ZM323.941 129.89C324.8 129.675 325.565 129.366 326.103 128.887L324.774 127.393C324.592 127.554 324.196 127.765 323.456 127.95L323.941 129.89ZM326.145 128.847C326.68 128.312 326.978 127.643 326.978 126.88H324.978C324.978 127.077 324.916 127.248 324.731 127.433L326.145 128.847ZM326.978 126.88C326.978 125.65 326.255 124.756 325.182 124.194L324.254 125.966C324.862 126.284 324.978 126.59 324.978 126.88H326.978ZM325.182 124.194C324.227 123.694 323.006 123.31 321.554 123.019L321.162 124.981C322.511 125.25 323.53 125.586 324.254 125.966L325.182 124.194ZM321.587 123.027C320.213 122.703 318.7 122.381 317.05 122.059L316.667 124.021C318.297 124.339 319.784 124.657 321.129 124.973L321.587 123.027ZM317.073 122.063C315.469 121.711 313.843 121.261 312.195 120.711L311.562 122.609C313.274 123.179 314.968 123.649 316.644 124.017L317.073 122.063ZM312.202 120.714C310.638 120.18 309.195 119.476 307.868 118.604L306.769 120.276C308.242 121.244 309.838 122.02 311.555 122.606L312.202 120.714ZM307.879 118.612C306.651 117.781 305.655 116.698 304.888 115.346L303.149 116.334C304.062 117.942 305.266 119.259 306.758 120.268L307.879 118.612ZM304.894 115.356C304.156 114.021 303.758 112.319 303.758 110.2H301.758C301.758 112.561 302.201 114.619 303.143 116.324L304.894 115.356ZM303.758 110.2C303.758 107.797 304.42 105.634 305.746 103.682L304.091 102.558C302.537 104.846 301.758 107.403 301.758 110.2H303.758ZM305.743 103.685C307.099 101.706 309.119 100.094 311.864 98.8738L311.052 97.0462C308.038 98.386 305.698 100.214 304.093 102.555L305.743 103.685ZM311.86 98.8759C314.617 97.6673 318.09 97.04 322.318 97.04V95.04C317.906 95.04 314.14 95.6927 311.057 97.0441L311.86 98.8759ZM322.318 97.04C325.087 97.04 327.816 97.3324 330.506 97.9172L330.931 95.9628C328.101 95.3476 325.229 95.04 322.318 95.04V97.04ZM330.506 97.9172C333.18 98.4984 335.564 99.3856 337.667 100.571L338.649 98.8288C336.353 97.5344 333.777 96.5816 330.931 95.9628L330.506 97.9172ZM337.235 99.3165L332.975 109.577L334.822 110.343L339.082 100.083L337.235 99.3165ZM334.346 109.066C332.213 107.999 330.129 107.193 328.095 106.653L327.582 108.587C329.467 109.087 331.423 109.841 333.451 110.854L334.346 109.066ZM328.1 106.655C326.101 106.114 324.133 105.84 322.198 105.84V107.84C323.943 107.84 325.735 108.086 327.577 108.585L328.1 106.655ZM322.198 105.84C320.794 105.84 319.604 105.962 318.671 106.242L319.246 108.158C319.913 107.958 320.883 107.84 322.198 107.84V105.84ZM318.671 106.242C317.784 106.508 317.008 106.899 316.475 107.491L317.962 108.829C318.149 108.621 318.532 108.372 319.246 108.158L318.671 106.242ZM316.437 107.535C315.986 108.1 315.738 108.757 315.738 109.48H317.738C317.738 109.243 317.811 109.02 317.999 108.785L316.437 107.535ZM315.738 109.48C315.738 110.692 316.487 111.557 317.534 112.106L318.462 110.334C317.83 110.003 317.738 109.708 317.738 109.48H315.738ZM317.568 112.123C318.507 112.57 319.692 112.93 321.097 113.219L321.5 111.261C320.184 110.99 319.169 110.67 318.428 110.317L317.568 112.123ZM321.102 113.221C322.504 113.501 324.026 113.801 325.667 114.121L326.05 112.159C324.411 111.839 322.893 111.539 321.494 111.259L321.102 113.221ZM325.671 114.122C327.305 114.433 328.919 114.861 330.515 115.406L331.162 113.514C329.478 112.939 327.772 112.487 326.045 112.158L325.671 114.122ZM330.515 115.406C332.076 115.939 333.495 116.641 334.778 117.508L335.899 115.852C334.461 114.879 332.881 114.101 331.162 113.514L330.515 115.406ZM334.789 117.516C336.055 118.347 337.066 119.429 337.829 120.774L339.568 119.786C338.651 118.171 337.422 116.853 335.888 115.844L334.789 117.516ZM337.829 120.774C338.562 122.065 338.958 123.724 338.958 125.8H340.958C340.958 123.476 340.515 121.455 339.568 119.786L337.829 120.774ZM338.958 125.8C338.958 128.153 338.282 130.317 336.913 132.315L338.563 133.445C340.155 131.123 340.958 128.567 340.958 125.8H338.958ZM336.911 132.318C335.595 134.255 333.595 135.869 330.842 137.131L331.675 138.949C334.682 137.571 337.001 135.745 338.566 133.442L336.911 132.318ZM330.852 137.126C328.139 138.332 324.669 138.96 320.398 138.96V140.96C324.848 140.96 328.618 140.308 331.664 138.954L330.852 137.126Z" fill="#82C8E3" mask="url(#path-3-outside-1_1_3977)"/>
<path d="M137.287 76V34H159.727C165.527 34 169.807 35.04 172.567 37.12C175.327 39.16 176.707 41.78 176.707 44.98C176.707 47.1 176.107 49 174.907 50.68C173.747 52.32 172.047 53.62 169.807 54.58C167.567 55.54 164.807 56.02 161.527 56.02L162.727 52.78C166.007 52.78 168.827 53.24 171.187 54.16C173.587 55.08 175.427 56.42 176.707 58.18C178.027 59.9 178.687 61.98 178.687 64.42C178.687 68.06 177.167 70.9 174.127 72.94C171.127 74.98 166.727 76 160.927 76H137.287ZM151.207 66.1H159.727C161.287 66.1 162.447 65.82 163.207 65.26C164.007 64.7 164.407 63.88 164.407 62.8C164.407 61.72 164.007 60.9 163.207 60.34C162.447 59.78 161.287 59.5 159.727 59.5H150.247V50.14H157.807C159.407 50.14 160.567 49.88 161.287 49.36C162.047 48.8 162.427 48.02 162.427 47.02C162.427 45.98 162.047 45.2 161.287 44.68C160.567 44.16 159.407 43.9 157.807 43.9H151.207V66.1ZM196.653 49.6H215.373V59.8H196.653V49.6ZM197.613 65.32H218.613V76H183.693V34H217.833V44.68H197.613V65.32ZM219.505 76L237.865 34H251.785L270.145 76H255.505L241.945 40.72H247.465L233.905 76H219.505ZM230.425 68.68L234.025 58.48H253.345L256.945 68.68H230.425ZM279.415 76V44.98H267.115V34H305.875V44.98H293.575V76H279.415ZM129.448 136.96C126.048 136.96 122.908 136.44 120.028 135.4C117.188 134.32 114.708 132.8 112.588 130.84C110.508 128.88 108.888 126.56 107.728 123.88C106.568 121.2 105.988 118.24 105.988 115C105.988 111.76 106.568 108.8 107.728 106.12C108.888 103.44 110.528 101.12 112.648 99.16C114.768 97.2 117.268 95.7 120.148 94.66C123.068 93.58 126.268 93.04 129.748 93.04C133.908 93.04 137.608 93.74 140.848 95.14C144.128 96.54 146.828 98.54 148.948 101.14L139.888 109.12C138.568 107.6 137.128 106.46 135.568 105.7C134.048 104.9 132.348 104.5 130.468 104.5C128.908 104.5 127.488 104.74 126.208 105.22C124.968 105.7 123.908 106.4 123.028 107.32C122.148 108.24 121.468 109.34 120.988 110.62C120.508 111.9 120.268 113.36 120.268 115C120.268 116.56 120.508 118 120.988 119.32C121.468 120.6 122.148 121.7 123.028 122.62C123.908 123.54 124.948 124.26 126.148 124.78C127.388 125.26 128.768 125.5 130.288 125.5C131.888 125.5 133.448 125.24 134.968 124.72C136.488 124.16 138.108 123.22 139.828 121.9L147.748 131.62C145.188 133.34 142.268 134.66 138.988 135.58C135.708 136.5 132.528 136.96 129.448 136.96ZM135.448 129.82V113.86H147.748V131.62L135.448 129.82ZM149.221 136L167.581 94H181.501L199.861 136H185.221L171.661 100.72H177.181L163.621 136H149.221ZM160.141 128.68L163.741 118.48H183.061L186.661 128.68H160.141ZM202.121 136V94H213.761L230.561 121.42H224.441L240.761 94H252.401L252.521 136H239.621L239.501 113.44H241.541L230.381 132.22H224.141L212.501 113.44H215.021V136H202.121ZM272.327 109.6H291.047V119.8H272.327V109.6ZM273.287 125.32H294.287V136H259.367V94H293.507V104.68H273.287V125.32ZM315.398 136.96C311.878 136.96 308.478 136.56 305.198 135.76C301.918 134.96 299.218 133.92 297.098 132.64L301.658 122.32C303.658 123.48 305.878 124.42 308.318 125.14C310.798 125.82 313.198 126.16 315.518 126.16C316.878 126.16 317.938 126.08 318.698 125.92C319.498 125.72 320.078 125.46 320.438 125.14C320.798 124.78 320.978 124.36 320.978 123.88C320.978 123.12 320.558 122.52 319.718 122.08C318.878 121.64 317.758 121.28 316.358 121C314.998 120.68 313.498 120.36 311.858 120.04C310.218 119.68 308.558 119.22 306.878 118.66C305.238 118.1 303.718 117.36 302.318 116.44C300.958 115.52 299.858 114.32 299.018 112.84C298.178 111.32 297.758 109.44 297.758 107.2C297.758 104.6 298.478 102.24 299.918 100.12C301.398 97.96 303.578 96.24 306.458 94.96C309.378 93.68 312.998 93.04 317.318 93.04C320.158 93.04 322.958 93.34 325.718 93.94C328.478 94.54 330.958 95.46 333.158 96.7L328.898 106.96C326.818 105.92 324.798 105.14 322.838 104.62C320.918 104.1 319.038 103.84 317.198 103.84C315.838 103.84 314.758 103.96 313.958 104.2C313.158 104.44 312.578 104.76 312.218 105.16C311.898 105.56 311.738 106 311.738 106.48C311.738 107.2 312.158 107.78 312.998 108.22C313.838 108.62 314.938 108.96 316.298 109.24C317.698 109.52 319.218 109.82 320.858 110.14C322.538 110.46 324.198 110.9 325.838 111.46C327.478 112.02 328.978 112.76 330.338 113.68C331.738 114.6 332.858 115.8 333.698 117.28C334.538 118.76 334.958 120.6 334.958 122.8C334.958 125.36 334.218 127.72 332.738 129.88C331.298 132 329.138 133.72 326.258 135.04C323.378 136.32 319.758 136.96 315.398 136.96Z" fill="#FADE0A"/>
<path d="M73.6013 59.7576L73.6209 60.2163L74.0796 60.2359L90.0991 60.9186L74.0796 61.6013L73.6209 61.6209L73.6013 62.0796L72.9186 78.0991L72.2359 62.0796L72.2163 61.6209L71.7576 61.6013L55.7406 60.9186L71.7576 60.2359L72.2163 60.2163L72.2359 59.7576L72.9186 43.7406L73.6013 59.7576Z" stroke="#82C8E3"/>
<path d="M76.7639 62.9206L76.7834 63.3793L77.2421 63.3989L93.2591 64.0816L77.2421 64.7643L76.7834 64.7839L76.7639 65.2426L76.0811 81.2596L75.3984 65.2426L75.3788 64.7839L74.9201 64.7643L58.9006 64.0816L74.9201 63.3989L75.3788 63.3793L75.3984 62.9206L76.0811 46.9011L76.7639 62.9206Z" stroke="#82C8E3"/>
<path d="M384.601 134.758L384.621 135.216L385.08 135.236L401.099 135.919L385.08 136.601L384.621 136.621L384.601 137.08L383.919 153.099L383.236 137.08L383.216 136.621L382.758 136.601L366.741 135.919L382.758 135.236L383.216 135.216L383.236 134.758L383.919 118.741L384.601 134.758Z" stroke="#82C8E3"/>
<path d="M387.764 137.921L387.783 138.379L388.242 138.399L404.259 139.082L388.242 139.764L387.783 139.784L387.764 140.243L387.081 156.26L386.398 140.243L386.379 139.784L385.92 139.764L369.901 139.082L385.92 138.399L386.379 138.379L386.398 137.921L387.081 121.901L387.764 137.921Z" stroke="#82C8E3"/>
<path fill-rule="evenodd" clip-rule="evenodd" d="M36 101C37.6832 122.882 35.2608 121.48 55 111.999C36.944 124.4 36.944 121.6 55 134.001C35.2608 124.52 37.6782 123.118 36 145C34.3168 123.118 36.7392 124.52 17 134.001C35.056 121.6 35.056 124.4 17 111.999C36.7392 121.48 34.3218 122.882 36 101ZM29.5868 126.719C31.0452 126.233 32.6485 125.963 33.8872 126.679C35.1259 127.395 35.6953 128.923 36.005 130.43C36.3147 128.923 36.8841 127.395 38.1228 126.679C39.3615 125.963 40.9648 126.228 42.4232 126.719C41.2744 125.697 40.2405 124.44 40.2405 123.003C40.2405 121.565 41.2744 120.308 42.4232 119.286C40.9648 119.772 39.3665 120.042 38.1228 119.326C36.8841 118.61 36.3147 117.082 36.005 115.575C35.7003 117.082 35.1259 118.61 33.8872 119.326C32.6485 120.042 31.0452 119.777 29.5868 119.286C30.7355 120.308 31.7695 121.565 31.7695 123.003C31.7695 124.44 30.7355 125.697 29.5868 126.719Z" fill="#FADE0A"/>
<path fill-rule="evenodd" clip-rule="evenodd" d="M126 120C126.975 132.93 125.572 132.102 137 126.499C126.547 133.827 126.547 132.173 137 139.501C125.572 133.898 126.972 133.07 126 146C125.025 133.07 126.428 133.898 115 139.501C125.453 132.173 125.453 133.827 115 126.499C126.428 132.102 125.028 132.93 126 120ZM122.287 135.197C123.131 134.91 124.06 134.751 124.777 135.174C125.494 135.597 125.824 136.5 126.003 137.391C126.182 136.5 126.512 135.597 127.229 135.174C127.946 134.751 128.874 134.907 129.719 135.197C129.054 134.594 128.455 133.851 128.455 133.001C128.455 132.152 129.054 131.409 129.719 130.805C128.874 131.093 127.949 131.252 127.229 130.829C126.512 130.406 126.182 129.503 126.003 128.612C125.826 129.503 125.494 130.406 124.777 130.829C124.06 131.252 123.131 131.096 122.287 130.805C122.952 131.409 123.551 132.152 123.551 133.001C123.551 133.851 122.952 134.594 122.287 135.197Z" fill="#82C8E3"/>
<path fill-rule="evenodd" clip-rule="evenodd" d="M379.124 18.458C388.529 38.2875 385.765 37.8453 400.802 21.9261C388.382 39.9692 387.38 37.3549 408.679 42.4704C386.854 40.684 388.609 38.5091 394.876 59.542C385.47 39.7125 388.234 40.1547 373.197 56.0739C385.617 38.0308 386.62 40.645 365.321 35.5296C387.146 37.316 385.391 39.4909 379.124 18.458ZM382.343 44.7682C383.531 43.7925 384.931 42.966 386.344 43.1913C387.757 43.4166 388.836 44.6392 389.664 45.9359C389.414 44.4174 389.399 42.7872 390.299 41.675C391.199 40.5628 392.791 40.2367 394.329 40.1729C392.89 39.6302 391.475 38.8265 390.96 37.4843C390.446 36.1421 390.961 34.5981 391.668 33.2329C390.48 34.2086 389.084 35.0333 387.667 34.8098C386.254 34.5845 385.175 33.3619 384.346 32.0651C384.602 33.5819 384.612 35.2139 383.712 36.3261C382.812 37.4382 381.22 37.7643 379.682 37.8282C381.121 38.3709 382.536 39.1746 383.051 40.5168C383.565 41.859 383.05 43.403 382.343 44.7682Z" fill="#FADE0A"/>
<path fill-rule="evenodd" clip-rule="evenodd" d="M40 164.5C51.3169 164.018 56.9784 164.236 59.8875 162.251C58.6956 160.03 55.8418 157.244 51.3261 152.326C56.2442 156.842 59.0304 159.696 61.2514 160.887C63.2358 157.975 63.0177 152.317 63.5 141C63.9823 152.317 63.7642 157.978 65.7486 160.887C67.9696 159.696 70.7558 156.842 75.6739 152.326C71.1582 157.244 68.3044 160.03 67.1126 162.251C70.0247 164.236 75.6831 164.018 87 164.5C75.6831 164.982 70.0216 164.764 67.1126 166.749C68.3044 168.97 71.1582 171.756 75.6739 176.674C70.7558 172.158 67.9696 169.304 65.7486 168.113C63.7642 171.025 63.9823 176.683 63.5 188C63.0177 176.683 63.2358 171.022 61.2514 168.113C59.0304 169.304 56.2442 172.158 51.3261 176.674C55.8418 171.756 58.6956 168.97 59.8875 166.749C56.9753 164.764 51.3169 164.982 40 164.5Z" fill="#FADE0A"/>
<path fill-rule="evenodd" clip-rule="evenodd" d="M16.8086 46.6714C23.5092 42.2663 27.0282 40.3416 28.0746 38.0788C26.5434 37.1625 23.7971 36.5067 19.2664 35.1594C23.8954 36.1159 26.6252 36.8374 28.4077 36.7545C28.5552 34.2641 26.3666 30.9055 22.5474 23.8544C26.9526 30.555 28.8773 34.074 31.1401 35.1204C32.0564 33.5892 32.7122 30.8429 34.0594 26.3122C33.1029 30.9412 32.3815 33.671 32.4643 35.4535C34.9548 35.601 38.3134 33.4124 45.3644 29.5932C38.6639 33.9984 35.1449 35.9231 34.0985 38.1858C35.6297 39.1022 38.376 39.758 42.9066 41.1052C38.2777 40.1487 35.5479 39.4273 33.7654 39.5101C33.6179 42.0005 35.8065 45.3592 39.6257 52.4102C35.2205 45.7097 33.2958 42.1907 31.033 41.1443C30.1167 42.6755 29.4609 45.4218 28.1136 49.9524C29.0701 45.3235 29.7916 42.5937 29.7087 40.8112C27.2183 40.6637 23.8597 42.8523 16.8086 46.6714Z" fill="#82C8E3"/>
<path fill-rule="evenodd" clip-rule="evenodd" d="M346.878 169.584C351.49 166.552 353.912 165.227 354.633 163.669C353.579 163.039 351.688 162.587 348.57 161.66C351.756 162.318 353.635 162.815 354.862 162.758C354.964 161.043 353.457 158.732 350.828 153.878C353.86 158.49 355.185 160.913 356.743 161.633C357.374 160.579 357.825 158.688 358.752 155.57C358.094 158.756 357.597 160.635 357.654 161.862C359.369 161.964 361.681 160.457 366.534 157.828C361.922 160.861 359.5 162.185 358.779 163.743C359.833 164.374 361.724 164.825 364.842 165.753C361.656 165.094 359.777 164.597 358.55 164.655C358.448 166.369 359.955 168.681 362.584 173.534C359.552 168.922 358.227 166.5 356.669 165.779C356.038 166.833 355.587 168.724 354.66 171.842C355.318 168.656 355.815 166.777 355.758 165.55C354.043 165.449 351.731 166.955 346.878 169.584Z" fill="#FADE0A"/>
<path fill-rule="evenodd" clip-rule="evenodd" d="M396.181 70.8172C404.192 70.4758 408.2 70.6302 410.26 69.2253C409.416 67.653 407.396 65.6805 404.199 62.1988C407.681 65.3957 409.653 67.416 411.225 68.2597C412.63 66.1981 412.476 62.1923 412.817 54.1807C413.159 62.1923 413.004 66.2003 414.409 68.2597C415.981 67.416 417.954 65.3957 421.436 62.1988C418.239 65.6805 416.218 67.653 415.375 69.2253C417.436 70.6302 421.442 70.4758 429.454 70.8172C421.442 71.1586 417.434 71.0042 415.375 72.4091C416.218 73.9814 418.239 75.9539 421.436 79.4356C417.954 76.2388 415.981 74.2185 414.409 73.3747C413.004 75.4363 413.159 79.4421 412.817 87.4538C412.476 79.4421 412.63 75.4341 411.225 73.3747C409.653 74.2185 407.681 76.2388 404.199 79.4356C407.396 75.9539 409.416 73.9814 410.26 72.4091C408.198 71.0042 404.192 71.1586 396.181 70.8172Z" fill="#82C8E3"/>
<path fill-rule="evenodd" clip-rule="evenodd" d="M316.181 150.817C324.192 150.476 328.2 150.63 330.26 149.225C329.416 147.653 327.396 145.681 324.199 142.199C327.681 145.396 329.653 147.416 331.225 148.26C332.63 146.198 332.476 142.192 332.817 134.181C333.159 142.192 333.004 146.2 334.409 148.26C335.981 147.416 337.954 145.396 341.436 142.199C338.239 145.681 336.218 147.653 335.375 149.225C337.436 150.63 341.442 150.476 349.454 150.817C341.442 151.159 337.434 151.004 335.375 152.409C336.218 153.981 338.239 155.954 341.436 159.436C337.954 156.239 335.981 154.218 334.409 153.375C333.004 155.436 333.159 159.442 332.817 167.454C332.476 159.442 332.63 155.434 331.225 153.375C329.653 154.218 327.681 156.239 324.199 159.436C327.396 155.954 329.416 153.981 330.26 152.409C328.198 151.004 324.192 151.159 316.181 150.817Z" fill="#82C8E3"/>
<defs>
<linearGradient id="paint0_linear_1_3977" x1="263" y1="-20.5319" x2="263" y2="205" gradientUnits="userSpaceOnUse">
<stop stop-color="#1A2E5C"/>
<stop offset="1" stop-color="#0F1321"/>
</linearGradient>
</defs>
</svg>
