<svg width="440" height="205" viewBox="0 0 440 205" fill="none" xmlns="http://www.w3.org/2000/svg">
<rect width="440" height="204" rx="50" fill="#75A425"/>
<rect y="5" width="440" height="200" rx="50" fill="url(#paint0_linear_1_3916)"/>
<mask id="path-3-outside-1_1_3916" maskUnits="userSpaceOnUse" x="120" y="35" width="216" height="105" fill="black">
<rect fill="white" x="120" y="35" width="216" height="105"/>
<path d="M121.604 79V37H135.764V68.02H154.724V79H121.604ZM178.442 79.96C172.002 79.96 166.982 78.22 163.382 74.74C159.782 71.26 157.982 66.38 157.982 60.1V37H172.142V59.68C172.142 62.88 172.722 65.16 173.882 66.52C175.042 67.84 176.602 68.5 178.562 68.5C180.562 68.5 182.122 67.84 183.242 66.52C184.402 65.16 184.982 62.88 184.982 59.68V37H198.902V60.1C198.902 66.38 197.102 71.26 193.502 74.74C189.902 78.22 184.882 79.96 178.442 79.96ZM227.113 79.96C223.753 79.96 220.633 79.44 217.753 78.4C214.913 77.32 212.433 75.8 210.313 73.84C208.233 71.88 206.613 69.56 205.453 66.88C204.293 64.2 203.713 61.24 203.713 58C203.713 54.76 204.293 51.8 205.453 49.12C206.613 46.44 208.233 44.12 210.313 42.16C212.433 40.2 214.913 38.7 217.753 37.66C220.633 36.58 223.753 36.04 227.113 36.04C231.233 36.04 234.873 36.76 238.033 38.2C241.233 39.64 243.873 41.72 245.953 44.44L237.013 52.42C235.773 50.86 234.393 49.66 232.873 48.82C231.393 47.94 229.713 47.5 227.833 47.5C226.353 47.5 225.013 47.74 223.813 48.22C222.613 48.7 221.573 49.4 220.693 50.32C219.853 51.24 219.193 52.36 218.713 53.68C218.233 54.96 217.993 56.4 217.993 58C217.993 59.6 218.233 61.06 218.713 62.38C219.193 63.66 219.853 64.76 220.693 65.68C221.573 66.6 222.613 67.3 223.813 67.78C225.013 68.26 226.353 68.5 227.833 68.5C229.713 68.5 231.393 68.08 232.873 67.24C234.393 66.36 235.773 65.14 237.013 63.58L245.953 71.56C243.873 74.24 241.233 76.32 238.033 77.8C234.873 79.24 231.233 79.96 227.113 79.96ZM262.701 70L261.921 54.46L277.761 37H293.181L275.421 56.56L267.561 64.6L262.701 70ZM250.041 79V37H263.961V79H250.041ZM277.641 79L265.281 62.68L274.461 52.96L294.021 79H277.641ZM303.439 79V60.58L306.679 69.04L287.599 37H302.539L315.439 58.9H306.739L319.759 37H333.439L314.479 69.04L317.599 60.58V79H303.439ZM159.807 139V97H180.507C185.187 97 189.307 97.86 192.867 99.58C196.427 101.26 199.207 103.66 201.207 106.78C203.207 109.9 204.207 113.62 204.207 117.94C204.207 122.3 203.207 126.06 201.207 129.22C199.207 132.34 196.427 134.76 192.867 136.48C189.307 138.16 185.187 139 180.507 139H159.807ZM173.967 127.96H179.907C181.907 127.96 183.647 127.58 185.127 126.82C186.647 126.06 187.827 124.94 188.667 123.46C189.507 121.94 189.927 120.1 189.927 117.94C189.927 115.82 189.507 114.02 188.667 112.54C187.827 111.06 186.647 109.94 185.127 109.18C183.647 108.42 181.907 108.04 179.907 108.04H173.967V127.96ZM204.231 139L222.591 97H236.511L254.871 139H240.231L226.671 103.72H232.191L218.631 139H204.231ZM215.151 131.68L218.751 121.48H238.071L241.671 131.68H215.151ZM265.236 139V120.58L268.476 129.04L249.396 97H264.336L277.236 118.9H268.536L281.556 97H295.236L276.276 129.04L279.396 120.58V139H265.236Z"/>
</mask>
<path d="M121.604 79H120.604V80H121.604V79ZM121.604 37V36H120.604V37H121.604ZM135.764 37H136.764V36H135.764V37ZM135.764 68.02H134.764V69.02H135.764V68.02ZM154.724 68.02H155.724V67.02H154.724V68.02ZM154.724 79V80H155.724V79H154.724ZM122.604 79V37H120.604V79H122.604ZM121.604 38H135.764V36H121.604V38ZM134.764 37V68.02H136.764V37H134.764ZM135.764 69.02H154.724V67.02H135.764V69.02ZM153.724 68.02V79H155.724V68.02H153.724ZM154.724 78H121.604V80H154.724V78ZM163.382 74.74L162.687 75.459L162.687 75.459L163.382 74.74ZM157.982 37V36H156.982V37H157.982ZM172.142 37H173.142V36H172.142V37ZM173.882 66.52L173.121 67.1689L173.126 67.1746L173.131 67.1801L173.882 66.52ZM183.242 66.52L182.481 65.8711L182.479 65.873L183.242 66.52ZM184.982 37V36H183.982V37H184.982ZM198.902 37H199.902V36H198.902V37ZM193.502 74.74L192.807 74.021L192.807 74.021L193.502 74.74ZM178.442 78.96C172.184 78.96 167.441 77.2734 164.077 74.021L162.687 75.459C166.522 79.1666 171.82 80.96 178.442 80.96V78.96ZM164.077 74.021C160.719 70.7748 158.982 66.182 158.982 60.1H156.982C156.982 66.578 158.845 71.7452 162.687 75.459L164.077 74.021ZM158.982 60.1V37H156.982V60.1H158.982ZM157.982 38H172.142V36H157.982V38ZM171.142 37V59.68H173.142V37H171.142ZM171.142 59.68C171.142 62.9495 171.724 65.5316 173.121 67.1689L174.643 65.8711C173.719 64.7884 173.142 62.8105 173.142 59.68H171.142ZM173.131 67.1801C174.504 68.7425 176.351 69.5 178.562 69.5V67.5C176.852 67.5 175.58 66.9375 174.633 65.8599L173.131 67.1801ZM178.562 69.5C180.805 69.5 182.664 68.7469 184.004 67.167L182.479 65.873C181.58 66.9331 180.319 67.5 178.562 67.5V69.5ZM184.003 67.1689C185.399 65.5316 185.982 62.9495 185.982 59.68H183.982C183.982 62.8105 183.404 64.7884 182.481 65.8711L184.003 67.1689ZM185.982 59.68V37H183.982V59.68H185.982ZM184.982 38H198.902V36H184.982V38ZM197.902 37V60.1H199.902V37H197.902ZM197.902 60.1C197.902 66.182 196.165 70.7748 192.807 74.021L194.197 75.459C198.039 71.7452 199.902 66.578 199.902 60.1H197.902ZM192.807 74.021C189.442 77.2734 184.7 78.96 178.442 78.96V80.96C185.064 80.96 190.361 79.1666 194.197 75.459L192.807 74.021ZM217.753 78.4L217.397 79.3347L217.405 79.3377L217.413 79.3406L217.753 78.4ZM210.313 73.84L209.627 74.5678L209.634 74.5743L210.313 73.84ZM205.453 66.88L204.535 67.2772L204.535 67.2772L205.453 66.88ZM205.453 49.12L204.535 48.7228L204.535 48.7228L205.453 49.12ZM210.313 42.16L209.634 41.4257L209.627 41.4322L210.313 42.16ZM217.753 37.66L218.097 38.599L218.104 38.5963L217.753 37.66ZM238.033 38.2L237.618 39.11L237.622 39.1119L238.033 38.2ZM245.953 44.44L246.619 45.186L247.31 44.5688L246.747 43.8325L245.953 44.44ZM237.013 52.42L236.23 53.0422L236.889 53.8711L237.679 53.166L237.013 52.42ZM232.873 48.82L232.362 49.6795L232.375 49.6876L232.389 49.6952L232.873 48.82ZM223.813 48.22L224.184 49.1485L224.184 49.1485L223.813 48.22ZM220.693 50.32L219.97 49.6288L219.962 49.6372L219.954 49.6457L220.693 50.32ZM218.713 53.68L219.649 54.0311L219.652 54.0217L218.713 53.68ZM218.713 62.38L217.773 62.7218L217.776 62.7311L218.713 62.38ZM220.693 65.68L219.954 66.3543L219.962 66.3628L219.97 66.3712L220.693 65.68ZM223.813 67.78L223.441 68.7085L223.441 68.7085L223.813 67.78ZM232.873 67.24L233.366 68.1097L233.374 68.1054L232.873 67.24ZM237.013 63.58L237.679 62.834L236.889 62.1289L236.23 62.9578L237.013 63.58ZM245.953 71.56L246.743 72.1731L247.315 71.4356L246.619 70.814L245.953 71.56ZM238.033 77.8L238.447 78.71L238.452 78.7076L238.033 77.8ZM227.113 78.96C223.857 78.96 220.853 78.4565 218.092 77.4594L217.413 79.3406C220.412 80.4235 223.648 80.96 227.113 80.96V78.96ZM218.108 77.4653C215.381 76.4284 213.013 74.9743 210.992 73.1057L209.634 74.5743C211.853 76.6257 214.444 78.2116 217.397 79.3347L218.108 77.4653ZM210.998 73.1122C209.02 71.2475 207.478 69.0408 206.37 66.4828L204.535 67.2772C205.748 70.0792 207.446 72.5125 209.627 74.5678L210.998 73.1122ZM206.37 66.4828C205.27 63.9413 204.713 61.1184 204.713 58H202.713C202.713 61.3616 203.315 64.4587 204.535 67.2772L206.37 66.4828ZM204.713 58C204.713 54.8816 205.27 52.0587 206.37 49.5172L204.535 48.7228C203.315 51.5413 202.713 54.6384 202.713 58H204.713ZM206.37 49.5172C207.478 46.9592 209.02 44.7525 210.998 42.8878L209.627 41.4322C207.446 43.4875 205.748 45.9208 204.535 48.7228L206.37 49.5172ZM210.992 42.8943C213.01 41.0282 215.375 39.5958 218.097 38.599L217.409 36.721C214.451 37.8042 211.855 39.3718 209.634 41.4257L210.992 42.8943ZM218.104 38.5963C220.862 37.5622 223.861 37.04 227.113 37.04V35.04C223.644 35.04 220.404 35.5978 217.402 36.7237L218.104 38.5963ZM227.113 37.04C231.116 37.04 234.61 37.7393 237.618 39.11L238.447 37.29C235.135 35.7807 231.349 35.04 227.113 35.04V37.04ZM237.622 39.1119C240.675 40.4856 243.182 42.4626 245.158 45.0474L246.747 43.8325C244.564 40.9774 241.79 38.7944 238.443 37.2881L237.622 39.1119ZM245.287 43.694L236.347 51.674L237.679 53.166L246.619 45.186L245.287 43.694ZM237.795 51.7978C236.485 50.1496 235.008 48.8573 233.356 47.9448L232.389 49.6952C233.778 50.4627 235.06 51.5704 236.23 53.0422L237.795 51.7978ZM233.384 47.9605C231.735 46.9802 229.875 46.5 227.833 46.5V48.5C229.55 48.5 231.05 48.8998 232.362 49.6795L233.384 47.9605ZM227.833 46.5C226.244 46.5 224.775 46.7579 223.441 47.2915L224.184 49.1485C225.25 48.7221 226.462 48.5 227.833 48.5V46.5ZM223.441 47.2915C222.111 47.8238 220.95 48.6039 219.97 49.6288L221.415 51.0112C222.195 50.1961 223.115 49.5762 224.184 49.1485L223.441 47.2915ZM219.954 49.6457C219.015 50.6739 218.292 51.9109 217.773 53.3383L219.652 54.0217C220.093 52.8091 220.69 51.8061 221.431 50.9943L219.954 49.6457ZM217.776 53.3289C217.248 54.7385 216.993 56.3001 216.993 58H218.993C218.993 56.4999 219.218 55.1815 219.649 54.0311L217.776 53.3289ZM216.993 58C216.993 59.7005 217.248 61.2781 217.773 62.7217L219.652 62.0383C219.217 60.8419 218.993 59.4995 218.993 58H216.993ZM217.776 62.7311C218.297 64.1188 219.02 65.3314 219.954 66.3543L221.431 65.0057C220.685 64.1886 220.089 63.2012 219.649 62.0289L217.776 62.7311ZM219.97 66.3712C220.95 67.3961 222.111 68.1762 223.441 68.7085L224.184 66.8515C223.115 66.4238 222.195 65.8039 221.415 64.9888L219.97 66.3712ZM223.441 68.7085C224.775 69.2421 226.244 69.5 227.833 69.5V67.5C226.462 67.5 225.25 67.2779 224.184 66.8515L223.441 68.7085ZM227.833 69.5C229.867 69.5 231.72 69.0438 233.366 68.1097L232.379 66.3703C231.065 67.1162 229.558 67.5 227.833 67.5V69.5ZM233.374 68.1054C235.016 67.1548 236.488 65.8471 237.795 64.2022L236.23 62.9578C235.057 64.4329 233.77 65.5651 232.372 66.3746L233.374 68.1054ZM236.347 64.326L245.287 72.306L246.619 70.814L237.679 62.834L236.347 64.326ZM245.163 70.9469C243.185 73.4955 240.674 75.4768 237.613 76.8924L238.452 78.7076C241.792 77.1632 244.561 74.9845 246.743 72.1731L245.163 70.9469ZM237.618 76.89C234.61 78.2607 231.116 78.96 227.113 78.96V80.96C231.349 80.96 235.135 80.2193 238.447 78.71L237.618 76.89ZM262.701 70L261.702 70.0501L261.824 72.4696L263.444 70.669L262.701 70ZM261.921 54.46L261.18 53.7881L260.902 54.0955L260.922 54.5101L261.921 54.46ZM277.761 37V36H277.318L277.02 36.3281L277.761 37ZM293.181 37L293.921 37.6722L295.44 36H293.181V37ZM275.421 56.56L276.136 57.2591L276.149 57.2459L276.161 57.2322L275.421 56.56ZM267.561 64.6L266.846 63.9009L266.832 63.9157L266.818 63.931L267.561 64.6ZM250.041 79H249.041V80H250.041V79ZM250.041 37V36H249.041V37H250.041ZM263.961 37H264.961V36H263.961V37ZM263.961 79V80H264.961V79H263.961ZM277.641 79L276.844 79.6037L277.144 80H277.641V79ZM265.281 62.68L264.554 61.9934L263.973 62.6089L264.484 63.2837L265.281 62.68ZM274.461 52.96L275.261 52.3594L274.548 51.4112L273.734 52.2734L274.461 52.96ZM294.021 79V80H296.023L294.821 78.3994L294.021 79ZM263.7 69.9499L262.92 54.4099L260.922 54.5101L261.702 70.0501L263.7 69.9499ZM262.662 55.1319L278.502 37.6719L277.02 36.3281L261.18 53.7881L262.662 55.1319ZM277.761 38H293.181V36H277.761V38ZM292.441 36.3278L274.681 55.8878L276.161 57.2322L293.921 37.6722L292.441 36.3278ZM274.706 55.8609L266.846 63.9009L268.276 65.2991L276.136 57.2591L274.706 55.8609ZM266.818 63.931L261.958 69.331L263.444 70.669L268.304 65.269L266.818 63.931ZM251.041 79V37H249.041V79H251.041ZM250.041 38H263.961V36H250.041V38ZM262.961 37V79H264.961V37H262.961ZM263.961 78H250.041V80H263.961V78ZM278.438 78.3963L266.078 62.0763L264.484 63.2837L276.844 79.6037L278.438 78.3963ZM266.008 63.3666L275.188 53.6466L273.734 52.2734L264.554 61.9934L266.008 63.3666ZM273.662 53.5606L293.222 79.6006L294.821 78.3994L275.261 52.3594L273.662 53.5606ZM294.021 78H277.641V80H294.021V78ZM303.439 79H302.439V80H303.439V79ZM303.439 60.58L304.373 60.2224L302.439 60.58H303.439ZM306.679 69.04L305.82 69.5517L307.613 68.6824L306.679 69.04ZM287.599 37V36H285.839L286.74 37.5117L287.599 37ZM302.539 37L303.4 36.4925L303.11 36H302.539V37ZM315.439 58.9V59.9H317.188L316.3 58.3925L315.439 58.9ZM306.739 58.9L305.879 58.389L304.981 59.9H306.739V58.9ZM319.759 37V36H319.19L318.899 36.489L319.759 37ZM333.439 37L334.299 37.5093L335.192 36H333.439V37ZM314.479 69.04L313.541 68.694L315.339 69.5493L314.479 69.04ZM317.599 60.58H318.599L316.661 60.234L317.599 60.58ZM317.599 79V80H318.599V79H317.599ZM304.439 79V60.58H302.439V79H304.439ZM302.505 60.9376L305.745 69.3976L307.613 68.6824L304.373 60.2224L302.505 60.9376ZM307.538 68.5283L288.458 36.4883L286.74 37.5117L305.82 69.5517L307.538 68.5283ZM287.599 38H302.539V36H287.599V38ZM301.677 37.5075L314.577 59.4075L316.3 58.3925L303.4 36.4925L301.677 37.5075ZM315.439 57.9H306.739V59.9H315.439V57.9ZM307.598 59.411L320.618 37.511L318.899 36.489L305.879 58.389L307.598 59.411ZM319.759 38H333.439V36H319.759V38ZM332.578 36.4907L313.618 68.5307L315.339 69.5493L334.299 37.5093L332.578 36.4907ZM315.417 69.386L318.537 60.926L316.661 60.234L313.541 68.694L315.417 69.386ZM316.599 60.58V79H318.599V60.58H316.599ZM317.599 78H303.439V80H317.599V78ZM159.807 139H158.807V140H159.807V139ZM159.807 97V96H158.807V97H159.807ZM192.867 99.58L192.432 100.48L192.44 100.484L192.867 99.58ZM201.207 106.78L200.365 107.32L200.365 107.32L201.207 106.78ZM201.207 129.22L202.049 129.76L202.052 129.755L201.207 129.22ZM192.867 136.48L193.294 137.384L193.302 137.38L192.867 136.48ZM173.967 127.96H172.967V128.96H173.967V127.96ZM185.127 126.82L184.679 125.926L184.67 125.93L185.127 126.82ZM188.667 123.46L189.536 123.954L189.542 123.944L188.667 123.46ZM188.667 112.54L189.536 112.046L189.536 112.046L188.667 112.54ZM185.127 109.18L184.67 110.07L184.68 110.074L185.127 109.18ZM173.967 108.04V107.04H172.967V108.04H173.967ZM160.807 139V97H158.807V139H160.807ZM159.807 98H180.507V96H159.807V98ZM180.507 98C185.064 98 189.03 98.8369 192.432 100.48L193.302 98.6796C189.583 96.8831 185.31 96 180.507 96V98ZM192.44 100.484C195.841 102.089 198.473 104.368 200.365 107.32L202.049 106.24C199.941 102.952 197.012 100.431 193.293 98.6756L192.44 100.484ZM200.365 107.32C202.245 110.253 203.207 113.779 203.207 117.94H205.207C205.207 113.461 204.168 109.547 202.049 106.24L200.365 107.32ZM203.207 117.94C203.207 122.143 202.245 125.71 200.362 128.685L202.052 129.755C204.169 126.41 205.207 122.457 205.207 117.94H203.207ZM200.365 128.68C198.471 131.634 195.837 133.934 192.432 135.58L193.302 137.38C197.017 135.586 199.942 133.046 202.049 129.76L200.365 128.68ZM192.44 135.576C189.036 137.182 185.067 138 180.507 138V140C185.307 140 189.577 139.138 193.293 137.384L192.44 135.576ZM180.507 138H159.807V140H180.507V138ZM173.967 128.96H179.907V126.96H173.967V128.96ZM179.907 128.96C182.034 128.96 183.936 128.555 185.584 127.71L184.67 125.93C183.357 126.605 181.78 126.96 179.907 126.96V128.96ZM185.574 127.714C187.272 126.866 188.599 125.606 189.536 123.954L187.797 122.966C187.055 124.274 186.022 125.254 184.68 125.926L185.574 127.714ZM189.542 123.944C190.481 122.244 190.927 120.229 190.927 117.94H188.927C188.927 119.971 188.532 121.636 187.791 122.976L189.542 123.944ZM190.927 117.94C190.927 115.689 190.48 113.71 189.536 112.046L187.797 113.034C188.533 114.33 188.927 115.951 188.927 117.94H190.927ZM189.536 112.046C188.599 110.394 187.272 109.134 185.574 108.286L184.68 110.074C186.022 110.746 187.055 111.726 187.797 113.034L189.536 112.046ZM185.584 108.29C183.936 107.445 182.034 107.04 179.907 107.04V109.04C181.78 109.04 183.357 109.395 184.67 110.07L185.584 108.29ZM179.907 107.04H173.967V109.04H179.907V107.04ZM172.967 108.04V127.96H174.967V108.04H172.967ZM204.231 139L203.315 138.599L202.703 140H204.231V139ZM222.591 97V96H221.937L221.675 96.5995L222.591 97ZM236.511 97L237.427 96.5995L237.165 96H236.511V97ZM254.871 139V140H256.4L255.787 138.599L254.871 139ZM240.231 139L239.298 139.359L239.544 140H240.231V139ZM226.671 103.72V102.72H225.215L225.738 104.079L226.671 103.72ZM232.191 103.72L233.125 104.079L233.647 102.72H232.191V103.72ZM218.631 139V140H219.318L219.565 139.359L218.631 139ZM215.151 131.68L214.208 131.347L213.738 132.68H215.151V131.68ZM218.751 121.48V120.48H218.044L217.808 121.147L218.751 121.48ZM238.071 121.48L239.014 121.147L238.779 120.48H238.071V121.48ZM241.671 131.68V132.68H243.084L242.614 131.347L241.671 131.68ZM205.147 139.401L223.507 97.4005L221.675 96.5995L203.315 138.599L205.147 139.401ZM222.591 98H236.511V96H222.591V98ZM235.595 97.4005L253.955 139.401L255.787 138.599L237.427 96.5995L235.595 97.4005ZM254.871 138H240.231V140H254.871V138ZM241.165 138.641L227.605 103.361L225.738 104.079L239.298 139.359L241.165 138.641ZM226.671 104.72H232.191V102.72H226.671V104.72ZM231.258 103.361L217.698 138.641L219.565 139.359L233.125 104.079L231.258 103.361ZM218.631 138H204.231V140H218.631V138ZM216.094 132.013L219.694 121.813L217.808 121.147L214.208 131.347L216.094 132.013ZM218.751 122.48H238.071V120.48H218.751V122.48ZM237.128 121.813L240.728 132.013L242.614 131.347L239.014 121.147L237.128 121.813ZM241.671 130.68H215.151V132.68H241.671V130.68ZM265.236 139H264.236V140H265.236V139ZM265.236 120.58L266.169 120.222L264.236 120.58H265.236ZM268.476 129.04L267.616 129.552L269.409 128.682L268.476 129.04ZM249.396 97V96H247.636L248.536 97.5117L249.396 97ZM264.336 97L265.197 96.4925L264.907 96H264.336V97ZM277.236 118.9V119.9H278.985L278.097 118.392L277.236 118.9ZM268.536 118.9L267.676 118.389L266.778 119.9H268.536V118.9ZM281.556 97V96H280.987L280.696 96.489L281.556 97ZM295.236 97L296.096 97.5093L296.989 96H295.236V97ZM276.276 129.04L275.337 128.694L277.136 129.549L276.276 129.04ZM279.396 120.58H280.396L278.457 120.234L279.396 120.58ZM279.396 139V140H280.396V139H279.396ZM266.236 139V120.58H264.236V139H266.236ZM264.302 120.938L267.542 129.398L269.409 128.682L266.169 120.222L264.302 120.938ZM269.335 128.528L250.255 96.4883L248.536 97.5117L267.616 129.552L269.335 128.528ZM249.396 98H264.336V96H249.396V98ZM263.474 97.5075L276.374 119.408L278.097 118.392L265.197 96.4925L263.474 97.5075ZM277.236 117.9H268.536V119.9H277.236V117.9ZM269.395 119.411L282.415 97.511L280.696 96.489L267.676 118.389L269.395 119.411ZM281.556 98H295.236V96H281.556V98ZM294.375 96.4907L275.415 128.531L277.136 129.549L296.096 97.5093L294.375 96.4907ZM277.214 129.386L280.334 120.926L278.457 120.234L275.337 128.694L277.214 129.386ZM278.396 120.58V139H280.396V120.58H278.396ZM279.396 138H265.236V140H279.396V138Z" fill="#82C8E3" mask="url(#path-3-outside-1_1_3916)"/>
<path d="M116.604 76V34H130.764V65.02H149.724V76H116.604ZM173.442 76.96C167.002 76.96 161.982 75.22 158.382 71.74C154.782 68.26 152.982 63.38 152.982 57.1V34H167.142V56.68C167.142 59.88 167.722 62.16 168.882 63.52C170.042 64.84 171.602 65.5 173.562 65.5C175.562 65.5 177.122 64.84 178.242 63.52C179.402 62.16 179.982 59.88 179.982 56.68V34H193.902V57.1C193.902 63.38 192.102 68.26 188.502 71.74C184.902 75.22 179.882 76.96 173.442 76.96ZM222.113 76.96C218.753 76.96 215.633 76.44 212.753 75.4C209.913 74.32 207.433 72.8 205.313 70.84C203.233 68.88 201.613 66.56 200.453 63.88C199.293 61.2 198.713 58.24 198.713 55C198.713 51.76 199.293 48.8 200.453 46.12C201.613 43.44 203.233 41.12 205.313 39.16C207.433 37.2 209.913 35.7 212.753 34.66C215.633 33.58 218.753 33.04 222.113 33.04C226.233 33.04 229.873 33.76 233.033 35.2C236.233 36.64 238.873 38.72 240.953 41.44L232.013 49.42C230.773 47.86 229.393 46.66 227.873 45.82C226.393 44.94 224.713 44.5 222.833 44.5C221.353 44.5 220.013 44.74 218.813 45.22C217.613 45.7 216.573 46.4 215.693 47.32C214.853 48.24 214.193 49.36 213.713 50.68C213.233 51.96 212.993 53.4 212.993 55C212.993 56.6 213.233 58.06 213.713 59.38C214.193 60.66 214.853 61.76 215.693 62.68C216.573 63.6 217.613 64.3 218.813 64.78C220.013 65.26 221.353 65.5 222.833 65.5C224.713 65.5 226.393 65.08 227.873 64.24C229.393 63.36 230.773 62.14 232.013 60.58L240.953 68.56C238.873 71.24 236.233 73.32 233.033 74.8C229.873 76.24 226.233 76.96 222.113 76.96ZM257.701 67L256.921 51.46L272.761 34H288.181L270.421 53.56L262.561 61.6L257.701 67ZM245.041 76V34H258.961V76H245.041ZM272.641 76L260.281 59.68L269.461 49.96L289.021 76H272.641ZM298.439 76V57.58L301.679 66.04L282.599 34H297.539L310.439 55.9H301.739L314.759 34H328.439L309.479 66.04L312.599 57.58V76H298.439ZM154.807 136V94H175.507C180.187 94 184.307 94.86 187.867 96.58C191.427 98.26 194.207 100.66 196.207 103.78C198.207 106.9 199.207 110.62 199.207 114.94C199.207 119.3 198.207 123.06 196.207 126.22C194.207 129.34 191.427 131.76 187.867 133.48C184.307 135.16 180.187 136 175.507 136H154.807ZM168.967 124.96H174.907C176.907 124.96 178.647 124.58 180.127 123.82C181.647 123.06 182.827 121.94 183.667 120.46C184.507 118.94 184.927 117.1 184.927 114.94C184.927 112.82 184.507 111.02 183.667 109.54C182.827 108.06 181.647 106.94 180.127 106.18C178.647 105.42 176.907 105.04 174.907 105.04H168.967V124.96ZM199.231 136L217.591 94H231.511L249.871 136H235.231L221.671 100.72H227.191L213.631 136H199.231ZM210.151 128.68L213.751 118.48H233.071L236.671 128.68H210.151ZM260.236 136V117.58L263.476 126.04L244.396 94H259.336L272.236 115.9H263.536L276.556 94H290.236L271.276 126.04L274.396 117.58V136H260.236Z" fill="#FADE0A"/>
<path d="M73.6013 59.7576L73.6209 60.2163L74.0796 60.2359L90.0991 60.9186L74.0796 61.6013L73.6209 61.6209L73.6013 62.0796L72.9186 78.0991L72.2359 62.0796L72.2163 61.6209L71.7576 61.6013L55.7406 60.9186L71.7576 60.2359L72.2163 60.2163L72.2359 59.7576L72.9186 43.7406L73.6013 59.7576Z" stroke="#82C8E3"/>
<path d="M76.7639 62.9206L76.7834 63.3793L77.2421 63.3989L93.2591 64.0816L77.2421 64.7643L76.7834 64.7839L76.7639 65.2426L76.0811 81.2596L75.3984 65.2426L75.3788 64.7839L74.9201 64.7643L58.9006 64.0816L74.9201 63.3989L75.3788 63.3793L75.3984 62.9206L76.0811 46.9011L76.7639 62.9206Z" stroke="#82C8E3"/>
<path d="M384.601 134.758L384.621 135.216L385.08 135.236L401.099 135.919L385.08 136.601L384.621 136.621L384.601 137.08L383.919 153.099L383.236 137.08L383.216 136.621L382.758 136.601L366.741 135.919L382.758 135.236L383.216 135.216L383.236 134.758L383.919 118.741L384.601 134.758Z" stroke="#82C8E3"/>
<path d="M387.764 137.921L387.783 138.379L388.242 138.399L404.259 139.082L388.242 139.764L387.783 139.784L387.764 140.243L387.081 156.26L386.398 140.243L386.379 139.784L385.92 139.764L369.901 139.082L385.92 138.399L386.379 138.379L386.398 137.921L387.081 121.901L387.764 137.921Z" stroke="#82C8E3"/>
<path fill-rule="evenodd" clip-rule="evenodd" d="M36 101C37.6832 122.882 35.2608 121.48 55 111.999C36.944 124.4 36.944 121.6 55 134.001C35.2608 124.52 37.6782 123.118 36 145C34.3168 123.118 36.7392 124.52 17 134.001C35.056 121.6 35.056 124.4 17 111.999C36.7392 121.48 34.3218 122.882 36 101ZM29.5868 126.719C31.0452 126.233 32.6485 125.963 33.8872 126.679C35.1259 127.395 35.6953 128.923 36.005 130.43C36.3147 128.923 36.8841 127.395 38.1228 126.679C39.3615 125.963 40.9648 126.228 42.4232 126.719C41.2744 125.697 40.2405 124.44 40.2405 123.003C40.2405 121.565 41.2744 120.308 42.4232 119.286C40.9648 119.772 39.3665 120.042 38.1228 119.326C36.8841 118.61 36.3147 117.082 36.005 115.575C35.7003 117.082 35.1259 118.61 33.8872 119.326C32.6485 120.042 31.0452 119.777 29.5868 119.286C30.7355 120.308 31.7695 121.565 31.7695 123.003C31.7695 124.44 30.7355 125.697 29.5868 126.719Z" fill="#FADE0A"/>
<path fill-rule="evenodd" clip-rule="evenodd" d="M126 120C126.975 132.93 125.572 132.102 137 126.499C126.547 133.827 126.547 132.173 137 139.501C125.572 133.898 126.972 133.07 126 146C125.025 133.07 126.428 133.898 115 139.501C125.453 132.173 125.453 133.827 115 126.499C126.428 132.102 125.028 132.93 126 120ZM122.287 135.197C123.131 134.91 124.06 134.751 124.777 135.174C125.494 135.597 125.824 136.5 126.003 137.391C126.182 136.5 126.512 135.597 127.229 135.174C127.946 134.751 128.874 134.907 129.719 135.197C129.054 134.594 128.455 133.851 128.455 133.001C128.455 132.152 129.054 131.409 129.719 130.805C128.874 131.093 127.949 131.252 127.229 130.829C126.512 130.406 126.182 129.503 126.003 128.612C125.826 129.503 125.494 130.406 124.777 130.829C124.06 131.252 123.131 131.096 122.287 130.805C122.952 131.409 123.551 132.152 123.551 133.001C123.551 133.851 122.952 134.594 122.287 135.197Z" fill="#82C8E3"/>
<path fill-rule="evenodd" clip-rule="evenodd" d="M379.124 18.458C388.529 38.2875 385.765 37.8453 400.802 21.9261C388.382 39.9692 387.38 37.3549 408.679 42.4704C386.854 40.684 388.609 38.5091 394.876 59.542C385.47 39.7125 388.234 40.1547 373.197 56.0739C385.617 38.0308 386.62 40.645 365.321 35.5296C387.146 37.316 385.391 39.4909 379.124 18.458ZM382.343 44.7682C383.531 43.7925 384.931 42.966 386.344 43.1913C387.757 43.4166 388.836 44.6392 389.664 45.9359C389.414 44.4174 389.399 42.7872 390.299 41.675C391.199 40.5628 392.791 40.2367 394.329 40.1729C392.89 39.6302 391.475 38.8265 390.96 37.4843C390.446 36.1421 390.961 34.5981 391.668 33.2329C390.48 34.2086 389.084 35.0333 387.667 34.8098C386.254 34.5845 385.175 33.3619 384.346 32.0651C384.602 33.5819 384.612 35.2139 383.712 36.3261C382.812 37.4382 381.22 37.7643 379.682 37.8282C381.121 38.3709 382.536 39.1746 383.051 40.5168C383.565 41.859 383.05 43.403 382.343 44.7682Z" fill="#FADE0A"/>
<path fill-rule="evenodd" clip-rule="evenodd" d="M40 164.5C51.3169 164.018 56.9784 164.236 59.8875 162.251C58.6956 160.03 55.8418 157.244 51.3261 152.326C56.2442 156.842 59.0304 159.696 61.2514 160.887C63.2358 157.975 63.0177 152.317 63.5 141C63.9823 152.317 63.7642 157.978 65.7486 160.887C67.9696 159.696 70.7558 156.842 75.6739 152.326C71.1582 157.244 68.3044 160.03 67.1126 162.251C70.0247 164.236 75.6831 164.018 87 164.5C75.6831 164.982 70.0216 164.764 67.1126 166.749C68.3044 168.97 71.1582 171.756 75.6739 176.674C70.7558 172.158 67.9696 169.304 65.7486 168.113C63.7642 171.025 63.9823 176.683 63.5 188C63.0177 176.683 63.2358 171.022 61.2514 168.113C59.0304 169.304 56.2442 172.158 51.3261 176.674C55.8418 171.756 58.6956 168.97 59.8875 166.749C56.9753 164.764 51.3169 164.982 40 164.5Z" fill="#FADE0A"/>
<path fill-rule="evenodd" clip-rule="evenodd" d="M16.8086 46.6714C23.5092 42.2663 27.0282 40.3416 28.0746 38.0788C26.5434 37.1625 23.7971 36.5067 19.2664 35.1594C23.8954 36.1159 26.6252 36.8374 28.4077 36.7545C28.5552 34.2641 26.3666 30.9055 22.5474 23.8544C26.9526 30.555 28.8773 34.074 31.1401 35.1204C32.0564 33.5892 32.7122 30.8429 34.0594 26.3122C33.1029 30.9412 32.3815 33.671 32.4643 35.4535C34.9548 35.601 38.3134 33.4124 45.3644 29.5932C38.6639 33.9984 35.1449 35.9231 34.0985 38.1858C35.6297 39.1022 38.376 39.758 42.9066 41.1052C38.2777 40.1487 35.5479 39.4273 33.7654 39.5101C33.6179 42.0005 35.8065 45.3592 39.6257 52.4102C35.2205 45.7097 33.2958 42.1907 31.033 41.1443C30.1167 42.6755 29.4609 45.4218 28.1136 49.9524C29.0701 45.3235 29.7916 42.5937 29.7087 40.8112C27.2183 40.6637 23.8597 42.8523 16.8086 46.6714Z" fill="#82C8E3"/>
<path fill-rule="evenodd" clip-rule="evenodd" d="M346.878 169.584C351.49 166.552 353.912 165.227 354.633 163.669C353.579 163.039 351.688 162.587 348.57 161.66C351.756 162.318 353.635 162.815 354.862 162.758C354.964 161.043 353.457 158.732 350.828 153.878C353.86 158.49 355.185 160.913 356.743 161.633C357.374 160.579 357.825 158.688 358.752 155.57C358.094 158.756 357.597 160.635 357.654 161.862C359.369 161.964 361.681 160.457 366.534 157.828C361.922 160.861 359.5 162.185 358.779 163.743C359.833 164.374 361.724 164.825 364.842 165.753C361.656 165.094 359.777 164.597 358.55 164.655C358.448 166.369 359.955 168.681 362.584 173.534C359.552 168.922 358.227 166.5 356.669 165.779C356.038 166.833 355.587 168.724 354.66 171.842C355.318 168.656 355.815 166.777 355.758 165.55C354.043 165.449 351.731 166.955 346.878 169.584Z" fill="#FADE0A"/>
<path fill-rule="evenodd" clip-rule="evenodd" d="M396.181 70.8172C404.192 70.4758 408.2 70.6302 410.26 69.2253C409.416 67.653 407.396 65.6805 404.199 62.1988C407.681 65.3957 409.653 67.416 411.225 68.2597C412.63 66.1981 412.476 62.1923 412.817 54.1807C413.159 62.1923 413.004 66.2003 414.409 68.2597C415.981 67.416 417.954 65.3957 421.436 62.1988C418.239 65.6805 416.218 67.653 415.375 69.2253C417.436 70.6302 421.442 70.4758 429.454 70.8172C421.442 71.1586 417.434 71.0042 415.375 72.4091C416.218 73.9814 418.239 75.9539 421.436 79.4356C417.954 76.2388 415.981 74.2185 414.409 73.3747C413.004 75.4363 413.159 79.4421 412.817 87.4538C412.476 79.4421 412.63 75.4341 411.225 73.3747C409.653 74.2185 407.681 76.2388 404.199 79.4356C407.396 75.9539 409.416 73.9814 410.26 72.4091C408.198 71.0042 404.192 71.1586 396.181 70.8172Z" fill="#82C8E3"/>
<path fill-rule="evenodd" clip-rule="evenodd" d="M316.181 150.817C324.192 150.476 328.2 150.63 330.26 149.225C329.416 147.653 327.396 145.681 324.199 142.199C327.681 145.396 329.653 147.416 331.225 148.26C332.63 146.198 332.476 142.192 332.817 134.181C333.159 142.192 333.004 146.2 334.409 148.26C335.981 147.416 337.954 145.396 341.436 142.199C338.239 145.681 336.218 147.653 335.375 149.225C337.436 150.63 341.442 150.476 349.454 150.817C341.442 151.159 337.434 151.004 335.375 152.409C336.218 153.981 338.239 155.954 341.436 159.436C337.954 156.239 335.981 154.218 334.409 153.375C333.004 155.436 333.159 159.442 332.817 167.454C332.476 159.442 332.63 155.434 331.225 153.375C329.653 154.218 327.681 156.239 324.199 159.436C327.396 155.954 329.416 153.981 330.26 152.409C328.198 151.004 324.192 151.159 316.181 150.817Z" fill="#82C8E3"/>
<defs>
<linearGradient id="paint0_linear_1_3916" x1="263" y1="-20.5319" x2="263" y2="205" gradientUnits="userSpaceOnUse">
<stop stop-color="#1A2E5C"/>
<stop offset="1" stop-color="#0F1321"/>
</linearGradient>
</defs>
</svg>
