<svg width="440" height="205" viewBox="0 0 440 205" fill="none" xmlns="http://www.w3.org/2000/svg">
<rect width="440" height="204" rx="50" fill="#8BCB1E"/>
<rect y="5" width="440" height="200" rx="50" fill="url(#paint0_linear_1_3957)"/>
<mask id="path-3-outside-1_1_3957" maskUnits="userSpaceOnUse" x="73" y="43" width="310" height="105" fill="black">
<rect fill="white" x="73" y="43" width="310" height="105"/>
<path d="M127.341 86V54.98H115.041V44H153.801V54.98H141.501V86H127.341ZM169.507 86L151.747 44H166.987L181.447 79.46H172.387L187.267 44H201.187L183.427 86H169.507ZM202.596 86V44H225.036C230.836 44 235.116 45.04 237.876 47.12C240.636 49.16 242.016 51.78 242.016 54.98C242.016 57.1 241.416 59 240.216 60.68C239.056 62.32 237.356 63.62 235.116 64.58C232.876 65.54 230.116 66.02 226.836 66.02L228.036 62.78C231.316 62.78 234.136 63.24 236.496 64.16C238.896 65.08 240.736 66.42 242.016 68.18C243.336 69.9 243.996 71.98 243.996 74.42C243.996 78.06 242.476 80.9 239.436 82.94C236.436 84.98 232.036 86 226.236 86H202.596ZM216.516 76.1H225.036C226.596 76.1 227.756 75.82 228.516 75.26C229.316 74.7 229.716 73.88 229.716 72.8C229.716 71.72 229.316 70.9 228.516 70.34C227.756 69.78 226.596 69.5 225.036 69.5H215.556V60.14H223.116C224.716 60.14 225.876 59.88 226.596 59.36C227.356 58.8 227.736 58.02 227.736 57.02C227.736 55.98 227.356 55.2 226.596 54.68C225.876 54.16 224.716 53.9 223.116 53.9H216.516V76.1ZM261.962 59.6H280.682V69.8H261.962V59.6ZM262.922 75.32H283.922V86H249.002V44H283.142V54.68H262.922V75.32ZM298.493 86V54.98H286.193V44H324.953V54.98H312.653V86H298.493ZM90.0517 146.96C86.7717 146.96 83.8117 146.44 81.1717 145.4C78.5317 144.32 76.3317 142.76 74.5717 140.72L82.1917 131.72C83.3117 133.08 84.4117 134.12 85.4917 134.84C86.5717 135.52 87.6917 135.86 88.8517 135.86C91.8917 135.86 93.4117 134.12 93.4117 130.64V114.68H79.1317V104H107.392V129.8C107.392 135.56 105.912 139.86 102.952 142.7C99.9917 145.54 95.6917 146.96 90.0517 146.96ZM108.446 146L126.806 104H140.726L159.086 146H144.446L130.886 110.72H136.406L122.846 146H108.446ZM119.366 138.68L122.966 128.48H142.286L145.886 138.68H119.366ZM182.48 146.96C179.12 146.96 176 146.44 173.12 145.4C170.28 144.32 167.8 142.8 165.68 140.84C163.6 138.88 161.98 136.56 160.82 133.88C159.66 131.2 159.08 128.24 159.08 125C159.08 121.76 159.66 118.8 160.82 116.12C161.98 113.44 163.6 111.12 165.68 109.16C167.8 107.2 170.28 105.7 173.12 104.66C176 103.58 179.12 103.04 182.48 103.04C186.6 103.04 190.24 103.76 193.4 105.2C196.6 106.64 199.24 108.72 201.32 111.44L192.38 119.42C191.14 117.86 189.76 116.66 188.24 115.82C186.76 114.94 185.08 114.5 183.2 114.5C181.72 114.5 180.38 114.74 179.18 115.22C177.98 115.7 176.94 116.4 176.06 117.32C175.22 118.24 174.56 119.36 174.08 120.68C173.6 121.96 173.36 123.4 173.36 125C173.36 126.6 173.6 128.06 174.08 129.38C174.56 130.66 175.22 131.76 176.06 132.68C176.94 133.6 177.98 134.3 179.18 134.78C180.38 135.26 181.72 135.5 183.2 135.5C185.08 135.5 186.76 135.08 188.24 134.24C189.76 133.36 191.14 132.14 192.38 130.58L201.32 138.56C199.24 141.24 196.6 143.32 193.4 144.8C190.24 146.24 186.6 146.96 182.48 146.96ZM218.068 137L217.288 121.46L233.128 104H248.548L230.788 123.56L222.928 131.6L218.068 137ZM205.408 146V104H219.328V146H205.408ZM233.008 146L220.648 129.68L229.828 119.96L249.388 146H233.008ZM251.287 146V104H271.507C275.427 104 278.807 104.64 281.647 105.92C284.527 107.2 286.747 109.04 288.307 111.44C289.867 113.8 290.647 116.6 290.647 119.84C290.647 123.08 289.867 125.88 288.307 128.24C286.747 130.6 284.527 132.44 281.647 133.76C278.807 135.04 275.427 135.68 271.507 135.68H259.147L265.447 129.62V146H251.287ZM265.447 131.18L259.147 124.76H270.607C272.567 124.76 274.007 124.32 274.927 123.44C275.887 122.56 276.367 121.36 276.367 119.84C276.367 118.32 275.887 117.12 274.927 116.24C274.007 115.36 272.567 114.92 270.607 114.92H259.147L265.447 108.5V131.18ZM317.897 146.96C314.497 146.96 311.337 146.42 308.417 145.34C305.537 144.26 303.037 142.74 300.917 140.78C298.797 138.78 297.137 136.44 295.937 133.76C294.777 131.08 294.197 128.16 294.197 125C294.197 121.8 294.777 118.88 295.937 116.24C297.137 113.56 298.797 111.24 300.917 109.28C303.037 107.28 305.537 105.74 308.417 104.66C311.337 103.58 314.497 103.04 317.897 103.04C321.337 103.04 324.497 103.58 327.377 104.66C330.257 105.74 332.757 107.28 334.877 109.28C336.997 111.24 338.637 113.56 339.797 116.24C340.997 118.88 341.597 121.8 341.597 125C341.597 128.16 340.997 131.08 339.797 133.76C338.637 136.44 336.997 138.78 334.877 140.78C332.757 142.74 330.257 144.26 327.377 145.34C324.497 146.42 321.337 146.96 317.897 146.96ZM317.897 135.5C319.217 135.5 320.437 135.26 321.557 134.78C322.717 134.3 323.717 133.62 324.557 132.74C325.437 131.82 326.117 130.72 326.597 129.44C327.077 128.12 327.317 126.64 327.317 125C327.317 123.36 327.077 121.9 326.597 120.62C326.117 119.3 325.437 118.2 324.557 117.32C323.717 116.4 322.717 115.7 321.557 115.22C320.437 114.74 319.217 114.5 317.897 114.5C316.577 114.5 315.337 114.74 314.177 115.22C313.057 115.7 312.057 116.4 311.177 117.32C310.337 118.2 309.677 119.3 309.197 120.62C308.717 121.9 308.477 123.36 308.477 125C308.477 126.64 308.717 128.12 309.197 129.44C309.677 130.72 310.337 131.82 311.177 132.74C312.057 133.62 313.057 134.3 314.177 134.78C315.337 135.26 316.577 135.5 317.897 135.5ZM355.27 146V114.98H342.97V104H381.73V114.98H369.43V146H355.27Z"/>
</mask>
<path d="M127.341 86H126.341V87H127.341V86ZM127.341 54.98H128.341V53.98H127.341V54.98ZM115.041 54.98H114.041V55.98H115.041V54.98ZM115.041 44V43H114.041V44H115.041ZM153.801 44H154.801V43H153.801V44ZM153.801 54.98V55.98H154.801V54.98H153.801ZM141.501 54.98V53.98H140.501V54.98H141.501ZM141.501 86V87H142.501V86H141.501ZM128.341 86V54.98H126.341V86H128.341ZM127.341 53.98H115.041V55.98H127.341V53.98ZM116.041 54.98V44H114.041V54.98H116.041ZM115.041 45H153.801V43H115.041V45ZM152.801 44V54.98H154.801V44H152.801ZM153.801 53.98H141.501V55.98H153.801V53.98ZM140.501 54.98V86H142.501V54.98H140.501ZM141.501 85H127.341V87H141.501V85ZM169.507 86L168.586 86.3895L168.844 87H169.507V86ZM151.747 44V43H150.238L150.826 44.3895L151.747 44ZM166.987 44L167.913 43.6224L167.659 43H166.987V44ZM181.447 79.46V80.46H182.934L182.373 79.0824L181.447 79.46ZM172.387 79.46L171.465 79.0731L170.883 80.46H172.387V79.46ZM187.267 44V43H186.602L186.345 43.6131L187.267 44ZM201.187 44L202.108 44.3895L202.695 43H201.187V44ZM183.427 86V87H184.09L184.348 86.3895L183.427 86ZM170.428 85.6105L152.668 43.6105L150.826 44.3895L168.586 86.3895L170.428 85.6105ZM151.747 45H166.987V43H151.747V45ZM166.061 44.3776L180.521 79.8376L182.373 79.0824L167.913 43.6224L166.061 44.3776ZM181.447 78.46H172.387V80.46H181.447V78.46ZM173.309 79.8469L188.189 44.3869L186.345 43.6131L171.465 79.0731L173.309 79.8469ZM187.267 45H201.187V43H187.267V45ZM200.266 43.6105L182.506 85.6105L184.348 86.3895L202.108 44.3895L200.266 43.6105ZM183.427 85H169.507V87H183.427V85ZM202.596 86H201.596V87H202.596V86ZM202.596 44V43H201.596V44H202.596ZM237.876 47.12L237.274 47.9186L237.281 47.9242L237.876 47.12ZM240.216 60.68L239.402 60.0988L239.399 60.1025L240.216 60.68ZM235.116 64.58L234.722 63.6609L234.722 63.6609L235.116 64.58ZM226.836 66.02L225.898 65.6727L225.399 67.02H226.836V66.02ZM228.036 62.78V61.78H227.34L227.098 62.4327L228.036 62.78ZM236.496 64.16L236.133 65.0917L236.138 65.0937L236.496 64.16ZM242.016 68.18L241.207 68.7682L241.215 68.7786L241.222 68.7888L242.016 68.18ZM239.436 82.94L238.879 82.1096L238.873 82.1131L239.436 82.94ZM216.516 76.1H215.516V77.1H216.516V76.1ZM228.516 75.26L227.942 74.4408L227.932 74.4477L227.923 74.4549L228.516 75.26ZM228.516 70.34L227.923 71.1451L227.932 71.1523L227.942 71.1592L228.516 70.34ZM215.556 69.5H214.556V70.5H215.556V69.5ZM215.556 60.14V59.14H214.556V60.14H215.556ZM226.596 59.36L227.181 60.1707L227.189 60.1651L226.596 59.36ZM226.596 54.68L226.01 55.4907L226.021 55.4981L226.031 55.5053L226.596 54.68ZM216.516 53.9V52.9H215.516V53.9H216.516ZM203.596 86V44H201.596V86H203.596ZM202.596 45H225.036V43H202.596V45ZM225.036 45C230.752 45 234.77 46.0317 237.274 47.9186L238.478 46.3214C235.461 44.0483 230.919 43 225.036 43V45ZM237.281 47.9242C239.808 49.7916 241.016 52.1231 241.016 54.98H243.016C243.016 51.4369 241.464 48.5284 238.47 46.3158L237.281 47.9242ZM241.016 54.98C241.016 56.8976 240.477 58.5932 239.402 60.0988L241.03 61.2612C242.354 59.4068 243.016 57.3024 243.016 54.98H241.016ZM239.399 60.1025C238.367 61.5626 236.828 62.758 234.722 63.6609L235.51 65.4991C237.883 64.482 239.745 63.0774 241.032 61.2575L239.399 60.1025ZM234.722 63.6609C232.641 64.5525 230.025 65.02 226.836 65.02V67.02C230.207 67.02 233.11 66.5275 235.51 65.4991L234.722 63.6609ZM227.774 66.3673L228.974 63.1273L227.098 62.4327L225.898 65.6727L227.774 66.3673ZM228.036 63.78C231.226 63.78 233.917 64.228 236.133 65.0917L236.859 63.2283C234.355 62.252 231.405 61.78 228.036 61.78V63.78ZM236.138 65.0937C238.391 65.9573 240.06 67.191 241.207 68.7682L242.825 67.5918C241.412 65.649 239.401 64.2027 236.854 63.2263L236.138 65.0937ZM241.222 68.7888C242.392 70.3125 242.996 72.1711 242.996 74.42H244.996C244.996 71.7889 244.28 69.4875 242.809 67.5712L241.222 68.7888ZM242.996 74.42C242.996 77.7244 241.644 80.254 238.879 82.1096L239.993 83.7704C243.308 81.546 244.996 78.3956 244.996 74.42H242.996ZM238.873 82.1131C236.112 83.9912 231.945 85 226.236 85V87C232.126 87 236.76 85.9688 239.998 83.7669L238.873 82.1131ZM226.236 85H202.596V87H226.236V85ZM216.516 77.1H225.036V75.1H216.516V77.1ZM225.036 77.1C226.682 77.1 228.097 76.8105 229.109 76.0651L227.923 74.4549C227.414 74.8295 226.509 75.1 225.036 75.1V77.1ZM229.089 76.0792C230.188 75.3101 230.716 74.166 230.716 72.8H228.716C228.716 73.594 228.444 74.0899 227.942 74.4408L229.089 76.0792ZM230.716 72.8C230.716 71.434 230.188 70.2899 229.089 69.5208L227.942 71.1592C228.444 71.5101 228.716 72.006 228.716 72.8H230.716ZM229.109 69.5349C228.097 68.7895 226.682 68.5 225.036 68.5V70.5C226.509 70.5 227.414 70.7705 227.923 71.1451L229.109 69.5349ZM225.036 68.5H215.556V70.5H225.036V68.5ZM216.556 69.5V60.14H214.556V69.5H216.556ZM215.556 61.14H223.116V59.14H215.556V61.14ZM223.116 61.14C224.778 61.14 226.201 60.8785 227.181 60.1707L226.01 58.5493C225.55 58.8815 224.653 59.14 223.116 59.14V61.14ZM227.189 60.1651C228.222 59.4039 228.736 58.3157 228.736 57.02H226.736C226.736 57.7243 226.49 58.1961 226.003 58.5549L227.189 60.1651ZM228.736 57.02C228.736 55.6997 228.232 54.5875 227.16 53.8547L226.031 55.5053C226.48 55.8125 226.736 56.2603 226.736 57.02H228.736ZM227.181 53.8693C226.201 53.1615 224.778 52.9 223.116 52.9V54.9C224.653 54.9 225.55 55.1585 226.01 55.4907L227.181 53.8693ZM223.116 52.9H216.516V54.9H223.116V52.9ZM215.516 53.9V76.1H217.516V53.9H215.516ZM261.962 59.6V58.6H260.962V59.6H261.962ZM280.682 59.6H281.682V58.6H280.682V59.6ZM280.682 69.8V70.8H281.682V69.8H280.682ZM261.962 69.8H260.962V70.8H261.962V69.8ZM262.922 75.32H261.922V76.32H262.922V75.32ZM283.922 75.32H284.922V74.32H283.922V75.32ZM283.922 86V87H284.922V86H283.922ZM249.002 86H248.002V87H249.002V86ZM249.002 44V43H248.002V44H249.002ZM283.142 44H284.142V43H283.142V44ZM283.142 54.68V55.68H284.142V54.68H283.142ZM262.922 54.68V53.68H261.922V54.68H262.922ZM261.962 60.6H280.682V58.6H261.962V60.6ZM279.682 59.6V69.8H281.682V59.6H279.682ZM280.682 68.8H261.962V70.8H280.682V68.8ZM262.962 69.8V59.6H260.962V69.8H262.962ZM262.922 76.32H283.922V74.32H262.922V76.32ZM282.922 75.32V86H284.922V75.32H282.922ZM283.922 85H249.002V87H283.922V85ZM250.002 86V44H248.002V86H250.002ZM249.002 45H283.142V43H249.002V45ZM282.142 44V54.68H284.142V44H282.142ZM283.142 53.68H262.922V55.68H283.142V53.68ZM261.922 54.68V75.32H263.922V54.68H261.922ZM298.493 86H297.493V87H298.493V86ZM298.493 54.98H299.493V53.98H298.493V54.98ZM286.193 54.98H285.193V55.98H286.193V54.98ZM286.193 44V43H285.193V44H286.193ZM324.953 44H325.953V43H324.953V44ZM324.953 54.98V55.98H325.953V54.98H324.953ZM312.653 54.98V53.98H311.653V54.98H312.653ZM312.653 86V87H313.653V86H312.653ZM299.493 86V54.98H297.493V86H299.493ZM298.493 53.98H286.193V55.98H298.493V53.98ZM287.193 54.98V44H285.193V54.98H287.193ZM286.193 45H324.953V43H286.193V45ZM323.953 44V54.98H325.953V44H323.953ZM324.953 53.98H312.653V55.98H324.953V53.98ZM311.653 54.98V86H313.653V54.98H311.653ZM312.653 85H298.493V87H312.653V85ZM81.1717 145.4L80.7931 146.326L80.8052 146.33L81.1717 145.4ZM74.5717 140.72L73.8085 140.074L73.2563 140.726L73.8146 141.373L74.5717 140.72ZM82.1917 131.72L82.9636 131.084L82.2024 130.16L81.4285 131.074L82.1917 131.72ZM85.4917 134.84L84.937 135.672L84.9479 135.679L84.9589 135.686L85.4917 134.84ZM93.4117 114.68H94.4117V113.68H93.4117V114.68ZM79.1317 114.68H78.1317V115.68H79.1317V114.68ZM79.1317 104V103H78.1317V104H79.1317ZM107.392 104H108.392V103H107.392V104ZM102.952 142.7L103.644 143.422L103.644 143.422L102.952 142.7ZM90.0517 145.96C86.8779 145.96 84.0448 145.457 81.5382 144.47L80.8052 146.33C83.5786 147.423 86.6656 147.96 90.0517 147.96V145.96ZM81.5504 144.474C79.0474 143.451 76.9799 141.98 75.3289 140.067L73.8146 141.373C75.6835 143.54 78.016 145.189 80.7931 146.326L81.5504 144.474ZM75.3349 141.366L82.9549 132.366L81.4285 131.074L73.8085 140.074L75.3349 141.366ZM81.4198 132.356C82.5815 133.766 83.7521 134.882 84.937 135.672L86.0464 134.008C85.0713 133.358 84.0419 132.394 82.9636 131.084L81.4198 132.356ZM84.9589 135.686C86.1819 136.456 87.4845 136.86 88.8517 136.86V134.86C87.8989 134.86 86.9615 134.584 86.0245 133.994L84.9589 135.686ZM88.8517 136.86C90.5637 136.86 92.0194 136.364 93.0248 135.213C94.0077 134.088 94.4117 132.503 94.4117 130.64H92.4117C92.4117 132.257 92.0558 133.282 91.5186 133.897C91.004 134.486 90.1798 134.86 88.8517 134.86V136.86ZM94.4117 130.64V114.68H92.4117V130.64H94.4117ZM93.4117 113.68H79.1317V115.68H93.4117V113.68ZM80.1317 114.68V104H78.1317V114.68H80.1317ZM79.1317 105H107.392V103H79.1317V105ZM106.392 104V129.8H108.392V104H106.392ZM106.392 129.8C106.392 135.4 104.954 139.393 102.259 141.978L103.644 143.422C106.869 140.327 108.392 135.72 108.392 129.8H106.392ZM102.259 141.978C99.5461 144.582 95.5319 145.96 90.0517 145.96V147.96C95.8515 147.96 100.437 146.498 103.644 143.422L102.259 141.978ZM108.446 146L107.53 145.599L106.917 147H108.446V146ZM126.806 104V103H126.152L125.89 103.599L126.806 104ZM140.726 104L141.642 103.599L141.38 103H140.726V104ZM159.086 146V147H160.614L160.002 145.599L159.086 146ZM144.446 146L143.513 146.359L143.759 147H144.446V146ZM130.886 110.72V109.72H129.43L129.953 111.079L130.886 110.72ZM136.406 110.72L137.339 111.079L137.862 109.72H136.406V110.72ZM122.846 146V147H123.533L123.779 146.359L122.846 146ZM119.366 138.68L118.423 138.347L117.953 139.68H119.366V138.68ZM122.966 128.48V127.48H122.258L122.023 128.147L122.966 128.48ZM142.286 128.48L143.229 128.147L142.993 127.48H142.286V128.48ZM145.886 138.68V139.68H147.299L146.829 138.347L145.886 138.68ZM109.362 146.401L127.722 104.401L125.89 103.599L107.53 145.599L109.362 146.401ZM126.806 105H140.726V103H126.806V105ZM139.81 104.401L158.17 146.401L160.002 145.599L141.642 103.599L139.81 104.401ZM159.086 145H144.446V147H159.086V145ZM145.379 145.641L131.819 110.361L129.953 111.079L143.513 146.359L145.379 145.641ZM130.886 111.72H136.406V109.72H130.886V111.72ZM135.473 110.361L121.913 145.641L123.779 146.359L137.339 111.079L135.473 110.361ZM122.846 145H108.446V147H122.846V145ZM120.309 139.013L123.909 128.813L122.023 128.147L118.423 138.347L120.309 139.013ZM122.966 129.48H142.286V127.48H122.966V129.48ZM141.343 128.813L144.943 139.013L146.829 138.347L143.229 128.147L141.343 128.813ZM145.886 137.68H119.366V139.68H145.886V137.68ZM173.12 145.4L172.764 146.335L172.772 146.338L172.78 146.341L173.12 145.4ZM165.68 140.84L164.994 141.568L165.001 141.574L165.68 140.84ZM160.82 133.88L159.902 134.277L159.902 134.277L160.82 133.88ZM160.82 116.12L159.902 115.723L159.902 115.723L160.82 116.12ZM165.68 109.16L165.001 108.426L164.994 108.432L165.68 109.16ZM173.12 104.66L173.464 105.599L173.471 105.596L173.12 104.66ZM193.4 105.2L192.985 106.11L192.989 106.112L193.4 105.2ZM201.32 111.44L201.986 112.186L202.677 111.569L202.114 110.833L201.32 111.44ZM192.38 119.42L191.597 120.042L192.256 120.871L193.046 120.166L192.38 119.42ZM188.24 115.82L187.729 116.68L187.742 116.688L187.756 116.695L188.24 115.82ZM179.18 115.22L179.551 116.148L179.551 116.148L179.18 115.22ZM176.06 117.32L175.337 116.629L175.329 116.637L175.321 116.646L176.06 117.32ZM174.08 120.68L175.016 121.031L175.02 121.022L174.08 120.68ZM174.08 129.38L173.14 129.722L173.144 129.731L174.08 129.38ZM176.06 132.68L175.321 133.354L175.329 133.363L175.337 133.371L176.06 132.68ZM179.18 134.78L178.808 135.708L178.808 135.708L179.18 134.78ZM188.24 134.24L188.733 135.11L188.741 135.105L188.24 134.24ZM192.38 130.58L193.046 129.834L192.256 129.129L191.597 129.958L192.38 130.58ZM201.32 138.56L202.11 139.173L202.682 138.436L201.986 137.814L201.32 138.56ZM193.4 144.8L193.815 145.71L193.82 145.708L193.4 144.8ZM182.48 145.96C179.224 145.96 176.22 145.456 173.459 144.459L172.78 146.341C175.779 147.424 179.015 147.96 182.48 147.96V145.96ZM173.475 144.465C170.749 143.428 168.38 141.974 166.359 140.106L165.001 141.574C167.22 143.626 169.811 145.212 172.764 146.335L173.475 144.465ZM166.366 140.112C164.387 138.248 162.845 136.041 161.738 133.483L159.902 134.277C161.115 137.079 162.813 139.512 164.994 141.568L166.366 140.112ZM161.738 133.483C160.638 130.941 160.08 128.118 160.08 125H158.08C158.08 128.362 158.682 131.459 159.902 134.277L161.738 133.483ZM160.08 125C160.08 121.882 160.638 119.059 161.738 116.517L159.902 115.723C158.682 118.541 158.08 121.638 158.08 125H160.08ZM161.738 116.517C162.845 113.959 164.387 111.752 166.366 109.888L164.994 108.432C162.813 110.488 161.115 112.921 159.902 115.723L161.738 116.517ZM166.359 109.894C168.377 108.028 170.742 106.596 173.464 105.599L172.776 103.721C169.818 104.804 167.223 106.372 165.001 108.426L166.359 109.894ZM173.471 105.596C176.229 104.562 179.229 104.04 182.48 104.04V102.04C179.011 102.04 175.771 102.598 172.769 103.724L173.471 105.596ZM182.48 104.04C186.483 104.04 189.977 104.739 192.985 106.11L193.815 104.29C190.502 102.781 186.717 102.04 182.48 102.04V104.04ZM192.989 106.112C196.042 107.486 198.549 109.463 200.525 112.047L202.114 110.833C199.931 107.977 197.158 105.794 193.81 104.288L192.989 106.112ZM200.654 110.694L191.714 118.674L193.046 120.166L201.986 112.186L200.654 110.694ZM193.163 118.798C191.853 117.15 190.375 115.857 188.724 114.945L187.756 116.695C189.145 117.463 190.427 118.57 191.597 120.042L193.163 118.798ZM188.751 114.96C187.102 113.98 185.243 113.5 183.2 113.5V115.5C184.917 115.5 186.417 115.9 187.729 116.68L188.751 114.96ZM183.2 113.5C181.611 113.5 180.142 113.758 178.808 114.292L179.551 116.148C180.617 115.722 181.829 115.5 183.2 115.5V113.5ZM178.808 114.292C177.478 114.824 176.318 115.604 175.337 116.629L176.782 118.011C177.562 117.196 178.482 116.576 179.551 116.148L178.808 114.292ZM175.321 116.646C174.383 117.674 173.659 118.911 173.14 120.338L175.02 121.022C175.461 119.809 176.057 118.806 176.798 117.994L175.321 116.646ZM173.144 120.329C172.615 121.739 172.36 123.3 172.36 125H174.36C174.36 123.5 174.585 122.181 175.016 121.031L173.144 120.329ZM172.36 125C172.36 126.701 172.615 128.278 173.14 129.722L175.02 129.038C174.585 127.842 174.36 126.499 174.36 125H172.36ZM173.144 129.731C173.664 131.119 174.387 132.331 175.321 133.354L176.798 132.006C176.052 131.189 175.456 130.201 175.016 129.029L173.144 129.731ZM175.337 133.371C176.318 134.396 177.478 135.176 178.808 135.708L179.551 133.852C178.482 133.424 177.562 132.804 176.782 131.989L175.337 133.371ZM178.808 135.708C180.142 136.242 181.611 136.5 183.2 136.5V134.5C181.829 134.5 180.617 134.278 179.551 133.852L178.808 135.708ZM183.2 136.5C185.234 136.5 187.088 136.044 188.733 135.11L187.746 133.37C186.432 134.116 184.925 134.5 183.2 134.5V136.5ZM188.741 135.105C190.383 134.155 191.855 132.847 193.163 131.202L191.597 129.958C190.425 131.433 189.137 132.565 187.739 133.375L188.741 135.105ZM191.714 131.326L200.654 139.306L201.986 137.814L193.046 129.834L191.714 131.326ZM200.53 137.947C198.552 140.495 196.041 142.477 192.98 143.892L193.82 145.708C197.159 144.163 199.928 141.985 202.11 139.173L200.53 137.947ZM192.985 143.89C189.977 145.261 186.483 145.96 182.48 145.96V147.96C186.717 147.96 190.502 147.219 193.815 145.71L192.985 143.89ZM218.068 137L217.07 137.05L217.191 139.47L218.812 137.669L218.068 137ZM217.288 121.46L216.548 120.788L216.269 121.096L216.29 121.51L217.288 121.46ZM233.128 104V103H232.685L232.388 103.328L233.128 104ZM248.548 104L249.289 104.672L250.807 103H248.548V104ZM230.788 123.56L231.503 124.259L231.516 124.246L231.529 124.232L230.788 123.56ZM222.928 131.6L222.213 130.901L222.199 130.916L222.185 130.931L222.928 131.6ZM205.408 146H204.408V147H205.408V146ZM205.408 104V103H204.408V104H205.408ZM219.328 104H220.328V103H219.328V104ZM219.328 146V147H220.328V146H219.328ZM233.008 146L232.211 146.604L232.511 147H233.008V146ZM220.648 129.68L219.921 128.993L219.34 129.609L219.851 130.284L220.648 129.68ZM229.828 119.96L230.628 119.359L229.916 118.411L229.101 119.273L229.828 119.96ZM249.388 146V147H251.39L250.188 145.399L249.388 146ZM219.067 136.95L218.287 121.41L216.29 121.51L217.07 137.05L219.067 136.95ZM218.029 122.132L233.869 104.672L232.388 103.328L216.548 120.788L218.029 122.132ZM233.128 105H248.548V103H233.128V105ZM247.808 103.328L230.048 122.888L231.529 124.232L249.289 104.672L247.808 103.328ZM230.073 122.861L222.213 130.901L223.643 132.299L231.503 124.259L230.073 122.861ZM222.185 130.931L217.325 136.331L218.812 137.669L223.672 132.269L222.185 130.931ZM206.408 146V104H204.408V146H206.408ZM205.408 105H219.328V103H205.408V105ZM218.328 104V146H220.328V104H218.328ZM219.328 145H205.408V147H219.328V145ZM233.805 145.396L221.445 129.076L219.851 130.284L232.211 146.604L233.805 145.396ZM221.375 130.367L230.555 120.647L229.101 119.273L219.921 128.993L221.375 130.367ZM229.029 120.561L248.589 146.601L250.188 145.399L230.628 119.359L229.029 120.561ZM249.388 145H233.008V147H249.388V145ZM251.287 146H250.287V147H251.287V146ZM251.287 104V103H250.287V104H251.287ZM281.647 105.92L281.236 106.832L281.241 106.834L281.647 105.92ZM288.307 111.44L287.469 111.985L287.473 111.991L288.307 111.44ZM288.307 128.24L287.473 127.689L287.473 127.689L288.307 128.24ZM281.647 133.76L282.058 134.672L282.064 134.669L281.647 133.76ZM259.147 135.68L258.454 134.959L256.665 136.68H259.147V135.68ZM265.447 129.62H266.447V127.271L264.754 128.899L265.447 129.62ZM265.447 146V147H266.447V146H265.447ZM265.447 131.18L264.733 131.88L266.447 133.627V131.18H265.447ZM259.147 124.76V123.76H256.765L258.433 125.46L259.147 124.76ZM274.927 123.44L274.251 122.703L274.244 122.71L274.236 122.717L274.927 123.44ZM274.927 116.24L274.236 116.963L274.244 116.97L274.251 116.977L274.927 116.24ZM259.147 114.92L258.433 114.22L256.765 115.92H259.147V114.92ZM265.447 108.5H266.447V106.053L264.733 107.8L265.447 108.5ZM252.287 146V104H250.287V146H252.287ZM251.287 105H271.507V103H251.287V105ZM271.507 105C275.321 105 278.554 105.623 281.236 106.832L282.058 105.008C279.06 103.657 275.533 103 271.507 103V105ZM281.241 106.834C283.963 108.044 286.025 109.763 287.469 111.985L289.146 110.895C287.47 108.317 285.092 106.356 282.053 105.006L281.241 106.834ZM287.473 111.991C288.91 114.165 289.647 116.767 289.647 119.84H291.647C291.647 116.433 290.825 113.435 289.141 110.889L287.473 111.991ZM289.647 119.84C289.647 122.913 288.91 125.515 287.473 127.689L289.141 128.791C290.825 126.245 291.647 123.247 291.647 119.84H289.647ZM287.473 127.689C286.028 129.875 283.962 131.599 281.231 132.851L282.064 134.669C285.093 133.281 287.466 131.325 289.141 128.791L287.473 127.689ZM281.236 132.848C278.554 134.057 275.321 134.68 271.507 134.68V136.68C275.533 136.68 279.06 136.023 282.058 134.672L281.236 132.848ZM271.507 134.68H259.147V136.68H271.507V134.68ZM259.84 136.401L266.14 130.341L264.754 128.899L258.454 134.959L259.84 136.401ZM264.447 129.62V146H266.447V129.62H264.447ZM265.447 145H251.287V147H265.447V145ZM266.161 130.48L259.861 124.06L258.433 125.46L264.733 131.88L266.161 130.48ZM259.147 125.76H270.607V123.76H259.147V125.76ZM270.607 125.76C272.69 125.76 274.433 125.296 275.618 124.163L274.236 122.717C273.581 123.344 272.445 123.76 270.607 123.76V125.76ZM275.603 124.177C276.805 123.076 277.367 121.589 277.367 119.84H275.367C275.367 121.131 274.97 122.044 274.251 122.703L275.603 124.177ZM277.367 119.84C277.367 118.091 276.805 116.604 275.603 115.503L274.251 116.977C274.97 117.636 275.367 118.549 275.367 119.84H277.367ZM275.618 115.517C274.433 114.384 272.69 113.92 270.607 113.92V115.92C272.445 115.92 273.581 116.336 274.236 116.963L275.618 115.517ZM270.607 113.92H259.147V115.92H270.607V113.92ZM259.861 115.62L266.161 109.2L264.733 107.8L258.433 114.22L259.861 115.62ZM264.447 108.5V131.18H266.447V108.5H264.447ZM308.417 145.34L308.066 146.276L308.07 146.278L308.417 145.34ZM300.917 140.78L300.231 141.507L300.238 141.514L300.917 140.78ZM295.937 133.76L295.019 134.157L295.024 134.169L295.937 133.76ZM295.937 116.24L295.024 115.831L295.022 115.838L295.937 116.24ZM300.917 109.28L301.596 110.014L301.603 110.007L300.917 109.28ZM308.417 104.66L308.07 103.722L308.066 103.724L308.417 104.66ZM327.377 104.66L327.026 105.596L327.026 105.596L327.377 104.66ZM334.877 109.28L334.191 110.007L334.198 110.014L334.877 109.28ZM339.797 116.24L338.879 116.637L338.883 116.646L338.887 116.654L339.797 116.24ZM339.797 133.76L338.884 133.351L338.879 133.363L339.797 133.76ZM334.877 140.78L335.556 141.514L335.563 141.507L334.877 140.78ZM327.377 145.34L327.026 144.404L327.026 144.404L327.377 145.34ZM321.557 134.78L321.175 133.856L321.163 133.861L321.557 134.78ZM324.557 132.74L323.834 132.049L323.834 132.05L324.557 132.74ZM326.597 129.44L327.533 129.791L327.537 129.782L326.597 129.44ZM326.597 120.62L325.657 120.962L325.661 120.971L326.597 120.62ZM324.557 117.32L323.819 117.994L323.834 118.011L323.85 118.027L324.557 117.32ZM321.557 115.22L321.163 116.139L321.175 116.144L321.557 115.22ZM314.177 115.22L313.795 114.296L313.783 114.301L314.177 115.22ZM311.177 117.32L310.454 116.629L310.454 116.63L311.177 117.32ZM309.197 120.62L310.133 120.971L310.137 120.962L309.197 120.62ZM309.197 129.44L308.257 129.782L308.261 129.791L309.197 129.44ZM311.177 132.74L310.439 133.414L310.454 133.431L310.47 133.447L311.177 132.74ZM314.177 134.78L313.783 135.699L313.795 135.704L314.177 134.78ZM317.897 145.96C314.605 145.96 311.563 145.437 308.764 144.402L308.07 146.278C311.111 147.403 314.39 147.96 317.897 147.96V145.96ZM308.768 144.404C306.001 143.366 303.615 141.912 301.596 140.046L300.238 141.514C302.459 143.568 305.073 145.154 308.066 146.276L308.768 144.404ZM301.603 140.053C299.58 138.144 297.996 135.912 296.85 133.351L295.024 134.169C296.278 136.968 298.014 139.416 300.231 141.507L301.603 140.053ZM296.855 133.363C295.753 130.818 295.197 128.035 295.197 125H293.197C293.197 128.285 293.801 131.342 295.019 134.157L296.855 133.363ZM295.197 125C295.197 121.923 295.754 119.142 296.853 116.642L295.022 115.838C293.8 118.618 293.197 121.677 293.197 125H295.197ZM296.85 116.649C297.996 114.09 299.577 111.881 301.596 110.014L300.238 108.546C298.017 110.599 296.279 113.03 295.024 115.831L296.85 116.649ZM301.603 110.007C303.621 108.104 306.006 106.632 308.768 105.596L308.066 103.724C305.068 104.848 302.453 106.456 300.231 108.553L301.603 110.007ZM308.764 105.598C311.563 104.563 314.605 104.04 317.897 104.04V102.04C314.39 102.04 311.111 102.597 308.07 103.722L308.764 105.598ZM317.897 104.04C321.231 104.04 324.271 104.563 327.026 105.596L327.728 103.724C324.723 102.597 321.443 102.04 317.897 102.04V104.04ZM327.026 105.596C329.788 106.632 332.173 108.104 334.191 110.007L335.563 108.553C333.341 106.456 330.726 104.848 327.728 103.724L327.026 105.596ZM334.198 110.014C336.215 111.879 337.774 114.083 338.879 116.637L340.715 115.843C339.5 113.037 337.779 110.601 335.556 108.546L334.198 110.014ZM338.887 116.654C340.022 119.151 340.597 121.928 340.597 125H342.597C342.597 121.672 341.972 118.609 340.707 115.826L338.887 116.654ZM340.597 125C340.597 128.03 340.023 130.809 338.884 133.351L340.71 134.169C341.972 131.351 342.597 128.29 342.597 125H340.597ZM338.879 133.363C337.773 135.918 336.212 138.146 334.191 140.053L335.563 141.507C337.782 139.414 339.501 136.962 340.715 134.157L338.879 133.363ZM334.198 140.046C332.179 141.912 329.793 143.366 327.026 144.404L327.728 146.276C330.721 145.154 333.335 143.568 335.556 141.514L334.198 140.046ZM327.026 144.404C324.271 145.437 321.231 145.96 317.897 145.96V147.96C321.443 147.96 324.723 147.403 327.728 146.276L327.026 144.404ZM317.897 136.5C319.341 136.5 320.696 136.237 321.951 135.699L321.163 133.861C320.178 134.283 319.093 134.5 317.897 134.5V136.5ZM321.939 135.704C323.224 135.173 324.341 134.414 325.28 133.43L323.834 132.05C323.093 132.826 322.21 133.427 321.175 133.856L321.939 135.704ZM325.28 133.431C326.26 132.406 327.009 131.188 327.533 129.791L325.661 129.089C325.225 130.252 324.614 131.234 323.834 132.049L325.28 133.431ZM327.537 129.782C328.063 128.336 328.317 126.737 328.317 125H326.317C326.317 126.543 326.091 127.904 325.657 129.098L327.537 129.782ZM328.317 125C328.317 123.263 328.063 121.681 327.533 120.269L325.661 120.971C326.091 122.119 326.317 123.457 326.317 125H328.317ZM327.537 120.278C327.013 118.839 326.26 117.609 325.264 116.613L323.85 118.027C324.614 118.791 325.221 119.761 325.657 120.962L327.537 120.278ZM325.296 116.646C324.356 115.616 323.234 114.832 321.939 114.296L321.175 116.144C322.2 116.568 323.078 117.183 323.819 117.994L325.296 116.646ZM321.951 114.301C320.696 113.763 319.341 113.5 317.897 113.5V115.5C319.093 115.5 320.178 115.717 321.163 116.139L321.951 114.301ZM317.897 113.5C316.453 113.5 315.082 113.763 313.795 114.296L314.559 116.144C315.592 115.717 316.701 115.5 317.897 115.5V113.5ZM313.783 114.301C312.534 114.836 311.423 115.616 310.454 116.629L311.9 118.011C312.691 117.184 313.58 116.564 314.571 116.139L313.783 114.301ZM310.454 116.63C309.505 117.624 308.777 118.848 308.257 120.278L310.137 120.962C310.577 119.752 311.17 118.776 311.9 118.01L310.454 116.63ZM308.261 120.269C307.731 121.681 307.477 123.263 307.477 125H309.477C309.477 123.457 309.703 122.119 310.133 120.971L308.261 120.269ZM307.477 125C307.477 126.737 307.731 128.336 308.257 129.782L310.137 129.098C309.703 127.904 309.477 126.543 309.477 125H307.477ZM308.261 129.791C308.781 131.179 309.505 132.391 310.439 133.414L311.916 132.066C311.169 131.249 310.573 130.261 310.133 129.089L308.261 129.791ZM310.47 133.447C311.438 134.415 312.544 135.168 313.783 135.699L314.571 133.861C313.57 133.432 312.676 132.825 311.884 132.033L310.47 133.447ZM313.795 135.704C315.082 136.237 316.453 136.5 317.897 136.5V134.5C316.701 134.5 315.592 134.283 314.559 133.856L313.795 135.704ZM355.27 146H354.27V147H355.27V146ZM355.27 114.98H356.27V113.98H355.27V114.98ZM342.97 114.98H341.97V115.98H342.97V114.98ZM342.97 104V103H341.97V104H342.97ZM381.73 104H382.73V103H381.73V104ZM381.73 114.98V115.98H382.73V114.98H381.73ZM369.43 114.98V113.98H368.43V114.98H369.43ZM369.43 146V147H370.43V146H369.43ZM356.27 146V114.98H354.27V146H356.27ZM355.27 113.98H342.97V115.98H355.27V113.98ZM343.97 114.98V104H341.97V114.98H343.97ZM342.97 105H381.73V103H342.97V105ZM380.73 104V114.98H382.73V104H380.73ZM381.73 113.98H369.43V115.98H381.73V113.98ZM368.43 114.98V146H370.43V114.98H368.43ZM369.43 145H355.27V147H369.43V145Z" fill="#3579F4" mask="url(#path-3-outside-1_1_3957)"/>
<path d="M121.341 80V48.98H109.041V38H147.801V48.98H135.501V80H121.341ZM163.507 80L145.747 38H160.987L175.447 73.46H166.387L181.267 38H195.187L177.427 80H163.507ZM196.596 80V38H219.036C224.836 38 229.116 39.04 231.876 41.12C234.636 43.16 236.016 45.78 236.016 48.98C236.016 51.1 235.416 53 234.216 54.68C233.056 56.32 231.356 57.62 229.116 58.58C226.876 59.54 224.116 60.02 220.836 60.02L222.036 56.78C225.316 56.78 228.136 57.24 230.496 58.16C232.896 59.08 234.736 60.42 236.016 62.18C237.336 63.9 237.996 65.98 237.996 68.42C237.996 72.06 236.476 74.9 233.436 76.94C230.436 78.98 226.036 80 220.236 80H196.596ZM210.516 70.1H219.036C220.596 70.1 221.756 69.82 222.516 69.26C223.316 68.7 223.716 67.88 223.716 66.8C223.716 65.72 223.316 64.9 222.516 64.34C221.756 63.78 220.596 63.5 219.036 63.5H209.556V54.14H217.116C218.716 54.14 219.876 53.88 220.596 53.36C221.356 52.8 221.736 52.02 221.736 51.02C221.736 49.98 221.356 49.2 220.596 48.68C219.876 48.16 218.716 47.9 217.116 47.9H210.516V70.1ZM255.962 53.6H274.682V63.8H255.962V53.6ZM256.922 69.32H277.922V80H243.002V38H277.142V48.68H256.922V69.32ZM292.493 80V48.98H280.193V38H318.953V48.98H306.653V80H292.493ZM84.0517 140.96C80.7717 140.96 77.8117 140.44 75.1717 139.4C72.5317 138.32 70.3317 136.76 68.5717 134.72L76.1917 125.72C77.3117 127.08 78.4117 128.12 79.4917 128.84C80.5717 129.52 81.6917 129.86 82.8517 129.86C85.8917 129.86 87.4117 128.12 87.4117 124.64V108.68H73.1317V98H101.392V123.8C101.392 129.56 99.9117 133.86 96.9517 136.7C93.9917 139.54 89.6917 140.96 84.0517 140.96ZM102.446 140L120.806 98H134.726L153.086 140H138.446L124.886 104.72H130.406L116.846 140H102.446ZM113.366 132.68L116.966 122.48H136.286L139.886 132.68H113.366ZM176.48 140.96C173.12 140.96 170 140.44 167.12 139.4C164.28 138.32 161.8 136.8 159.68 134.84C157.6 132.88 155.98 130.56 154.82 127.88C153.66 125.2 153.08 122.24 153.08 119C153.08 115.76 153.66 112.8 154.82 110.12C155.98 107.44 157.6 105.12 159.68 103.16C161.8 101.2 164.28 99.7 167.12 98.66C170 97.58 173.12 97.04 176.48 97.04C180.6 97.04 184.24 97.76 187.4 99.2C190.6 100.64 193.24 102.72 195.32 105.44L186.38 113.42C185.14 111.86 183.76 110.66 182.24 109.82C180.76 108.94 179.08 108.5 177.2 108.5C175.72 108.5 174.38 108.74 173.18 109.22C171.98 109.7 170.94 110.4 170.06 111.32C169.22 112.24 168.56 113.36 168.08 114.68C167.6 115.96 167.36 117.4 167.36 119C167.36 120.6 167.6 122.06 168.08 123.38C168.56 124.66 169.22 125.76 170.06 126.68C170.94 127.6 171.98 128.3 173.18 128.78C174.38 129.26 175.72 129.5 177.2 129.5C179.08 129.5 180.76 129.08 182.24 128.24C183.76 127.36 185.14 126.14 186.38 124.58L195.32 132.56C193.24 135.24 190.6 137.32 187.4 138.8C184.24 140.24 180.6 140.96 176.48 140.96ZM212.068 131L211.288 115.46L227.128 98H242.548L224.788 117.56L216.928 125.6L212.068 131ZM199.408 140V98H213.328V140H199.408ZM227.008 140L214.648 123.68L223.828 113.96L243.388 140H227.008ZM245.287 140V98H265.507C269.427 98 272.807 98.64 275.647 99.92C278.527 101.2 280.747 103.04 282.307 105.44C283.867 107.8 284.647 110.6 284.647 113.84C284.647 117.08 283.867 119.88 282.307 122.24C280.747 124.6 278.527 126.44 275.647 127.76C272.807 129.04 269.427 129.68 265.507 129.68H253.147L259.447 123.62V140H245.287ZM259.447 125.18L253.147 118.76H264.607C266.567 118.76 268.007 118.32 268.927 117.44C269.887 116.56 270.367 115.36 270.367 113.84C270.367 112.32 269.887 111.12 268.927 110.24C268.007 109.36 266.567 108.92 264.607 108.92H253.147L259.447 102.5V125.18ZM311.897 140.96C308.497 140.96 305.337 140.42 302.417 139.34C299.537 138.26 297.037 136.74 294.917 134.78C292.797 132.78 291.137 130.44 289.937 127.76C288.777 125.08 288.197 122.16 288.197 119C288.197 115.8 288.777 112.88 289.937 110.24C291.137 107.56 292.797 105.24 294.917 103.28C297.037 101.28 299.537 99.74 302.417 98.66C305.337 97.58 308.497 97.04 311.897 97.04C315.337 97.04 318.497 97.58 321.377 98.66C324.257 99.74 326.757 101.28 328.877 103.28C330.997 105.24 332.637 107.56 333.797 110.24C334.997 112.88 335.597 115.8 335.597 119C335.597 122.16 334.997 125.08 333.797 127.76C332.637 130.44 330.997 132.78 328.877 134.78C326.757 136.74 324.257 138.26 321.377 139.34C318.497 140.42 315.337 140.96 311.897 140.96ZM311.897 129.5C313.217 129.5 314.437 129.26 315.557 128.78C316.717 128.3 317.717 127.62 318.557 126.74C319.437 125.82 320.117 124.72 320.597 123.44C321.077 122.12 321.317 120.64 321.317 119C321.317 117.36 321.077 115.9 320.597 114.62C320.117 113.3 319.437 112.2 318.557 111.32C317.717 110.4 316.717 109.7 315.557 109.22C314.437 108.74 313.217 108.5 311.897 108.5C310.577 108.5 309.337 108.74 308.177 109.22C307.057 109.7 306.057 110.4 305.177 111.32C304.337 112.2 303.677 113.3 303.197 114.62C302.717 115.9 302.477 117.36 302.477 119C302.477 120.64 302.717 122.12 303.197 123.44C303.677 124.72 304.337 125.82 305.177 126.74C306.057 127.62 307.057 128.3 308.177 128.78C309.337 129.26 310.577 129.5 311.897 129.5ZM349.27 140V108.98H336.97V98H375.73V108.98H363.43V140H349.27Z" fill="#010204"/>
<path d="M127.335 77V45.98H115.035V35H153.795V45.98H141.495V77H127.335ZM169.501 77L151.741 35H166.981L181.441 70.46H172.381L187.261 35H201.181L183.421 77H169.501ZM202.59 77V35H225.03C230.83 35 235.11 36.04 237.87 38.12C240.63 40.16 242.01 42.78 242.01 45.98C242.01 48.1 241.41 50 240.21 51.68C239.05 53.32 237.35 54.62 235.11 55.58C232.87 56.54 230.11 57.02 226.83 57.02L228.03 53.78C231.31 53.78 234.13 54.24 236.49 55.16C238.89 56.08 240.73 57.42 242.01 59.18C243.33 60.9 243.99 62.98 243.99 65.42C243.99 69.06 242.47 71.9 239.43 73.94C236.43 75.98 232.03 77 226.23 77H202.59ZM216.51 67.1H225.03C226.59 67.1 227.75 66.82 228.51 66.26C229.31 65.7 229.71 64.88 229.71 63.8C229.71 62.72 229.31 61.9 228.51 61.34C227.75 60.78 226.59 60.5 225.03 60.5H215.55V51.14H223.11C224.71 51.14 225.87 50.88 226.59 50.36C227.35 49.8 227.73 49.02 227.73 48.02C227.73 46.98 227.35 46.2 226.59 45.68C225.87 45.16 224.71 44.9 223.11 44.9H216.51V67.1ZM261.956 50.6H280.676V60.8H261.956V50.6ZM262.916 66.32H283.916V77H248.996V35H283.136V45.68H262.916V66.32ZM298.487 77V45.98H286.187V35H324.947V45.98H312.647V77H298.487ZM81.0517 137.96C77.7717 137.96 74.8117 137.44 72.1717 136.4C69.5317 135.32 67.3317 133.76 65.5717 131.72L73.1917 122.72C74.3117 124.08 75.4117 125.12 76.4917 125.84C77.5717 126.52 78.6917 126.86 79.8517 126.86C82.8917 126.86 84.4117 125.12 84.4117 121.64V105.68H70.1317V95H98.3917V120.8C98.3917 126.56 96.9117 130.86 93.9517 133.7C90.9917 136.54 86.6917 137.96 81.0517 137.96ZM99.4459 137L117.806 95H131.726L150.086 137H135.446L121.886 101.72H127.406L113.846 137H99.4459ZM110.366 129.68L113.966 119.48H133.286L136.886 129.68H110.366ZM173.48 137.96C170.12 137.96 167 137.44 164.12 136.4C161.28 135.32 158.8 133.8 156.68 131.84C154.6 129.88 152.98 127.56 151.82 124.88C150.66 122.2 150.08 119.24 150.08 116C150.08 112.76 150.66 109.8 151.82 107.12C152.98 104.44 154.6 102.12 156.68 100.16C158.8 98.2 161.28 96.7 164.12 95.66C167 94.58 170.12 94.04 173.48 94.04C177.6 94.04 181.24 94.76 184.4 96.2C187.6 97.64 190.24 99.72 192.32 102.44L183.38 110.42C182.14 108.86 180.76 107.66 179.24 106.82C177.76 105.94 176.08 105.5 174.2 105.5C172.72 105.5 171.38 105.74 170.18 106.22C168.98 106.7 167.94 107.4 167.06 108.32C166.22 109.24 165.56 110.36 165.08 111.68C164.6 112.96 164.36 114.4 164.36 116C164.36 117.6 164.6 119.06 165.08 120.38C165.56 121.66 166.22 122.76 167.06 123.68C167.94 124.6 168.98 125.3 170.18 125.78C171.38 126.26 172.72 126.5 174.2 126.5C176.08 126.5 177.76 126.08 179.24 125.24C180.76 124.36 182.14 123.14 183.38 121.58L192.32 129.56C190.24 132.24 187.6 134.32 184.4 135.8C181.24 137.24 177.6 137.96 173.48 137.96ZM209.068 128L208.288 112.46L224.128 95H239.548L221.788 114.56L213.928 122.6L209.068 128ZM196.408 137V95H210.328V137H196.408ZM224.008 137L211.648 120.68L220.828 110.96L240.388 137H224.008ZM242.287 137V95H262.507C266.427 95 269.807 95.64 272.647 96.92C275.527 98.2 277.747 100.04 279.307 102.44C280.867 104.8 281.647 107.6 281.647 110.84C281.647 114.08 280.867 116.88 279.307 119.24C277.747 121.6 275.527 123.44 272.647 124.76C269.807 126.04 266.427 126.68 262.507 126.68H250.147L256.447 120.62V137H242.287ZM256.447 122.18L250.147 115.76H261.607C263.567 115.76 265.007 115.32 265.927 114.44C266.887 113.56 267.367 112.36 267.367 110.84C267.367 109.32 266.887 108.12 265.927 107.24C265.007 106.36 263.567 105.92 261.607 105.92H250.147L256.447 99.5V122.18ZM308.897 137.96C305.497 137.96 302.337 137.42 299.417 136.34C296.537 135.26 294.037 133.74 291.917 131.78C289.797 129.78 288.137 127.44 286.937 124.76C285.777 122.08 285.197 119.16 285.197 116C285.197 112.8 285.777 109.88 286.937 107.24C288.137 104.56 289.797 102.24 291.917 100.28C294.037 98.28 296.537 96.74 299.417 95.66C302.337 94.58 305.497 94.04 308.897 94.04C312.337 94.04 315.497 94.58 318.377 95.66C321.257 96.74 323.757 98.28 325.877 100.28C327.997 102.24 329.637 104.56 330.797 107.24C331.997 109.88 332.597 112.8 332.597 116C332.597 119.16 331.997 122.08 330.797 124.76C329.637 127.44 327.997 129.78 325.877 131.78C323.757 133.74 321.257 135.26 318.377 136.34C315.497 137.42 312.337 137.96 308.897 137.96ZM308.897 126.5C310.217 126.5 311.437 126.26 312.557 125.78C313.717 125.3 314.717 124.62 315.557 123.74C316.437 122.82 317.117 121.72 317.597 120.44C318.077 119.12 318.317 117.64 318.317 116C318.317 114.36 318.077 112.9 317.597 111.62C317.117 110.3 316.437 109.2 315.557 108.32C314.717 107.4 313.717 106.7 312.557 106.22C311.437 105.74 310.217 105.5 308.897 105.5C307.577 105.5 306.337 105.74 305.177 106.22C304.057 106.7 303.057 107.4 302.177 108.32C301.337 109.2 300.677 110.3 300.197 111.62C299.717 112.9 299.477 114.36 299.477 116C299.477 117.64 299.717 119.12 300.197 120.44C300.677 121.72 301.337 122.82 302.177 123.74C303.057 124.62 304.057 125.3 305.177 125.78C306.337 126.26 307.577 126.5 308.897 126.5ZM346.27 137V105.98H333.97V95H372.73V105.98H360.43V137H346.27Z" fill="#F5F5F6"/>
<path d="M73.6013 59.7576L73.6209 60.2163L74.0796 60.2359L90.0991 60.9186L74.0796 61.6013L73.6209 61.6209L73.6013 62.0796L72.9186 78.0991L72.2359 62.0796L72.2163 61.6209L71.7576 61.6013L55.7406 60.9186L71.7576 60.2359L72.2163 60.2163L72.2359 59.7576L72.9186 43.7406L73.6013 59.7576Z" stroke="#82C8E3"/>
<path d="M76.7639 62.9206L76.7834 63.3793L77.2421 63.3989L93.2591 64.0816L77.2421 64.7643L76.7834 64.7839L76.7639 65.2426L76.0811 81.2596L75.3984 65.2426L75.3788 64.7839L74.9201 64.7643L58.9006 64.0816L74.9201 63.3989L75.3788 63.3793L75.3984 62.9206L76.0811 46.9011L76.7639 62.9206Z" stroke="#82C8E3"/>
<path d="M384.601 134.758L384.621 135.216L385.08 135.236L401.099 135.919L385.08 136.601L384.621 136.621L384.601 137.08L383.919 153.099L383.236 137.08L383.216 136.621L382.758 136.601L366.741 135.919L382.758 135.236L383.216 135.216L383.236 134.758L383.919 118.741L384.601 134.758Z" stroke="#82C8E3"/>
<path d="M387.764 137.921L387.783 138.379L388.242 138.399L404.259 139.082L388.242 139.764L387.783 139.784L387.764 140.243L387.081 156.26L386.398 140.243L386.379 139.784L385.92 139.764L369.901 139.082L385.92 138.399L386.379 138.379L386.398 137.921L387.081 121.901L387.764 137.921Z" stroke="#82C8E3"/>
<path fill-rule="evenodd" clip-rule="evenodd" d="M36 101C37.6832 122.882 35.2608 121.48 55 111.999C36.944 124.4 36.944 121.6 55 134.001C35.2608 124.52 37.6782 123.118 36 145C34.3168 123.118 36.7392 124.52 17 134.001C35.056 121.6 35.056 124.4 17 111.999C36.7392 121.48 34.3218 122.882 36 101ZM29.5868 126.719C31.0452 126.233 32.6485 125.963 33.8872 126.679C35.1259 127.395 35.6953 128.923 36.005 130.43C36.3147 128.923 36.8841 127.395 38.1228 126.679C39.3615 125.963 40.9648 126.228 42.4232 126.719C41.2744 125.697 40.2405 124.44 40.2405 123.003C40.2405 121.565 41.2744 120.308 42.4232 119.286C40.9648 119.772 39.3665 120.042 38.1228 119.326C36.8841 118.61 36.3147 117.082 36.005 115.575C35.7003 117.082 35.1259 118.61 33.8872 119.326C32.6485 120.042 31.0452 119.777 29.5868 119.286C30.7355 120.308 31.7695 121.565 31.7695 123.003C31.7695 124.44 30.7355 125.697 29.5868 126.719Z" fill="#FADE0A"/>
<path fill-rule="evenodd" clip-rule="evenodd" d="M379.124 18.458C388.529 38.2875 385.765 37.8453 400.802 21.9261C388.382 39.9692 387.38 37.3549 408.679 42.4704C386.854 40.684 388.609 38.5091 394.876 59.542C385.47 39.7125 388.234 40.1547 373.197 56.0739C385.617 38.0308 386.62 40.645 365.321 35.5296C387.146 37.316 385.391 39.4909 379.124 18.458ZM382.343 44.7682C383.531 43.7925 384.931 42.966 386.344 43.1913C387.757 43.4166 388.836 44.6392 389.664 45.9359C389.414 44.4174 389.399 42.7872 390.299 41.675C391.199 40.5628 392.791 40.2367 394.329 40.1729C392.89 39.6302 391.475 38.8265 390.96 37.4843C390.446 36.1421 390.961 34.5981 391.668 33.2329C390.48 34.2086 389.084 35.0333 387.667 34.8098C386.254 34.5845 385.175 33.3619 384.346 32.0651C384.602 33.5819 384.612 35.2139 383.712 36.3261C382.812 37.4382 381.22 37.7643 379.682 37.8282C381.121 38.3709 382.536 39.1746 383.051 40.5168C383.565 41.859 383.05 43.403 382.343 44.7682Z" fill="#FADE0A"/>
<path fill-rule="evenodd" clip-rule="evenodd" d="M40 164.5C51.3169 164.018 56.9784 164.236 59.8875 162.251C58.6956 160.03 55.8418 157.244 51.3261 152.326C56.2442 156.842 59.0304 159.696 61.2514 160.887C63.2358 157.975 63.0177 152.317 63.5 141C63.9823 152.317 63.7642 157.978 65.7486 160.887C67.9696 159.696 70.7558 156.842 75.6739 152.326C71.1582 157.244 68.3044 160.03 67.1126 162.251C70.0247 164.236 75.6831 164.018 87 164.5C75.6831 164.982 70.0216 164.764 67.1126 166.749C68.3044 168.97 71.1582 171.756 75.6739 176.674C70.7558 172.158 67.9696 169.304 65.7486 168.113C63.7642 171.025 63.9823 176.683 63.5 188C63.0177 176.683 63.2358 171.022 61.2514 168.113C59.0304 169.304 56.2442 172.158 51.3261 176.674C55.8418 171.756 58.6956 168.97 59.8875 166.749C56.9753 164.764 51.3169 164.982 40 164.5Z" fill="#FADE0A"/>
<path fill-rule="evenodd" clip-rule="evenodd" d="M16.8086 46.6714C23.5092 42.2663 27.0282 40.3416 28.0746 38.0788C26.5434 37.1625 23.7971 36.5067 19.2664 35.1594C23.8954 36.1159 26.6252 36.8374 28.4077 36.7545C28.5552 34.2641 26.3666 30.9055 22.5474 23.8544C26.9526 30.555 28.8773 34.074 31.1401 35.1204C32.0564 33.5892 32.7122 30.8429 34.0594 26.3122C33.1029 30.9412 32.3815 33.671 32.4643 35.4535C34.9548 35.601 38.3134 33.4124 45.3644 29.5932C38.6639 33.9984 35.1449 35.9231 34.0985 38.1858C35.6297 39.1022 38.376 39.758 42.9066 41.1052C38.2777 40.1487 35.5479 39.4273 33.7654 39.5101C33.6179 42.0005 35.8065 45.3592 39.6257 52.4102C35.2205 45.7097 33.2958 42.1907 31.033 41.1443C30.1167 42.6755 29.4609 45.4218 28.1136 49.9524C29.0701 45.3235 29.7916 42.5937 29.7087 40.8112C27.2183 40.6637 23.8597 42.8523 16.8086 46.6714Z" fill="#82C8E3"/>
<path fill-rule="evenodd" clip-rule="evenodd" d="M346.878 169.584C351.49 166.552 353.912 165.227 354.633 163.669C353.579 163.039 351.688 162.587 348.57 161.66C351.756 162.318 353.635 162.815 354.862 162.758C354.964 161.043 353.457 158.732 350.828 153.878C353.86 158.49 355.185 160.913 356.743 161.633C357.374 160.579 357.825 158.688 358.752 155.57C358.094 158.756 357.597 160.635 357.654 161.862C359.369 161.964 361.681 160.457 366.534 157.828C361.922 160.861 359.5 162.185 358.779 163.743C359.833 164.374 361.724 164.825 364.842 165.753C361.656 165.094 359.777 164.597 358.55 164.655C358.448 166.369 359.955 168.681 362.584 173.534C359.552 168.922 358.227 166.5 356.669 165.779C356.038 166.833 355.587 168.724 354.66 171.842C355.318 168.656 355.815 166.777 355.758 165.55C354.043 165.449 351.731 166.955 346.878 169.584Z" fill="#FADE0A"/>
<path fill-rule="evenodd" clip-rule="evenodd" d="M396.181 70.8172C404.192 70.4758 408.2 70.6302 410.26 69.2253C409.416 67.653 407.396 65.6805 404.199 62.1988C407.681 65.3957 409.653 67.416 411.225 68.2597C412.63 66.1981 412.476 62.1923 412.817 54.1807C413.159 62.1923 413.004 66.2003 414.409 68.2597C415.981 67.416 417.954 65.3957 421.436 62.1988C418.239 65.6805 416.218 67.653 415.375 69.2253C417.436 70.6302 421.442 70.4758 429.454 70.8172C421.442 71.1586 417.434 71.0042 415.375 72.4091C416.218 73.9814 418.239 75.9539 421.436 79.4356C417.954 76.2388 415.981 74.2185 414.409 73.3747C413.004 75.4363 413.159 79.4421 412.817 87.4538C412.476 79.4421 412.63 75.4341 411.225 73.3747C409.653 74.2185 407.681 76.2388 404.199 79.4356C407.396 75.9539 409.416 73.9814 410.26 72.4091C408.198 71.0042 404.192 71.1586 396.181 70.8172Z" fill="#82C8E3"/>
<defs>
<linearGradient id="paint0_linear_1_3957" x1="263" y1="-20.5319" x2="263" y2="205" gradientUnits="userSpaceOnUse">
<stop stop-color="#1A2E5C"/>
<stop offset="1" stop-color="#0F1321"/>
</linearGradient>
</defs>
</svg>
