<svg width="440" height="205" viewBox="0 0 440 205" fill="none" xmlns="http://www.w3.org/2000/svg">
<rect width="440" height="204" rx="50" fill="#8BCB1E"/>
<rect y="5" width="440" height="200" rx="50" fill="url(#paint0_linear_1_3896)"/>
<mask id="path-3-outside-1_1_3896" maskUnits="userSpaceOnUse" x="77" y="42" width="308" height="105" fill="black">
<rect fill="white" x="77" y="42" width="308" height="105"/>
<path d="M114.396 86.96C111.036 86.96 107.916 86.44 105.036 85.4C102.196 84.32 99.7159 82.8 97.5959 80.84C95.5159 78.88 93.8959 76.56 92.7359 73.88C91.5759 71.2 90.9959 68.24 90.9959 65C90.9959 61.76 91.5759 58.8 92.7359 56.12C93.8959 53.44 95.5159 51.12 97.5959 49.16C99.7159 47.2 102.196 45.7 105.036 44.66C107.916 43.58 111.036 43.04 114.396 43.04C118.516 43.04 122.156 43.76 125.316 45.2C128.516 46.64 131.156 48.72 133.236 51.44L124.296 59.42C123.056 57.86 121.676 56.66 120.156 55.82C118.676 54.94 116.996 54.5 115.116 54.5C113.636 54.5 112.296 54.74 111.096 55.22C109.896 55.7 108.856 56.4 107.976 57.32C107.136 58.24 106.476 59.36 105.996 60.68C105.516 61.96 105.276 63.4 105.276 65C105.276 66.6 105.516 68.06 105.996 69.38C106.476 70.66 107.136 71.76 107.976 72.68C108.856 73.6 109.896 74.3 111.096 74.78C112.296 75.26 113.636 75.5 115.116 75.5C116.996 75.5 118.676 75.08 120.156 74.24C121.676 73.36 123.056 72.14 124.296 70.58L133.236 78.56C131.156 81.24 128.516 83.32 125.316 84.8C122.156 86.24 118.516 86.96 114.396 86.96ZM137.324 86V44H157.544C161.464 44 164.844 44.64 167.684 45.92C170.564 47.2 172.784 49.04 174.344 51.44C175.904 53.8 176.684 56.6 176.684 59.84C176.684 63.08 175.904 65.88 174.344 68.24C172.784 70.56 170.564 72.34 167.684 73.58C164.844 74.82 161.464 75.44 157.544 75.44H145.184L151.484 69.62V86H137.324ZM162.464 86L152.144 70.7H167.144L177.584 86H162.464ZM151.484 71.18L145.184 64.76H156.644C158.604 64.76 160.044 64.32 160.964 63.44C161.924 62.56 162.404 61.36 162.404 59.84C162.404 58.32 161.924 57.12 160.964 56.24C160.044 55.36 158.604 54.92 156.644 54.92H145.184L151.484 48.5V71.18ZM182.031 86V44H196.191V86H182.031ZM224.728 86.96C221.368 86.96 218.248 86.44 215.368 85.4C212.528 84.32 210.048 82.8 207.928 80.84C205.848 78.88 204.228 76.56 203.068 73.88C201.908 71.2 201.328 68.24 201.328 65C201.328 61.76 201.908 58.8 203.068 56.12C204.228 53.44 205.848 51.12 207.928 49.16C210.048 47.2 212.528 45.7 215.368 44.66C218.248 43.58 221.368 43.04 224.728 43.04C228.848 43.04 232.488 43.76 235.648 45.2C238.848 46.64 241.488 48.72 243.568 51.44L234.628 59.42C233.388 57.86 232.008 56.66 230.488 55.82C229.008 54.94 227.328 54.5 225.448 54.5C223.968 54.5 222.628 54.74 221.428 55.22C220.228 55.7 219.188 56.4 218.308 57.32C217.468 58.24 216.808 59.36 216.328 60.68C215.848 61.96 215.608 63.4 215.608 65C215.608 66.6 215.848 68.06 216.328 69.38C216.808 70.66 217.468 71.76 218.308 72.68C219.188 73.6 220.228 74.3 221.428 74.78C222.628 75.26 223.968 75.5 225.448 75.5C227.328 75.5 229.008 75.08 230.488 74.24C232.008 73.36 233.388 72.14 234.628 70.58L243.568 78.56C241.488 81.24 238.848 83.32 235.648 84.8C232.488 86.24 228.848 86.96 224.728 86.96ZM260.316 77L259.536 61.46L275.376 44H290.796L273.036 63.56L265.176 71.6L260.316 77ZM247.656 86V44H261.576V86H247.656ZM275.256 86L262.896 69.68L272.076 59.96L291.636 86H275.256ZM306.495 59.6H325.215V69.8H306.495V59.6ZM307.455 75.32H328.455V86H293.535V44H327.675V54.68H307.455V75.32ZM343.026 86V54.98H330.726V44H369.486V54.98H357.186V86H343.026ZM92.077 121.88H110.557V132.56H92.077V121.88ZM93.037 146H78.877V104H113.017V114.68H93.037V146ZM117.49 146V104H137.71C141.63 104 145.01 104.64 147.85 105.92C150.73 107.2 152.95 109.04 154.51 111.44C156.07 113.8 156.85 116.6 156.85 119.84C156.85 123.08 156.07 125.88 154.51 128.24C152.95 130.56 150.73 132.34 147.85 133.58C145.01 134.82 141.63 135.44 137.71 135.44H125.35L131.65 129.62V146H117.49ZM142.63 146L132.31 130.7H147.31L157.75 146H142.63ZM131.65 131.18L125.35 124.76H136.81C138.77 124.76 140.21 124.32 141.13 123.44C142.09 122.56 142.57 121.36 142.57 119.84C142.57 118.32 142.09 117.12 141.13 116.24C140.21 115.36 138.77 114.92 136.81 114.92H125.35L131.65 108.5V131.18ZM175.157 119.6H193.877V129.8H175.157V119.6ZM176.117 135.32H197.117V146H162.197V104H196.337V114.68H176.117V135.32ZM215.528 119.6H234.248V129.8H215.528V119.6ZM216.488 135.32H237.488V146H202.568V104H236.708V114.68H216.488V135.32ZM260.928 146V104H283.368C289.168 104 293.448 105.04 296.208 107.12C298.968 109.16 300.348 111.78 300.348 114.98C300.348 117.1 299.748 119 298.548 120.68C297.388 122.32 295.688 123.62 293.448 124.58C291.208 125.54 288.448 126.02 285.168 126.02L286.368 122.78C289.648 122.78 292.468 123.24 294.828 124.16C297.228 125.08 299.068 126.42 300.348 128.18C301.668 129.9 302.328 131.98 302.328 134.42C302.328 138.06 300.808 140.9 297.768 142.94C294.768 144.98 290.368 146 284.568 146H260.928ZM274.848 136.1H283.368C284.928 136.1 286.088 135.82 286.848 135.26C287.648 134.7 288.048 133.88 288.048 132.8C288.048 131.72 287.648 130.9 286.848 130.34C286.088 129.78 284.928 129.5 283.368 129.5H273.888V120.14H281.448C283.048 120.14 284.208 119.88 284.928 119.36C285.688 118.8 286.068 118.02 286.068 117.02C286.068 115.98 285.688 115.2 284.928 114.68C284.208 114.16 283.048 113.9 281.448 113.9H274.848V136.1ZM320.294 119.6H339.014V129.8H320.294V119.6ZM321.254 135.32H342.254V146H307.334V104H341.474V114.68H321.254V135.32ZM356.825 146V114.98H344.525V104H383.285V114.98H370.985V146H356.825Z"/>
</mask>
<path d="M105.036 85.4L104.68 86.3347L104.688 86.3377L104.696 86.3406L105.036 85.4ZM97.5959 80.84L96.91 81.5678L96.917 81.5743L97.5959 80.84ZM92.7359 73.88L91.8181 74.2772L91.8181 74.2772L92.7359 73.88ZM92.7359 56.12L91.8181 55.7228L91.8181 55.7228L92.7359 56.12ZM97.5959 49.16L96.917 48.4257L96.9101 48.4322L97.5959 49.16ZM105.036 44.66L105.38 45.599L105.387 45.5963L105.036 44.66ZM125.316 45.2L124.901 46.11L124.905 46.1119L125.316 45.2ZM133.236 51.44L133.902 52.186L134.593 51.5688L134.03 50.8325L133.236 51.44ZM124.296 59.42L123.513 60.0422L124.172 60.8711L124.962 60.166L124.296 59.42ZM120.156 55.82L119.645 56.6795L119.658 56.6876L119.672 56.6952L120.156 55.82ZM111.096 55.22L111.467 56.1485L111.467 56.1485L111.096 55.22ZM107.976 57.32L107.253 56.6288L107.245 56.6372L107.237 56.6457L107.976 57.32ZM105.996 60.68L106.932 61.0311L106.936 61.0217L105.996 60.68ZM105.996 69.38L105.056 69.7218L105.06 69.7311L105.996 69.38ZM107.976 72.68L107.237 73.3543L107.245 73.3628L107.253 73.3712L107.976 72.68ZM111.096 74.78L110.724 75.7085L110.724 75.7085L111.096 74.78ZM120.156 74.24L120.649 75.1097L120.657 75.1054L120.156 74.24ZM124.296 70.58L124.962 69.834L124.172 69.1289L123.513 69.9578L124.296 70.58ZM133.236 78.56L134.026 79.1731L134.598 78.4356L133.902 77.814L133.236 78.56ZM125.316 84.8L125.731 85.71L125.736 85.7076L125.316 84.8ZM114.396 85.96C111.14 85.96 108.136 85.4565 105.376 84.4594L104.696 86.3406C107.695 87.4235 110.931 87.96 114.396 87.96V85.96ZM105.391 84.4653C102.665 83.4284 100.296 81.9743 98.2747 80.1057L96.917 81.5743C99.1359 83.6257 101.727 85.2116 104.68 86.3347L105.391 84.4653ZM98.2817 80.1122C96.3028 78.2475 94.7608 76.0408 93.6536 73.4828L91.8181 74.2772C93.031 77.0792 94.7289 79.5125 96.9101 81.5678L98.2817 80.1122ZM93.6536 73.4828C92.5535 70.9413 91.9959 68.1184 91.9959 65H89.9959C89.9959 68.3616 90.5982 71.4587 91.8181 74.2772L93.6536 73.4828ZM91.9959 65C91.9959 61.8816 92.5535 59.0587 93.6536 56.5172L91.8181 55.7228C90.5982 58.5413 89.9959 61.6384 89.9959 65H91.9959ZM93.6536 56.5172C94.7608 53.9592 96.3028 51.7525 98.2817 49.8878L96.9101 48.4322C94.7289 50.4875 93.031 52.9208 91.8181 55.7228L93.6536 56.5172ZM98.2747 49.8943C100.293 48.0282 102.658 46.5958 105.38 45.599L104.692 43.721C101.734 44.8042 99.1386 46.3718 96.917 48.4257L98.2747 49.8943ZM105.387 45.5963C108.145 44.5622 111.145 44.04 114.396 44.04V42.04C110.927 42.04 107.687 42.5978 104.685 43.7237L105.387 45.5963ZM114.396 44.04C118.399 44.04 121.893 44.7393 124.901 46.11L125.731 44.29C122.418 42.7807 118.633 42.04 114.396 42.04V44.04ZM124.905 46.1119C127.958 47.4856 130.465 49.4626 132.442 52.0474L134.03 50.8325C131.847 47.9774 129.074 45.7944 125.726 44.2881L124.905 46.1119ZM132.57 50.694L123.63 58.674L124.962 60.166L133.902 52.186L132.57 50.694ZM125.079 58.7978C123.769 57.1496 122.291 55.8573 120.64 54.9448L119.672 56.6952C121.061 57.4627 122.343 58.5704 123.513 60.0422L125.079 58.7978ZM120.667 54.9605C119.018 53.9802 117.159 53.5 115.116 53.5V55.5C116.833 55.5 118.333 55.8998 119.645 56.6795L120.667 54.9605ZM115.116 53.5C113.527 53.5 112.058 53.7579 110.724 54.2915L111.467 56.1485C112.533 55.7221 113.745 55.5 115.116 55.5V53.5ZM110.724 54.2915C109.394 54.8238 108.234 55.6039 107.253 56.6288L108.699 58.0112C109.478 57.1961 110.398 56.5762 111.467 56.1485L110.724 54.2915ZM107.237 56.6457C106.299 57.6739 105.575 58.9109 105.056 60.3383L106.936 61.0217C107.377 59.8091 107.973 58.8061 108.714 57.9943L107.237 56.6457ZM105.06 60.3289C104.531 61.7385 104.276 63.3001 104.276 65H106.276C106.276 63.4999 106.501 62.1815 106.932 61.0311L105.06 60.3289ZM104.276 65C104.276 66.7005 104.531 68.2781 105.056 69.7217L106.936 69.0383C106.501 67.8419 106.276 66.4995 106.276 65H104.276ZM105.06 69.7311C105.58 71.1188 106.303 72.3314 107.237 73.3543L108.714 72.0057C107.968 71.1886 107.372 70.2012 106.932 69.0289L105.06 69.7311ZM107.253 73.3712C108.234 74.3961 109.394 75.1762 110.724 75.7085L111.467 73.8515C110.398 73.4238 109.478 72.8039 108.699 71.9888L107.253 73.3712ZM110.724 75.7085C112.058 76.2421 113.527 76.5 115.116 76.5V74.5C113.745 74.5 112.533 74.2779 111.467 73.8515L110.724 75.7085ZM115.116 76.5C117.15 76.5 119.004 76.0438 120.649 75.1097L119.662 73.3703C118.348 74.1162 116.841 74.5 115.116 74.5V76.5ZM120.657 75.1054C122.299 74.1548 123.771 72.8471 125.079 71.2022L123.513 69.9578C122.341 71.4329 121.053 72.5651 119.655 73.3746L120.657 75.1054ZM123.63 71.326L132.57 79.306L133.902 77.814L124.962 69.834L123.63 71.326ZM132.446 77.9469C130.468 80.4955 127.957 82.4768 124.896 83.8924L125.736 85.7076C129.075 84.1632 131.844 81.9845 134.026 79.1731L132.446 77.9469ZM124.901 83.89C121.893 85.2607 118.399 85.96 114.396 85.96V87.96C118.633 87.96 122.418 87.2193 125.731 85.71L124.901 83.89ZM137.324 86H136.324V87H137.324V86ZM137.324 44V43H136.324V44H137.324ZM167.684 45.92L167.273 46.8317L167.278 46.8338L167.684 45.92ZM174.344 51.44L173.506 51.985L173.51 51.9914L174.344 51.44ZM174.344 68.24L175.174 68.798L175.179 68.7914L174.344 68.24ZM167.684 73.58L167.289 72.6615L167.284 72.6635L167.684 73.58ZM145.184 75.44L144.506 74.7055L142.628 76.44H145.184V75.44ZM151.484 69.62H152.484V67.3348L150.806 68.8855L151.484 69.62ZM151.484 86V87H152.484V86H151.484ZM162.464 86L161.635 86.5592L161.933 87H162.464V86ZM152.144 70.7V69.7H150.264L151.315 71.2592L152.144 70.7ZM167.144 70.7L167.97 70.1364L167.673 69.7H167.144V70.7ZM177.584 86V87H179.477L178.41 85.4364L177.584 86ZM151.484 71.18L150.771 71.8804L152.484 73.6268V71.18H151.484ZM145.184 64.76V63.76H142.802L144.471 65.4604L145.184 64.76ZM160.964 63.44L160.289 62.7028L160.281 62.71L160.273 62.7174L160.964 63.44ZM160.964 56.24L160.273 56.9626L160.281 56.97L160.289 56.9772L160.964 56.24ZM145.184 54.92L144.471 54.2196L142.802 55.92H145.184V54.92ZM151.484 48.5H152.484V46.0532L150.771 47.7996L151.484 48.5ZM138.324 86V44H136.324V86H138.324ZM137.324 45H157.544V43H137.324V45ZM157.544 45C161.358 45 164.591 45.6229 167.273 46.8317L168.095 45.0083C165.097 43.6571 161.571 43 157.544 43V45ZM167.278 46.8338C170 48.0435 172.062 49.7634 173.506 51.985L175.183 50.895C173.507 48.3166 171.129 46.3565 168.09 45.0062L167.278 46.8338ZM173.51 51.9914C174.947 54.165 175.684 56.7668 175.684 59.84H177.684C177.684 56.4332 176.862 53.435 175.179 50.8886L173.51 51.9914ZM175.684 59.84C175.684 62.9132 174.947 65.515 173.51 67.6886L175.179 68.7914C176.862 66.245 177.684 63.2468 177.684 59.84H175.684ZM173.514 67.682C172.074 69.8237 170.015 71.4879 167.289 72.6615L168.08 74.4985C171.114 73.1921 173.494 71.2963 175.174 68.798L173.514 67.682ZM167.284 72.6635C164.599 73.8359 161.362 74.44 157.544 74.44V76.44C161.567 76.44 165.09 75.8041 168.084 74.4965L167.284 72.6635ZM157.544 74.44H145.184V76.44H157.544V74.44ZM145.863 76.1745L152.163 70.3545L150.806 68.8855L144.506 74.7055L145.863 76.1745ZM150.484 69.62V86H152.484V69.62H150.484ZM151.484 85H137.324V87H151.484V85ZM163.293 85.4408L152.973 70.1408L151.315 71.2592L161.635 86.5592L163.293 85.4408ZM152.144 71.7H167.144V69.7H152.144V71.7ZM166.318 71.2636L176.758 86.5636L178.41 85.4364L167.97 70.1364L166.318 71.2636ZM177.584 85H162.464V87H177.584V85ZM152.198 70.4796L145.898 64.0596L144.471 65.4604L150.771 71.8804L152.198 70.4796ZM145.184 65.76H156.644V63.76H145.184V65.76ZM156.644 65.76C158.727 65.76 160.471 65.2961 161.656 64.1626L160.273 62.7174C159.618 63.3439 158.482 63.76 156.644 63.76V65.76ZM161.64 64.1772C162.842 63.0757 163.404 61.589 163.404 59.84H161.404C161.404 61.131 161.007 62.0443 160.289 62.7028L161.64 64.1772ZM163.404 59.84C163.404 58.091 162.842 56.6043 161.64 55.5028L160.289 56.9772C161.007 57.6357 161.404 58.549 161.404 59.84H163.404ZM161.656 55.5174C160.471 54.3839 158.727 53.92 156.644 53.92V55.92C158.482 55.92 159.618 56.3361 160.273 56.9626L161.656 55.5174ZM156.644 53.92H145.184V55.92H156.644V53.92ZM145.898 55.6204L152.198 49.2004L150.771 47.7996L144.471 54.2196L145.898 55.6204ZM150.484 48.5V71.18H152.484V48.5H150.484ZM182.031 86H181.031V87H182.031V86ZM182.031 44V43H181.031V44H182.031ZM196.191 44H197.191V43H196.191V44ZM196.191 86V87H197.191V86H196.191ZM183.031 86V44H181.031V86H183.031ZM182.031 45H196.191V43H182.031V45ZM195.191 44V86H197.191V44H195.191ZM196.191 85H182.031V87H196.191V85ZM215.368 85.4L215.012 86.3347L215.02 86.3377L215.028 86.3406L215.368 85.4ZM207.928 80.84L207.242 81.5678L207.249 81.5743L207.928 80.84ZM203.068 73.88L202.15 74.2772L202.15 74.2772L203.068 73.88ZM203.068 56.12L202.15 55.7228L202.15 55.7228L203.068 56.12ZM207.928 49.16L207.249 48.4257L207.242 48.4322L207.928 49.16ZM215.368 44.66L215.712 45.599L215.719 45.5963L215.368 44.66ZM235.648 45.2L235.233 46.11L235.238 46.1119L235.648 45.2ZM243.568 51.44L244.234 52.186L244.925 51.5688L244.362 50.8325L243.568 51.44ZM234.628 59.42L233.845 60.0422L234.504 60.8711L235.294 60.166L234.628 59.42ZM230.488 55.82L229.977 56.6795L229.99 56.6876L230.004 56.6952L230.488 55.82ZM221.428 55.22L221.799 56.1485L221.799 56.1485L221.428 55.22ZM218.308 57.32L217.585 56.6288L217.577 56.6372L217.569 56.6457L218.308 57.32ZM216.328 60.68L217.264 61.0311L217.268 61.0217L216.328 60.68ZM216.328 69.38L215.388 69.7218L215.392 69.7311L216.328 69.38ZM218.308 72.68L217.569 73.3543L217.577 73.3628L217.585 73.3712L218.308 72.68ZM221.428 74.78L221.057 75.7085L221.057 75.7085L221.428 74.78ZM230.488 74.24L230.982 75.1097L230.989 75.1054L230.488 74.24ZM234.628 70.58L235.294 69.834L234.504 69.1289L233.845 69.9578L234.628 70.58ZM243.568 78.56L244.358 79.1731L244.93 78.4356L244.234 77.814L243.568 78.56ZM235.648 84.8L236.063 85.71L236.068 85.7076L235.648 84.8ZM224.728 85.96C221.472 85.96 218.469 85.4565 215.708 84.4594L215.028 86.3406C218.027 87.4235 221.263 87.96 224.728 87.96V85.96ZM215.723 84.4653C212.997 83.4284 210.628 81.9743 208.607 80.1057L207.249 81.5743C209.468 83.6257 212.059 85.2116 215.012 86.3347L215.723 84.4653ZM208.614 80.1122C206.635 78.2475 205.093 76.0408 203.986 73.4828L202.15 74.2772C203.363 77.0792 205.061 79.5125 207.242 81.5678L208.614 80.1122ZM203.986 73.4828C202.886 70.9413 202.328 68.1184 202.328 65H200.328C200.328 68.3616 200.93 71.4587 202.15 74.2772L203.986 73.4828ZM202.328 65C202.328 61.8816 202.886 59.0587 203.986 56.5172L202.15 55.7228C200.93 58.5413 200.328 61.6384 200.328 65H202.328ZM203.986 56.5172C205.093 53.9592 206.635 51.7525 208.614 49.8878L207.242 48.4322C205.061 50.4875 203.363 52.9208 202.15 55.7228L203.986 56.5172ZM208.607 49.8943C210.625 48.0282 212.99 46.5958 215.712 45.599L215.024 43.721C212.066 44.8042 209.471 46.3718 207.249 48.4257L208.607 49.8943ZM215.719 45.5963C218.477 44.5622 221.477 44.04 224.728 44.04V42.04C221.259 42.04 218.019 42.5978 215.017 43.7237L215.719 45.5963ZM224.728 44.04C228.731 44.04 232.225 44.7393 235.233 46.11L236.063 44.29C232.75 42.7807 228.965 42.04 224.728 42.04V44.04ZM235.238 46.1119C238.29 47.4856 240.797 49.4626 242.774 52.0474L244.362 50.8325C242.179 47.9774 239.406 45.7944 236.058 44.2881L235.238 46.1119ZM242.902 50.694L233.962 58.674L235.294 60.166L244.234 52.186L242.902 50.694ZM235.411 58.7978C234.101 57.1496 232.623 55.8573 230.972 54.9448L230.004 56.6952C231.393 57.4627 232.675 58.5704 233.845 60.0422L235.411 58.7978ZM230.999 54.9605C229.35 53.9802 227.491 53.5 225.448 53.5V55.5C227.165 55.5 228.665 55.8998 229.977 56.6795L230.999 54.9605ZM225.448 53.5C223.859 53.5 222.39 53.7579 221.057 54.2915L221.799 56.1485C222.865 55.7221 224.077 55.5 225.448 55.5V53.5ZM221.057 54.2915C219.726 54.8238 218.566 55.6039 217.585 56.6288L219.031 58.0112C219.81 57.1961 220.73 56.5762 221.799 56.1485L221.057 54.2915ZM217.569 56.6457C216.631 57.6739 215.907 58.9109 215.388 60.3383L217.268 61.0217C217.709 59.8091 218.305 58.8061 219.046 57.9943L217.569 56.6457ZM215.392 60.3289C214.863 61.7385 214.608 63.3001 214.608 65H216.608C216.608 63.4999 216.833 62.1815 217.264 61.0311L215.392 60.3289ZM214.608 65C214.608 66.7005 214.863 68.2781 215.388 69.7217L217.268 69.0383C216.833 67.8419 216.608 66.4995 216.608 65H214.608ZM215.392 69.7311C215.912 71.1188 216.635 72.3314 217.569 73.3543L219.046 72.0057C218.3 71.1886 217.704 70.2012 217.264 69.0289L215.392 69.7311ZM217.585 73.3712C218.566 74.3961 219.726 75.1762 221.057 75.7085L221.799 73.8515C220.73 73.4238 219.81 72.8039 219.031 71.9888L217.585 73.3712ZM221.057 75.7085C222.39 76.2421 223.859 76.5 225.448 76.5V74.5C224.077 74.5 222.865 74.2779 221.799 73.8515L221.057 75.7085ZM225.448 76.5C227.482 76.5 229.336 76.0438 230.981 75.1097L229.994 73.3703C228.68 74.1162 227.173 74.5 225.448 74.5V76.5ZM230.989 75.1054C232.631 74.1548 234.103 72.8471 235.411 71.2022L233.845 69.9578C232.673 71.4329 231.385 72.5651 229.987 73.3746L230.989 75.1054ZM233.962 71.326L242.902 79.306L244.234 77.814L235.294 69.834L233.962 71.326ZM242.778 77.9469C240.8 80.4955 238.289 82.4768 235.228 83.8924L236.068 85.7076C239.407 84.1632 242.176 81.9845 244.358 79.1731L242.778 77.9469ZM235.233 83.89C232.225 85.2607 228.731 85.96 224.728 85.96V87.96C228.965 87.96 232.75 87.2193 236.063 85.71L235.233 83.89ZM260.316 77L259.318 77.0501L259.439 79.4696L261.06 77.669L260.316 77ZM259.536 61.46L258.796 60.7881L258.517 61.0955L258.538 61.5101L259.536 61.46ZM275.376 44V43H274.933L274.636 43.3281L275.376 44ZM290.796 44L291.537 44.6722L293.055 43H290.796V44ZM273.036 63.56L273.751 64.2591L273.764 64.2459L273.777 64.2322L273.036 63.56ZM265.176 71.6L264.461 70.9009L264.447 70.9157L264.433 70.931L265.176 71.6ZM247.656 86H246.656V87H247.656V86ZM247.656 44V43H246.656V44H247.656ZM261.576 44H262.576V43H261.576V44ZM261.576 86V87H262.576V86H261.576ZM275.256 86L274.459 86.6037L274.759 87H275.256V86ZM262.896 69.68L262.169 68.9934L261.588 69.6089L262.099 70.2837L262.896 69.68ZM272.076 59.96L272.876 59.3594L272.164 58.4112L271.349 59.2734L272.076 59.96ZM291.636 86V87H293.638L292.436 85.3994L291.636 86ZM261.315 76.9499L260.535 61.4099L258.538 61.5101L259.318 77.0501L261.315 76.9499ZM260.277 62.1319L276.117 44.6719L274.636 43.3281L258.796 60.7881L260.277 62.1319ZM275.376 45H290.796V43H275.376V45ZM290.056 43.3278L272.296 62.8878L273.777 64.2322L291.537 44.6722L290.056 43.3278ZM272.321 62.8609L264.461 70.9009L265.891 72.2991L273.751 64.2591L272.321 62.8609ZM264.433 70.931L259.573 76.331L261.06 77.669L265.92 72.269L264.433 70.931ZM248.656 86V44H246.656V86H248.656ZM247.656 45H261.576V43H247.656V45ZM260.576 44V86H262.576V44H260.576ZM261.576 85H247.656V87H261.576V85ZM276.054 85.3963L263.694 69.0763L262.099 70.2837L274.459 86.6037L276.054 85.3963ZM263.623 70.3666L272.803 60.6466L271.349 59.2734L262.169 68.9934L263.623 70.3666ZM271.277 60.5606L290.837 86.6006L292.436 85.3994L272.876 59.3594L271.277 60.5606ZM291.636 85H275.256V87H291.636V85ZM306.495 59.6V58.6H305.495V59.6H306.495ZM325.215 59.6H326.215V58.6H325.215V59.6ZM325.215 69.8V70.8H326.215V69.8H325.215ZM306.495 69.8H305.495V70.8H306.495V69.8ZM307.455 75.32H306.455V76.32H307.455V75.32ZM328.455 75.32H329.455V74.32H328.455V75.32ZM328.455 86V87H329.455V86H328.455ZM293.535 86H292.535V87H293.535V86ZM293.535 44V43H292.535V44H293.535ZM327.675 44H328.675V43H327.675V44ZM327.675 54.68V55.68H328.675V54.68H327.675ZM307.455 54.68V53.68H306.455V54.68H307.455ZM306.495 60.6H325.215V58.6H306.495V60.6ZM324.215 59.6V69.8H326.215V59.6H324.215ZM325.215 68.8H306.495V70.8H325.215V68.8ZM307.495 69.8V59.6H305.495V69.8H307.495ZM307.455 76.32H328.455V74.32H307.455V76.32ZM327.455 75.32V86H329.455V75.32H327.455ZM328.455 85H293.535V87H328.455V85ZM294.535 86V44H292.535V86H294.535ZM293.535 45H327.675V43H293.535V45ZM326.675 44V54.68H328.675V44H326.675ZM327.675 53.68H307.455V55.68H327.675V53.68ZM306.455 54.68V75.32H308.455V54.68H306.455ZM343.026 86H342.026V87H343.026V86ZM343.026 54.98H344.026V53.98H343.026V54.98ZM330.726 54.98H329.726V55.98H330.726V54.98ZM330.726 44V43H329.726V44H330.726ZM369.486 44H370.486V43H369.486V44ZM369.486 54.98V55.98H370.486V54.98H369.486ZM357.186 54.98V53.98H356.186V54.98H357.186ZM357.186 86V87H358.186V86H357.186ZM344.026 86V54.98H342.026V86H344.026ZM343.026 53.98H330.726V55.98H343.026V53.98ZM331.726 54.98V44H329.726V54.98H331.726ZM330.726 45H369.486V43H330.726V45ZM368.486 44V54.98H370.486V44H368.486ZM369.486 53.98H357.186V55.98H369.486V53.98ZM356.186 54.98V86H358.186V54.98H356.186ZM357.186 85H343.026V87H357.186V85ZM92.077 121.88V120.88H91.077V121.88H92.077ZM110.557 121.88H111.557V120.88H110.557V121.88ZM110.557 132.56V133.56H111.557V132.56H110.557ZM92.077 132.56H91.077V133.56H92.077V132.56ZM93.037 146V147H94.037V146H93.037ZM78.877 146H77.877V147H78.877V146ZM78.877 104V103H77.877V104H78.877ZM113.017 104H114.017V103H113.017V104ZM113.017 114.68V115.68H114.017V114.68H113.017ZM93.037 114.68V113.68H92.037V114.68H93.037ZM92.077 122.88H110.557V120.88H92.077V122.88ZM109.557 121.88V132.56H111.557V121.88H109.557ZM110.557 131.56H92.077V133.56H110.557V131.56ZM93.077 132.56V121.88H91.077V132.56H93.077ZM93.037 145H78.877V147H93.037V145ZM79.877 146V104H77.877V146H79.877ZM78.877 105H113.017V103H78.877V105ZM112.017 104V114.68H114.017V104H112.017ZM113.017 113.68H93.037V115.68H113.017V113.68ZM92.037 114.68V146H94.037V114.68H92.037ZM117.49 146H116.49V147H117.49V146ZM117.49 104V103H116.49V104H117.49ZM147.85 105.92L147.439 106.832L147.444 106.834L147.85 105.92ZM154.51 111.44L153.672 111.985L153.676 111.991L154.51 111.44ZM154.51 128.24L155.34 128.798L155.345 128.791L154.51 128.24ZM147.85 133.58L147.455 132.662L147.45 132.664L147.85 133.58ZM125.35 135.44L124.672 134.705L122.794 136.44H125.35V135.44ZM131.65 129.62H132.65V127.335L130.972 128.885L131.65 129.62ZM131.65 146V147H132.65V146H131.65ZM142.63 146L141.801 146.559L142.099 147H142.63V146ZM132.31 130.7V129.7H130.43L131.481 131.259L132.31 130.7ZM147.31 130.7L148.136 130.136L147.839 129.7H147.31V130.7ZM157.75 146V147H159.643L158.576 145.436L157.75 146ZM131.65 131.18L130.937 131.88L132.65 133.627V131.18H131.65ZM125.35 124.76V123.76H122.968L124.637 125.46L125.35 124.76ZM141.13 123.44L140.455 122.703L140.447 122.71L140.439 122.717L141.13 123.44ZM141.13 116.24L140.439 116.963L140.447 116.97L140.455 116.977L141.13 116.24ZM125.35 114.92L124.637 114.22L122.968 115.92H125.35V114.92ZM131.65 108.5H132.65V106.053L130.937 107.8L131.65 108.5ZM118.49 146V104H116.49V146H118.49ZM117.49 105H137.71V103H117.49V105ZM137.71 105C141.524 105 144.757 105.623 147.439 106.832L148.261 105.008C145.263 103.657 141.737 103 137.71 103V105ZM147.444 106.834C150.166 108.044 152.228 109.763 153.672 111.985L155.349 110.895C153.673 108.317 151.295 106.356 148.256 105.006L147.444 106.834ZM153.676 111.991C155.113 114.165 155.85 116.767 155.85 119.84H157.85C157.85 116.433 157.028 113.435 155.345 110.889L153.676 111.991ZM155.85 119.84C155.85 122.913 155.113 125.515 153.676 127.689L155.345 128.791C157.028 126.245 157.85 123.247 157.85 119.84H155.85ZM153.68 127.682C152.24 129.824 150.181 131.488 147.455 132.662L148.246 134.498C151.28 133.192 153.66 131.296 155.34 128.798L153.68 127.682ZM147.45 132.664C144.765 133.836 141.528 134.44 137.71 134.44V136.44C141.733 136.44 145.256 135.804 148.25 134.496L147.45 132.664ZM137.71 134.44H125.35V136.44H137.71V134.44ZM126.029 136.175L132.329 130.355L130.972 128.885L124.672 134.705L126.029 136.175ZM130.65 129.62V146H132.65V129.62H130.65ZM131.65 145H117.49V147H131.65V145ZM143.459 145.441L133.139 130.141L131.481 131.259L141.801 146.559L143.459 145.441ZM132.31 131.7H147.31V129.7H132.31V131.7ZM146.484 131.264L156.924 146.564L158.576 145.436L148.136 130.136L146.484 131.264ZM157.75 145H142.63V147H157.75V145ZM132.364 130.48L126.064 124.06L124.637 125.46L130.937 131.88L132.364 130.48ZM125.35 125.76H136.81V123.76H125.35V125.76ZM136.81 125.76C138.893 125.76 140.637 125.296 141.822 124.163L140.439 122.717C139.784 123.344 138.648 123.76 136.81 123.76V125.76ZM141.806 124.177C143.008 123.076 143.57 121.589 143.57 119.84H141.57C141.57 121.131 141.173 122.044 140.455 122.703L141.806 124.177ZM143.57 119.84C143.57 118.091 143.008 116.604 141.806 115.503L140.455 116.977C141.173 117.636 141.57 118.549 141.57 119.84H143.57ZM141.822 115.517C140.637 114.384 138.893 113.92 136.81 113.92V115.92C138.648 115.92 139.784 116.336 140.439 116.963L141.822 115.517ZM136.81 113.92H125.35V115.92H136.81V113.92ZM126.064 115.62L132.364 109.2L130.937 107.8L124.637 114.22L126.064 115.62ZM130.65 108.5V131.18H132.65V108.5H130.65ZM175.157 119.6V118.6H174.157V119.6H175.157ZM193.877 119.6H194.877V118.6H193.877V119.6ZM193.877 129.8V130.8H194.877V129.8H193.877ZM175.157 129.8H174.157V130.8H175.157V129.8ZM176.117 135.32H175.117V136.32H176.117V135.32ZM197.117 135.32H198.117V134.32H197.117V135.32ZM197.117 146V147H198.117V146H197.117ZM162.197 146H161.197V147H162.197V146ZM162.197 104V103H161.197V104H162.197ZM196.337 104H197.337V103H196.337V104ZM196.337 114.68V115.68H197.337V114.68H196.337ZM176.117 114.68V113.68H175.117V114.68H176.117ZM175.157 120.6H193.877V118.6H175.157V120.6ZM192.877 119.6V129.8H194.877V119.6H192.877ZM193.877 128.8H175.157V130.8H193.877V128.8ZM176.157 129.8V119.6H174.157V129.8H176.157ZM176.117 136.32H197.117V134.32H176.117V136.32ZM196.117 135.32V146H198.117V135.32H196.117ZM197.117 145H162.197V147H197.117V145ZM163.197 146V104H161.197V146H163.197ZM162.197 105H196.337V103H162.197V105ZM195.337 104V114.68H197.337V104H195.337ZM196.337 113.68H176.117V115.68H196.337V113.68ZM175.117 114.68V135.32H177.117V114.68H175.117ZM215.528 119.6V118.6H214.528V119.6H215.528ZM234.248 119.6H235.248V118.6H234.248V119.6ZM234.248 129.8V130.8H235.248V129.8H234.248ZM215.528 129.8H214.528V130.8H215.528V129.8ZM216.488 135.32H215.488V136.32H216.488V135.32ZM237.488 135.32H238.488V134.32H237.488V135.32ZM237.488 146V147H238.488V146H237.488ZM202.568 146H201.568V147H202.568V146ZM202.568 104V103H201.568V104H202.568ZM236.708 104H237.708V103H236.708V104ZM236.708 114.68V115.68H237.708V114.68H236.708ZM216.488 114.68V113.68H215.488V114.68H216.488ZM215.528 120.6H234.248V118.6H215.528V120.6ZM233.248 119.6V129.8H235.248V119.6H233.248ZM234.248 128.8H215.528V130.8H234.248V128.8ZM216.528 129.8V119.6H214.528V129.8H216.528ZM216.488 136.32H237.488V134.32H216.488V136.32ZM236.488 135.32V146H238.488V135.32H236.488ZM237.488 145H202.568V147H237.488V145ZM203.568 146V104H201.568V146H203.568ZM202.568 105H236.708V103H202.568V105ZM235.708 104V114.68H237.708V104H235.708ZM236.708 113.68H216.488V115.68H236.708V113.68ZM215.488 114.68V135.32H217.488V114.68H215.488ZM260.928 146H259.928V147H260.928V146ZM260.928 104V103H259.928V104H260.928ZM296.208 107.12L295.606 107.919L295.613 107.924L296.208 107.12ZM298.548 120.68L297.734 120.099L297.731 120.103L298.548 120.68ZM293.448 124.58L293.054 123.661L293.054 123.661L293.448 124.58ZM285.168 126.02L284.23 125.673L283.731 127.02H285.168V126.02ZM286.368 122.78V121.78H285.672L285.43 122.433L286.368 122.78ZM294.828 124.16L294.465 125.092L294.47 125.094L294.828 124.16ZM300.348 128.18L299.539 128.768L299.547 128.779L299.555 128.789L300.348 128.18ZM297.768 142.94L297.211 142.11L297.206 142.113L297.768 142.94ZM274.848 136.1H273.848V137.1H274.848V136.1ZM286.848 135.26L286.274 134.441L286.264 134.448L286.255 134.455L286.848 135.26ZM286.848 130.34L286.255 131.145L286.264 131.152L286.274 131.159L286.848 130.34ZM273.888 129.5H272.888V130.5H273.888V129.5ZM273.888 120.14V119.14H272.888V120.14H273.888ZM284.928 119.36L285.513 120.171L285.521 120.165L284.928 119.36ZM284.928 114.68L284.342 115.491L284.353 115.498L284.363 115.505L284.928 114.68ZM274.848 113.9V112.9H273.848V113.9H274.848ZM261.928 146V104H259.928V146H261.928ZM260.928 105H283.368V103H260.928V105ZM283.368 105C289.084 105 293.102 106.032 295.606 107.919L296.81 106.321C293.793 104.048 289.251 103 283.368 103V105ZM295.613 107.924C298.14 109.792 299.348 112.123 299.348 114.98H301.348C301.348 111.437 299.796 108.528 296.802 106.316L295.613 107.924ZM299.348 114.98C299.348 116.898 298.81 118.593 297.734 120.099L299.362 121.261C300.686 119.407 301.348 117.302 301.348 114.98H299.348ZM297.731 120.103C296.699 121.563 295.161 122.758 293.054 123.661L293.842 125.499C296.215 124.482 298.077 123.077 299.364 121.257L297.731 120.103ZM293.054 123.661C290.973 124.552 288.357 125.02 285.168 125.02V127.02C288.539 127.02 291.442 126.528 293.842 125.499L293.054 123.661ZM286.106 126.367L287.306 123.127L285.43 122.433L284.23 125.673L286.106 126.367ZM286.368 123.78C289.558 123.78 292.249 124.228 294.465 125.092L295.191 123.228C292.687 122.252 289.737 121.78 286.368 121.78V123.78ZM294.47 125.094C296.723 125.957 298.392 127.191 299.539 128.768L301.157 127.592C299.744 125.649 297.733 124.203 295.186 123.226L294.47 125.094ZM299.555 128.789C300.724 130.312 301.328 132.171 301.328 134.42H303.328C303.328 131.789 302.612 129.488 301.141 127.571L299.555 128.789ZM301.328 134.42C301.328 137.724 299.976 140.254 297.211 142.11L298.325 143.77C301.64 141.546 303.328 138.396 303.328 134.42H301.328ZM297.206 142.113C294.444 143.991 290.277 145 284.568 145V147C290.458 147 295.092 145.969 298.33 143.767L297.206 142.113ZM284.568 145H260.928V147H284.568V145ZM274.848 137.1H283.368V135.1H274.848V137.1ZM283.368 137.1C285.014 137.1 286.429 136.811 287.441 136.065L286.255 134.455C285.746 134.829 284.841 135.1 283.368 135.1V137.1ZM287.421 136.079C288.52 135.31 289.048 134.166 289.048 132.8H287.048C287.048 133.594 286.776 134.09 286.274 134.441L287.421 136.079ZM289.048 132.8C289.048 131.434 288.52 130.29 287.421 129.521L286.274 131.159C286.776 131.51 287.048 132.006 287.048 132.8H289.048ZM287.441 129.535C286.429 128.789 285.014 128.5 283.368 128.5V130.5C284.841 130.5 285.746 130.771 286.255 131.145L287.441 129.535ZM283.368 128.5H273.888V130.5H283.368V128.5ZM274.888 129.5V120.14H272.888V129.5H274.888ZM273.888 121.14H281.448V119.14H273.888V121.14ZM281.448 121.14C283.111 121.14 284.533 120.879 285.513 120.171L284.342 118.549C283.882 118.881 282.985 119.14 281.448 119.14V121.14ZM285.521 120.165C286.554 119.404 287.068 118.316 287.068 117.02H285.068C285.068 117.724 284.822 118.196 284.335 118.555L285.521 120.165ZM287.068 117.02C287.068 115.7 286.564 114.588 285.492 113.855L284.363 115.505C284.812 115.812 285.068 116.26 285.068 117.02H287.068ZM285.513 113.869C284.533 113.161 283.111 112.9 281.448 112.9V114.9C282.985 114.9 283.882 115.159 284.342 115.491L285.513 113.869ZM281.448 112.9H274.848V114.9H281.448V112.9ZM273.848 113.9V136.1H275.848V113.9H273.848ZM320.294 119.6V118.6H319.294V119.6H320.294ZM339.014 119.6H340.014V118.6H339.014V119.6ZM339.014 129.8V130.8H340.014V129.8H339.014ZM320.294 129.8H319.294V130.8H320.294V129.8ZM321.254 135.32H320.254V136.32H321.254V135.32ZM342.254 135.32H343.254V134.32H342.254V135.32ZM342.254 146V147H343.254V146H342.254ZM307.334 146H306.334V147H307.334V146ZM307.334 104V103H306.334V104H307.334ZM341.474 104H342.474V103H341.474V104ZM341.474 114.68V115.68H342.474V114.68H341.474ZM321.254 114.68V113.68H320.254V114.68H321.254ZM320.294 120.6H339.014V118.6H320.294V120.6ZM338.014 119.6V129.8H340.014V119.6H338.014ZM339.014 128.8H320.294V130.8H339.014V128.8ZM321.294 129.8V119.6H319.294V129.8H321.294ZM321.254 136.32H342.254V134.32H321.254V136.32ZM341.254 135.32V146H343.254V135.32H341.254ZM342.254 145H307.334V147H342.254V145ZM308.334 146V104H306.334V146H308.334ZM307.334 105H341.474V103H307.334V105ZM340.474 104V114.68H342.474V104H340.474ZM341.474 113.68H321.254V115.68H341.474V113.68ZM320.254 114.68V135.32H322.254V114.68H320.254ZM356.825 146H355.825V147H356.825V146ZM356.825 114.98H357.825V113.98H356.825V114.98ZM344.525 114.98H343.525V115.98H344.525V114.98ZM344.525 104V103H343.525V104H344.525ZM383.285 104H384.285V103H383.285V104ZM383.285 114.98V115.98H384.285V114.98H383.285ZM370.985 114.98V113.98H369.985V114.98H370.985ZM370.985 146V147H371.985V146H370.985ZM357.825 146V114.98H355.825V146H357.825ZM356.825 113.98H344.525V115.98H356.825V113.98ZM345.525 114.98V104H343.525V114.98H345.525ZM344.525 105H383.285V103H344.525V105ZM382.285 104V114.98H384.285V104H382.285ZM383.285 113.98H370.985V115.98H383.285V113.98ZM369.985 114.98V146H371.985V114.98H369.985ZM370.985 145H356.825V147H370.985V145Z" fill="#3579F4" mask="url(#path-3-outside-1_1_3896)"/>
<path d="M108.396 80.96C105.036 80.96 101.916 80.44 99.0359 79.4C96.1959 78.32 93.7159 76.8 91.5959 74.84C89.5159 72.88 87.8959 70.56 86.7359 67.88C85.5759 65.2 84.9959 62.24 84.9959 59C84.9959 55.76 85.5759 52.8 86.7359 50.12C87.8959 47.44 89.5159 45.12 91.5959 43.16C93.7159 41.2 96.1959 39.7 99.0359 38.66C101.916 37.58 105.036 37.04 108.396 37.04C112.516 37.04 116.156 37.76 119.316 39.2C122.516 40.64 125.156 42.72 127.236 45.44L118.296 53.42C117.056 51.86 115.676 50.66 114.156 49.82C112.676 48.94 110.996 48.5 109.116 48.5C107.636 48.5 106.296 48.74 105.096 49.22C103.896 49.7 102.856 50.4 101.976 51.32C101.136 52.24 100.476 53.36 99.9959 54.68C99.5159 55.96 99.2759 57.4 99.2759 59C99.2759 60.6 99.5159 62.06 99.9959 63.38C100.476 64.66 101.136 65.76 101.976 66.68C102.856 67.6 103.896 68.3 105.096 68.78C106.296 69.26 107.636 69.5 109.116 69.5C110.996 69.5 112.676 69.08 114.156 68.24C115.676 67.36 117.056 66.14 118.296 64.58L127.236 72.56C125.156 75.24 122.516 77.32 119.316 78.8C116.156 80.24 112.516 80.96 108.396 80.96ZM131.324 80V38H151.544C155.464 38 158.844 38.64 161.684 39.92C164.564 41.2 166.784 43.04 168.344 45.44C169.904 47.8 170.684 50.6 170.684 53.84C170.684 57.08 169.904 59.88 168.344 62.24C166.784 64.56 164.564 66.34 161.684 67.58C158.844 68.82 155.464 69.44 151.544 69.44H139.184L145.484 63.62V80H131.324ZM156.464 80L146.144 64.7H161.144L171.584 80H156.464ZM145.484 65.18L139.184 58.76H150.644C152.604 58.76 154.044 58.32 154.964 57.44C155.924 56.56 156.404 55.36 156.404 53.84C156.404 52.32 155.924 51.12 154.964 50.24C154.044 49.36 152.604 48.92 150.644 48.92H139.184L145.484 42.5V65.18ZM176.031 80V38H190.191V80H176.031ZM218.728 80.96C215.368 80.96 212.248 80.44 209.368 79.4C206.528 78.32 204.048 76.8 201.928 74.84C199.848 72.88 198.228 70.56 197.068 67.88C195.908 65.2 195.328 62.24 195.328 59C195.328 55.76 195.908 52.8 197.068 50.12C198.228 47.44 199.848 45.12 201.928 43.16C204.048 41.2 206.528 39.7 209.368 38.66C212.248 37.58 215.368 37.04 218.728 37.04C222.848 37.04 226.488 37.76 229.648 39.2C232.848 40.64 235.488 42.72 237.568 45.44L228.628 53.42C227.388 51.86 226.008 50.66 224.488 49.82C223.008 48.94 221.328 48.5 219.448 48.5C217.968 48.5 216.628 48.74 215.428 49.22C214.228 49.7 213.188 50.4 212.308 51.32C211.468 52.24 210.808 53.36 210.328 54.68C209.848 55.96 209.608 57.4 209.608 59C209.608 60.6 209.848 62.06 210.328 63.38C210.808 64.66 211.468 65.76 212.308 66.68C213.188 67.6 214.228 68.3 215.428 68.78C216.628 69.26 217.968 69.5 219.448 69.5C221.328 69.5 223.008 69.08 224.488 68.24C226.008 67.36 227.388 66.14 228.628 64.58L237.568 72.56C235.488 75.24 232.848 77.32 229.648 78.8C226.488 80.24 222.848 80.96 218.728 80.96ZM254.316 71L253.536 55.46L269.376 38H284.796L267.036 57.56L259.176 65.6L254.316 71ZM241.656 80V38H255.576V80H241.656ZM269.256 80L256.896 63.68L266.076 53.96L285.636 80H269.256ZM300.495 53.6H319.215V63.8H300.495V53.6ZM301.455 69.32H322.455V80H287.535V38H321.675V48.68H301.455V69.32ZM337.026 80V48.98H324.726V38H363.486V48.98H351.186V80H337.026ZM86.077 115.88H104.557V126.56H86.077V115.88ZM87.037 140H72.877V98H107.017V108.68H87.037V140ZM111.49 140V98H131.71C135.63 98 139.01 98.64 141.85 99.92C144.73 101.2 146.95 103.04 148.51 105.44C150.07 107.8 150.85 110.6 150.85 113.84C150.85 117.08 150.07 119.88 148.51 122.24C146.95 124.56 144.73 126.34 141.85 127.58C139.01 128.82 135.63 129.44 131.71 129.44H119.35L125.65 123.62V140H111.49ZM136.63 140L126.31 124.7H141.31L151.75 140H136.63ZM125.65 125.18L119.35 118.76H130.81C132.77 118.76 134.21 118.32 135.13 117.44C136.09 116.56 136.57 115.36 136.57 113.84C136.57 112.32 136.09 111.12 135.13 110.24C134.21 109.36 132.77 108.92 130.81 108.92H119.35L125.65 102.5V125.18ZM169.157 113.6H187.877V123.8H169.157V113.6ZM170.117 129.32H191.117V140H156.197V98H190.337V108.68H170.117V129.32ZM209.528 113.6H228.248V123.8H209.528V113.6ZM210.488 129.32H231.488V140H196.568V98H230.708V108.68H210.488V129.32ZM254.928 140V98H277.368C283.168 98 287.448 99.04 290.208 101.12C292.968 103.16 294.348 105.78 294.348 108.98C294.348 111.1 293.748 113 292.548 114.68C291.388 116.32 289.688 117.62 287.448 118.58C285.208 119.54 282.448 120.02 279.168 120.02L280.368 116.78C283.648 116.78 286.468 117.24 288.828 118.16C291.228 119.08 293.068 120.42 294.348 122.18C295.668 123.9 296.328 125.98 296.328 128.42C296.328 132.06 294.808 134.9 291.768 136.94C288.768 138.98 284.368 140 278.568 140H254.928ZM268.848 130.1H277.368C278.928 130.1 280.088 129.82 280.848 129.26C281.648 128.7 282.048 127.88 282.048 126.8C282.048 125.72 281.648 124.9 280.848 124.34C280.088 123.78 278.928 123.5 277.368 123.5H267.888V114.14H275.448C277.048 114.14 278.208 113.88 278.928 113.36C279.688 112.8 280.068 112.02 280.068 111.02C280.068 109.98 279.688 109.2 278.928 108.68C278.208 108.16 277.048 107.9 275.448 107.9H268.848V130.1ZM314.294 113.6H333.014V123.8H314.294V113.6ZM315.254 129.32H336.254V140H301.334V98H335.474V108.68H315.254V129.32ZM350.825 140V108.98H338.525V98H377.285V108.98H364.985V140H350.825Z" fill="#010204"/>
<path d="M105.396 77.96C102.036 77.96 98.9159 77.44 96.0359 76.4C93.1959 75.32 90.7159 73.8 88.5959 71.84C86.5159 69.88 84.8959 67.56 83.7359 64.88C82.5759 62.2 81.9959 59.24 81.9959 56C81.9959 52.76 82.5759 49.8 83.7359 47.12C84.8959 44.44 86.5159 42.12 88.5959 40.16C90.7159 38.2 93.1959 36.7 96.0359 35.66C98.9159 34.58 102.036 34.04 105.396 34.04C109.516 34.04 113.156 34.76 116.316 36.2C119.516 37.64 122.156 39.72 124.236 42.44L115.296 50.42C114.056 48.86 112.676 47.66 111.156 46.82C109.676 45.94 107.996 45.5 106.116 45.5C104.636 45.5 103.296 45.74 102.096 46.22C100.896 46.7 99.8559 47.4 98.9759 48.32C98.1359 49.24 97.4759 50.36 96.9959 51.68C96.5159 52.96 96.2759 54.4 96.2759 56C96.2759 57.6 96.5159 59.06 96.9959 60.38C97.4759 61.66 98.1359 62.76 98.9759 63.68C99.8559 64.6 100.896 65.3 102.096 65.78C103.296 66.26 104.636 66.5 106.116 66.5C107.996 66.5 109.676 66.08 111.156 65.24C112.676 64.36 114.056 63.14 115.296 61.58L124.236 69.56C122.156 72.24 119.516 74.32 116.316 75.8C113.156 77.24 109.516 77.96 105.396 77.96ZM128.324 77V35H148.544C152.464 35 155.844 35.64 158.684 36.92C161.564 38.2 163.784 40.04 165.344 42.44C166.904 44.8 167.684 47.6 167.684 50.84C167.684 54.08 166.904 56.88 165.344 59.24C163.784 61.56 161.564 63.34 158.684 64.58C155.844 65.82 152.464 66.44 148.544 66.44H136.184L142.484 60.62V77H128.324ZM153.464 77L143.144 61.7H158.144L168.584 77H153.464ZM142.484 62.18L136.184 55.76H147.644C149.604 55.76 151.044 55.32 151.964 54.44C152.924 53.56 153.404 52.36 153.404 50.84C153.404 49.32 152.924 48.12 151.964 47.24C151.044 46.36 149.604 45.92 147.644 45.92H136.184L142.484 39.5V62.18ZM173.031 77V35H187.191V77H173.031ZM215.728 77.96C212.368 77.96 209.248 77.44 206.368 76.4C203.528 75.32 201.048 73.8 198.928 71.84C196.848 69.88 195.228 67.56 194.068 64.88C192.908 62.2 192.328 59.24 192.328 56C192.328 52.76 192.908 49.8 194.068 47.12C195.228 44.44 196.848 42.12 198.928 40.16C201.048 38.2 203.528 36.7 206.368 35.66C209.248 34.58 212.368 34.04 215.728 34.04C219.848 34.04 223.488 34.76 226.648 36.2C229.848 37.64 232.488 39.72 234.568 42.44L225.628 50.42C224.388 48.86 223.008 47.66 221.488 46.82C220.008 45.94 218.328 45.5 216.448 45.5C214.968 45.5 213.628 45.74 212.428 46.22C211.228 46.7 210.188 47.4 209.308 48.32C208.468 49.24 207.808 50.36 207.328 51.68C206.848 52.96 206.608 54.4 206.608 56C206.608 57.6 206.848 59.06 207.328 60.38C207.808 61.66 208.468 62.76 209.308 63.68C210.188 64.6 211.228 65.3 212.428 65.78C213.628 66.26 214.968 66.5 216.448 66.5C218.328 66.5 220.008 66.08 221.488 65.24C223.008 64.36 224.388 63.14 225.628 61.58L234.568 69.56C232.488 72.24 229.848 74.32 226.648 75.8C223.488 77.24 219.848 77.96 215.728 77.96ZM251.316 68L250.536 52.46L266.376 35H281.796L264.036 54.56L256.176 62.6L251.316 68ZM238.656 77V35H252.576V77H238.656ZM266.256 77L253.896 60.68L263.076 50.96L282.636 77H266.256ZM297.495 50.6H316.215V60.8H297.495V50.6ZM298.455 66.32H319.455V77H284.535V35H318.675V45.68H298.455V66.32ZM334.026 77V45.98H321.726V35H360.486V45.98H348.186V77H334.026ZM83.077 112.88H101.557V123.56H83.077V112.88ZM84.037 137H69.877V95H104.017V105.68H84.037V137ZM108.49 137V95H128.71C132.63 95 136.01 95.64 138.85 96.92C141.73 98.2 143.95 100.04 145.51 102.44C147.07 104.8 147.85 107.6 147.85 110.84C147.85 114.08 147.07 116.88 145.51 119.24C143.95 121.56 141.73 123.34 138.85 124.58C136.01 125.82 132.63 126.44 128.71 126.44H116.35L122.65 120.62V137H108.49ZM133.63 137L123.31 121.7H138.31L148.75 137H133.63ZM122.65 122.18L116.35 115.76H127.81C129.77 115.76 131.21 115.32 132.13 114.44C133.09 113.56 133.57 112.36 133.57 110.84C133.57 109.32 133.09 108.12 132.13 107.24C131.21 106.36 129.77 105.92 127.81 105.92H116.35L122.65 99.5V122.18ZM166.157 110.6H184.877V120.8H166.157V110.6ZM167.117 126.32H188.117V137H153.197V95H187.337V105.68H167.117V126.32ZM206.528 110.6H225.248V120.8H206.528V110.6ZM207.488 126.32H228.488V137H193.568V95H227.708V105.68H207.488V126.32ZM251.928 137V95H274.368C280.168 95 284.448 96.04 287.208 98.12C289.968 100.16 291.348 102.78 291.348 105.98C291.348 108.1 290.748 110 289.548 111.68C288.388 113.32 286.688 114.62 284.448 115.58C282.208 116.54 279.448 117.02 276.168 117.02L277.368 113.78C280.648 113.78 283.468 114.24 285.828 115.16C288.228 116.08 290.068 117.42 291.348 119.18C292.668 120.9 293.328 122.98 293.328 125.42C293.328 129.06 291.808 131.9 288.768 133.94C285.768 135.98 281.368 137 275.568 137H251.928ZM265.848 127.1H274.368C275.928 127.1 277.088 126.82 277.848 126.26C278.648 125.7 279.048 124.88 279.048 123.8C279.048 122.72 278.648 121.9 277.848 121.34C277.088 120.78 275.928 120.5 274.368 120.5H264.888V111.14H272.448C274.048 111.14 275.208 110.88 275.928 110.36C276.688 109.8 277.068 109.02 277.068 108.02C277.068 106.98 276.688 106.2 275.928 105.68C275.208 105.16 274.048 104.9 272.448 104.9H265.848V127.1ZM311.294 110.6H330.014V120.8H311.294V110.6ZM312.254 126.32H333.254V137H298.334V95H332.474V105.68H312.254V126.32ZM347.825 137V105.98H335.525V95H374.285V105.98H361.985V137H347.825Z" fill="#F5F5F6"/>
<path d="M73.6013 59.7576L73.6209 60.2163L74.0796 60.2359L90.0991 60.9186L74.0796 61.6013L73.6209 61.6209L73.6013 62.0796L72.9186 78.0991L72.2359 62.0796L72.2163 61.6209L71.7576 61.6013L55.7406 60.9186L71.7576 60.2359L72.2163 60.2163L72.2359 59.7576L72.9186 43.7406L73.6013 59.7576Z" stroke="#82C8E3"/>
<path d="M76.7639 62.9206L76.7834 63.3793L77.2421 63.3989L93.2591 64.0816L77.2421 64.7643L76.7834 64.7839L76.7639 65.2426L76.0811 81.2596L75.3984 65.2426L75.3788 64.7839L74.9201 64.7643L58.9006 64.0816L74.9201 63.3989L75.3788 63.3793L75.3984 62.9206L76.0811 46.9011L76.7639 62.9206Z" stroke="#82C8E3"/>
<path d="M384.601 134.758L384.621 135.216L385.08 135.236L401.099 135.919L385.08 136.601L384.621 136.621L384.601 137.08L383.919 153.099L383.236 137.08L383.216 136.621L382.758 136.601L366.741 135.919L382.758 135.236L383.216 135.216L383.236 134.758L383.919 118.741L384.601 134.758Z" stroke="#82C8E3"/>
<path d="M387.764 137.921L387.783 138.379L388.242 138.399L404.259 139.082L388.242 139.764L387.783 139.784L387.764 140.243L387.081 156.26L386.398 140.243L386.379 139.784L385.92 139.764L369.901 139.082L385.92 138.399L386.379 138.379L386.398 137.921L387.081 121.901L387.764 137.921Z" stroke="#82C8E3"/>
<path fill-rule="evenodd" clip-rule="evenodd" d="M36 101C37.6832 122.882 35.2608 121.48 55 111.999C36.944 124.4 36.944 121.6 55 134.001C35.2608 124.52 37.6782 123.118 36 145C34.3168 123.118 36.7392 124.52 17 134.001C35.056 121.6 35.056 124.4 17 111.999C36.7392 121.48 34.3218 122.882 36 101ZM29.5868 126.719C31.0452 126.233 32.6485 125.963 33.8872 126.679C35.1259 127.395 35.6953 128.923 36.005 130.43C36.3147 128.923 36.8841 127.395 38.1228 126.679C39.3615 125.963 40.9648 126.228 42.4232 126.719C41.2744 125.697 40.2405 124.44 40.2405 123.003C40.2405 121.565 41.2744 120.308 42.4232 119.286C40.9648 119.772 39.3665 120.042 38.1228 119.326C36.8841 118.61 36.3147 117.082 36.005 115.575C35.7003 117.082 35.1259 118.61 33.8872 119.326C32.6485 120.042 31.0452 119.777 29.5868 119.286C30.7355 120.308 31.7695 121.565 31.7695 123.003C31.7695 124.44 30.7355 125.697 29.5868 126.719Z" fill="#FADE0A"/>
<path fill-rule="evenodd" clip-rule="evenodd" d="M379.124 18.458C388.529 38.2875 385.765 37.8453 400.802 21.9261C388.382 39.9692 387.38 37.3549 408.679 42.4704C386.854 40.684 388.609 38.5091 394.876 59.542C385.47 39.7125 388.234 40.1547 373.197 56.0739C385.617 38.0308 386.62 40.645 365.321 35.5296C387.146 37.316 385.391 39.4909 379.124 18.458ZM382.343 44.7682C383.531 43.7925 384.931 42.966 386.344 43.1913C387.757 43.4166 388.836 44.6392 389.664 45.9359C389.414 44.4174 389.399 42.7872 390.299 41.675C391.199 40.5628 392.791 40.2367 394.329 40.1729C392.89 39.6302 391.475 38.8265 390.96 37.4843C390.446 36.1421 390.961 34.5981 391.668 33.2329C390.48 34.2086 389.084 35.0333 387.667 34.8098C386.254 34.5845 385.175 33.3619 384.346 32.0651C384.602 33.5819 384.612 35.2139 383.712 36.3261C382.812 37.4382 381.22 37.7643 379.682 37.8282C381.121 38.3709 382.536 39.1746 383.051 40.5168C383.565 41.859 383.05 43.403 382.343 44.7682Z" fill="#FADE0A"/>
<path fill-rule="evenodd" clip-rule="evenodd" d="M40 164.5C51.3169 164.018 56.9784 164.236 59.8875 162.251C58.6956 160.03 55.8418 157.244 51.3261 152.326C56.2442 156.842 59.0304 159.696 61.2514 160.887C63.2358 157.975 63.0177 152.317 63.5 141C63.9823 152.317 63.7642 157.978 65.7486 160.887C67.9696 159.696 70.7558 156.842 75.6739 152.326C71.1582 157.244 68.3044 160.03 67.1126 162.251C70.0247 164.236 75.6831 164.018 87 164.5C75.6831 164.982 70.0216 164.764 67.1126 166.749C68.3044 168.97 71.1582 171.756 75.6739 176.674C70.7558 172.158 67.9696 169.304 65.7486 168.113C63.7642 171.025 63.9823 176.683 63.5 188C63.0177 176.683 63.2358 171.022 61.2514 168.113C59.0304 169.304 56.2442 172.158 51.3261 176.674C55.8418 171.756 58.6956 168.97 59.8875 166.749C56.9753 164.764 51.3169 164.982 40 164.5Z" fill="#FADE0A"/>
<path fill-rule="evenodd" clip-rule="evenodd" d="M16.8086 46.6714C23.5092 42.2663 27.0282 40.3416 28.0746 38.0788C26.5434 37.1625 23.7971 36.5067 19.2664 35.1594C23.8954 36.1159 26.6252 36.8374 28.4077 36.7545C28.5552 34.2641 26.3666 30.9055 22.5474 23.8544C26.9526 30.555 28.8773 34.074 31.1401 35.1204C32.0564 33.5892 32.7122 30.8429 34.0594 26.3122C33.1029 30.9412 32.3815 33.671 32.4643 35.4535C34.9548 35.601 38.3134 33.4124 45.3644 29.5932C38.6639 33.9984 35.1449 35.9231 34.0985 38.1858C35.6297 39.1022 38.376 39.758 42.9066 41.1052C38.2777 40.1487 35.5479 39.4273 33.7654 39.5101C33.6179 42.0005 35.8065 45.3592 39.6257 52.4102C35.2205 45.7097 33.2958 42.1907 31.033 41.1443C30.1167 42.6755 29.4609 45.4218 28.1136 49.9524C29.0701 45.3235 29.7916 42.5937 29.7087 40.8112C27.2183 40.6637 23.8597 42.8523 16.8086 46.6714Z" fill="#82C8E3"/>
<path fill-rule="evenodd" clip-rule="evenodd" d="M346.878 169.584C351.49 166.552 353.912 165.227 354.633 163.669C353.579 163.039 351.688 162.587 348.57 161.66C351.756 162.318 353.635 162.815 354.862 162.758C354.964 161.043 353.457 158.732 350.828 153.878C353.86 158.49 355.185 160.913 356.743 161.633C357.374 160.579 357.825 158.688 358.752 155.57C358.094 158.756 357.597 160.635 357.654 161.862C359.369 161.964 361.681 160.457 366.534 157.828C361.922 160.861 359.5 162.185 358.779 163.743C359.833 164.374 361.724 164.825 364.842 165.753C361.656 165.094 359.777 164.597 358.55 164.655C358.448 166.369 359.955 168.681 362.584 173.534C359.552 168.922 358.227 166.5 356.669 165.779C356.038 166.833 355.587 168.724 354.66 171.842C355.318 168.656 355.815 166.777 355.758 165.55C354.043 165.449 351.731 166.955 346.878 169.584Z" fill="#FADE0A"/>
<path fill-rule="evenodd" clip-rule="evenodd" d="M396.181 70.8172C404.192 70.4758 408.2 70.6302 410.26 69.2253C409.416 67.653 407.396 65.6805 404.199 62.1988C407.681 65.3957 409.653 67.416 411.225 68.2597C412.63 66.1981 412.476 62.1923 412.817 54.1807C413.159 62.1923 413.004 66.2003 414.409 68.2597C415.981 67.416 417.954 65.3957 421.436 62.1988C418.239 65.6805 416.218 67.653 415.375 69.2253C417.436 70.6302 421.442 70.4758 429.454 70.8172C421.442 71.1586 417.434 71.0042 415.375 72.4091C416.218 73.9814 418.239 75.9539 421.436 79.4356C417.954 76.2388 415.981 74.2185 414.409 73.3747C413.004 75.4363 413.159 79.4421 412.817 87.4538C412.476 79.4421 412.63 75.4341 411.225 73.3747C409.653 74.2185 407.681 76.2388 404.199 79.4356C407.396 75.9539 409.416 73.9814 410.26 72.4091C408.198 71.0042 404.192 71.1586 396.181 70.8172Z" fill="#82C8E3"/>
<defs>
<linearGradient id="paint0_linear_1_3896" x1="263" y1="-20.5319" x2="263" y2="205" gradientUnits="userSpaceOnUse">
<stop stop-color="#1A2E5C"/>
<stop offset="1" stop-color="#0F1321"/>
</linearGradient>
</defs>
</svg>
