<svg width="50" height="50" viewBox="0 0 50 50" fill="none" xmlns="http://www.w3.org/2000/svg">
<circle cx="24.9997" cy="25.0002" r="21.6667" fill="white"/>
<path fill-rule="evenodd" clip-rule="evenodd" d="M0 25C0 18.3696 2.63392 12.0107 7.32233 7.32233C12.0107 2.63392 18.3696 0 25 0C31.6304 0 37.9893 2.63392 42.6777 7.32233C47.3661 12.0107 50 18.3696 50 25C50 31.6304 47.3661 37.9893 42.6777 42.6777C37.9893 47.3661 31.6304 50 25 50C18.3696 50 12.0107 47.3661 7.32233 42.6777C2.63392 37.9893 0 31.6304 0 25ZM25 3.58599C19.3207 3.58599 13.8739 5.8421 9.85801 9.85801C5.8421 13.8739 3.58599 19.3207 3.58599 25C3.58599 30.6793 5.8421 36.1261 9.85801 40.142C13.8739 44.1579 19.3207 46.414 25 46.414C30.6793 46.414 36.1261 44.1579 40.142 40.142C44.1579 36.1261 46.414 30.6793 46.414 25C46.414 19.3207 44.1579 13.8739 40.142 9.85801C36.1261 5.8421 30.6793 3.58599 25 3.58599ZM33.8857 16.1181C34.2395 16.472 34.4383 16.952 34.4383 17.4524C34.4383 17.9529 34.2395 18.4329 33.8857 18.7868L27.6687 25L33.8857 31.2132C34.2401 31.5676 34.4392 32.0483 34.4392 32.5494C34.4392 33.0506 34.2401 33.5313 33.8857 33.8857C33.5313 34.2401 33.0506 34.4392 32.5494 34.4392C32.0483 34.4392 31.5676 34.2401 31.2132 33.8857L25 27.6687L18.7868 33.8857C18.6113 34.0612 18.403 34.2004 18.1737 34.2953C17.9445 34.3903 17.6987 34.4392 17.4506 34.4392C17.2024 34.4392 16.9566 34.3903 16.7274 34.2953C16.4981 34.2004 16.2898 34.0612 16.1143 33.8857C15.9388 33.7102 15.7996 33.5019 15.7047 33.2726C15.6097 33.0433 15.5608 32.7976 15.5608 32.5494C15.5608 32.3013 15.6097 32.0555 15.7047 31.8263C15.7996 31.597 15.9388 31.3887 16.1143 31.2132L22.3313 25L16.1143 18.7868C15.7599 18.4324 15.5608 17.9517 15.5608 17.4506C15.5608 16.9494 15.7599 16.4687 16.1143 16.1143C16.4687 15.7599 16.9494 15.5608 17.4506 15.5608C17.9517 15.5608 18.4324 15.7599 18.7868 16.1143L25 22.3313L31.2132 16.1143C31.3885 15.9385 31.5968 15.7991 31.8261 15.7039C32.0554 15.6088 32.3012 15.5598 32.5494 15.5598C32.7977 15.5598 33.0435 15.6088 33.2728 15.7039C33.5021 15.7991 33.7104 15.9423 33.8857 16.1181Z" fill="#272A2E"/>
</svg>
