<svg width="41" height="40" viewBox="0 0 41 40" fill="none" xmlns="http://www.w3.org/2000/svg">
<rect x="0.5" width="40" height="40" fill="#205583"/>
<path d="M28.5 12C29.0046 11.9998 29.4906 12.1904 29.8605 12.5335C30.2305 12.8766 30.4572 13.3468 30.495 13.85L30.5 14V26C30.5002 26.5046 30.3096 26.9906 29.9665 27.3605C29.6234 27.7305 29.1532 27.9572 28.65 27.995L28.5 28H12.5C11.9954 28.0002 11.5094 27.8096 11.1395 27.4665C10.7695 27.1234 10.5428 26.6532 10.505 26.15L10.5 26V14C10.4998 13.4954 10.6904 13.0094 11.0335 12.6395C11.3766 12.2695 11.8468 12.0428 12.35 12.005L12.5 12H28.5ZM28.5 15.414L21.56 22.354C21.2787 22.6349 20.8975 22.7927 20.5 22.7927C20.1025 22.7927 19.7213 22.6349 19.44 22.354L12.5 15.414V26H28.5V15.414ZM27.086 14H13.914L20.5 20.586L27.086 14Z" fill="#FEFEFE"/>
</svg>
