<svg width="41" height="40" viewBox="0 0 41 40" fill="none" xmlns="http://www.w3.org/2000/svg">
<rect width="40" height="40" transform="translate(0.5)" fill="#205583"/>
<path fill-rule="evenodd" clip-rule="evenodd" d="M19.0005 11.5774C20.0102 10.5676 21.3796 10.0002 22.8077 10H25.5769C25.7809 10 25.9766 10.081 26.1208 10.2253C26.2651 10.3696 26.3461 10.5652 26.3461 10.7692V14.4615C26.3461 14.6656 26.2651 14.8612 26.1208 15.0055C25.9766 15.1497 25.7809 15.2308 25.5769 15.2308H22.8077C22.7875 15.2308 22.7674 15.2347 22.7488 15.2425C22.7301 15.2502 22.7132 15.2615 22.6989 15.2758C22.6846 15.2901 22.6733 15.3071 22.6655 15.3257C22.6578 15.3444 22.6538 15.3644 22.6538 15.3846V17.3846H25.5769C25.6938 17.3846 25.8092 17.4111 25.9144 17.4624C26.0195 17.5136 26.1115 17.5882 26.1835 17.6803C26.2555 17.7725 26.3055 17.8798 26.3298 17.9942C26.3541 18.1086 26.3519 18.2271 26.3236 18.3405L25.4005 22.0328C25.3588 22.1993 25.2627 22.3471 25.1274 22.4526C24.9921 22.5582 24.8254 22.6155 24.6538 22.6154H22.6538V29.2308C22.6538 29.4348 22.5728 29.6304 22.4285 29.7747C22.2842 29.919 22.0886 30 21.8846 30H18.1923C17.9883 30 17.7926 29.919 17.6483 29.7747C17.5041 29.6304 17.423 29.4348 17.423 29.2308V22.6154H15.423C15.219 22.6154 15.0234 22.5343 14.8791 22.3901C14.7349 22.2458 14.6538 22.0502 14.6538 21.8462V18.1538C14.6538 18.0528 14.6737 17.9528 14.7124 17.8595C14.751 17.7661 14.8077 17.6813 14.8791 17.6099C14.9505 17.5385 15.0353 17.4818 15.1287 17.4432C15.222 17.4045 15.322 17.3846 15.423 17.3846H17.423V15.3846C17.4232 13.9566 17.9906 12.5871 19.0005 11.5774ZM22.8077 11.5385C21.7876 11.5385 20.8093 11.9437 20.088 12.665C19.3667 13.3863 18.9615 14.3646 18.9615 15.3846V18.1538C18.9615 18.3579 18.8805 18.5535 18.7362 18.6978C18.5919 18.842 18.3963 18.9231 18.1923 18.9231H16.1923V21.0769H18.1923C18.3963 21.0769 18.5919 21.158 18.7362 21.3022C18.8805 21.4465 18.9615 21.6421 18.9615 21.8462V28.4615H21.1153V21.8462C21.1153 21.6421 21.1964 21.4465 21.3406 21.3022C21.4849 21.158 21.6806 21.0769 21.8846 21.0769H24.0528L24.5912 18.9231H21.8846C21.6806 18.9231 21.4849 18.842 21.3406 18.6978C21.1964 18.5535 21.1153 18.3579 21.1153 18.1538V15.3846C21.1153 14.9358 21.2936 14.5053 21.611 14.188C21.9284 13.8706 22.3588 13.6923 22.8077 13.6923H24.8077V11.5385H22.8077Z" fill="white"/>
</svg>
