<svg width="41" height="40" viewBox="0 0 41 40" fill="none" xmlns="http://www.w3.org/2000/svg">
<rect x="0.5" width="40" height="40" fill="#205583"/>
<path d="M20.5 11.8072C23.1506 11.8072 23.5121 11.8072 24.5964 11.8072C25.5602 11.8072 26.0422 12.0482 26.4036 12.1687C26.8855 12.4096 27.247 12.5301 27.6084 12.8916C27.9699 13.253 28.2108 13.6145 28.3313 14.0964C28.4518 14.4578 28.5723 14.9398 28.6928 15.9036C28.6928 16.988 28.6928 17.2289 28.6928 20C28.6928 22.7711 28.6928 23.0121 28.6928 24.0964C28.6928 25.0602 28.4518 25.5422 28.3313 25.9036C28.0904 26.3855 27.9699 26.747 27.6084 27.1084C27.247 27.4699 26.8855 27.7108 26.4036 27.8313C26.0422 27.9518 25.5602 28.0723 24.5964 28.1928C23.5121 28.1928 23.2711 28.1928 20.5 28.1928C17.7289 28.1928 17.488 28.1928 16.4036 28.1928C15.4398 28.1928 14.9578 27.9518 14.5964 27.8313C14.1145 27.5904 13.753 27.4699 13.3916 27.1084C13.0301 26.747 12.7892 26.3855 12.6687 25.9036C12.5482 25.5422 12.4277 25.0602 12.3072 24.0964C12.3072 23.0121 12.3072 22.7711 12.3072 20C12.3072 17.2289 12.3072 16.988 12.3072 15.9036C12.3072 14.9398 12.5482 14.4578 12.6687 14.0964C12.9096 13.6145 13.0301 13.253 13.3916 12.8916C13.753 12.5301 14.1145 12.2892 14.5964 12.1687C14.9578 12.0482 15.4398 11.9277 16.4036 11.8072C17.488 11.8072 17.8494 11.8072 20.5 11.8072ZM20.5 10C17.7289 10 17.488 10 16.4036 10C15.3193 10 14.5964 10.241 13.994 10.4819C13.3916 10.7229 12.7892 11.0843 12.1867 11.6867C11.5843 12.2892 11.3434 12.7711 10.9819 13.494C10.741 14.0964 10.6205 14.8193 10.5 15.9036C10.5 16.988 10.5 17.3494 10.5 20C10.5 22.7711 10.5 23.0121 10.5 24.0964C10.5 25.1807 10.741 25.9036 10.9819 26.506C11.2229 27.1084 11.5843 27.7108 12.1867 28.3133C12.7892 28.9157 13.2711 29.1566 13.994 29.5181C14.5964 29.759 15.3193 29.8795 16.4036 30C17.488 30 17.8494 30 20.5 30C23.1506 30 23.5121 30 24.5964 30C25.6807 30 26.4036 29.759 27.006 29.5181C27.6084 29.2771 28.2108 28.9157 28.8133 28.3133C29.4157 27.7108 29.6566 27.2289 30.0181 26.506C30.259 25.9036 30.3795 25.1807 30.5 24.0964C30.5 23.0121 30.5 22.6506 30.5 20C30.5 17.3494 30.5 16.988 30.5 15.9036C30.5 14.8193 30.259 14.0964 30.0181 13.494C29.7771 12.8916 29.4157 12.2892 28.8133 11.6867C28.2108 11.0843 27.7289 10.8434 27.006 10.4819C26.4036 10.241 25.6807 10.1205 24.5964 10C23.5121 10 23.2711 10 20.5 10Z" fill="#FEFEFE"/>
<path d="M20.5 14.8193C17.6084 14.8193 15.3193 17.1084 15.3193 20C15.3193 22.8916 17.6084 25.1807 20.5 25.1807C23.3916 25.1807 25.6807 22.8916 25.6807 20C25.6807 17.1084 23.3916 14.8193 20.5 14.8193ZM20.5 23.3735C18.6928 23.3735 17.1265 21.9277 17.1265 20C17.1265 18.1928 18.5723 16.6265 20.5 16.6265C22.3072 16.6265 23.8735 18.0723 23.8735 20C23.8735 21.8072 22.3072 23.3735 20.5 23.3735Z" fill="#FEFEFE"/>
<path d="M25.8012 15.9036C26.4666 15.9036 27.006 15.3642 27.006 14.6988C27.006 14.0334 26.4666 13.494 25.8012 13.494C25.1358 13.494 24.5964 14.0334 24.5964 14.6988C24.5964 15.3642 25.1358 15.9036 25.8012 15.9036Z" fill="#FEFEFE"/>
</svg>
