<svg width="179" height="40" viewBox="0 0 179 40" fill="none" xmlns="http://www.w3.org/2000/svg">
<path d="M3.38679 39.9999C3.47638 39.4769 3.56018 38.9567 3.65265 38.4337C3.95318 36.746 4.25661 35.0613 4.56292 33.3737C4.83456 31.871 5.1062 30.3684 5.38072 28.8657C5.70149 27.1029 6.02514 25.3402 6.3459 23.5774C6.62621 22.0372 6.90073 20.4969 7.1926 18.9567C7.24462 18.6822 7.35732 18.4221 7.4469 18.1562C7.71276 17.3673 7.98439 16.5784 8.25314 15.7895C8.27915 15.7115 8.29938 15.6277 8.33983 15.4919C7.60006 15.8184 6.92096 16.1565 6.23609 16.4773C5.54255 16.801 4.85479 17.1275 4.16414 17.454C3.47926 17.7777 2.79728 18.1013 2.11241 18.425C1.42176 18.7515 0.733997 19.0752 0.0173378 19.4133C0.0115583 19.3237 0 19.2601 0 19.1937C0.011559 16.8241 0.0231166 14.4545 0.0346756 12.082C0.0404552 11.1688 0.0549045 10.2585 0.0577942 9.34538C0.0577942 9.19223 0.101141 9.09398 0.23696 9.00439C4.77965 6.04817 9.31946 3.08617 13.8593 0.124175C13.9835 0.0432617 14.1049 0.0114746 14.2523 0.0114746C17.0524 0.0114746 19.8555 0.0114746 22.6557 0.0114746H22.884C22.9042 0.199309 21.8061 6.20133 21.2397 9.17778C20.6589 12.2322 20.1069 15.2896 19.5434 18.347C18.9799 21.3957 18.4164 24.4444 17.8558 27.493C17.2952 30.5388 16.7346 33.5875 16.2086 36.6536C16.2635 36.6044 16.3213 36.5553 16.3762 36.5033C19.555 33.3188 22.7337 30.1314 25.9124 26.944C27.1637 25.6898 28.4121 24.4357 29.6604 23.1815C31.8971 20.9391 34.1367 18.6995 36.3733 16.4571C38.714 14.1106 41.0547 11.7612 43.3955 9.41474C45.7246 7.07982 48.0566 4.742 50.3858 2.40708C51.1227 1.6673 51.8624 0.927528 52.5964 0.181971C52.7091 0.0663811 52.8247 0.0172554 52.9865 0.0172554C58.6447 0.0201451 64.3028 0.0172538 69.9581 0.0201435C70.0274 0.0201435 70.0968 0.0259249 70.1748 0.0288146C70.1748 0.138625 70.091 0.18197 70.0361 0.236875C69.4986 0.780149 68.9582 1.32053 68.4178 1.86092C66.2621 4.01957 64.1092 6.17821 61.9535 8.33686C59.6994 10.5966 57.4483 12.8535 55.1943 15.1133C54.4834 15.8271 53.7755 16.5409 53.0646 17.2518C53.0154 17.3009 52.9692 17.3529 52.8999 17.4251C57.7633 24.9125 62.6297 32.4027 67.5133 39.9219C67.418 39.9277 67.3602 39.9363 67.3024 39.9363C66.2014 39.9392 65.1033 39.9421 64.0023 39.945C62.2309 39.945 60.4595 39.945 58.688 39.9537C57.6882 39.9537 56.6912 39.9334 55.6943 39.841C54.1367 39.6965 52.6022 39.4335 51.1342 38.8671C49.7847 38.3441 48.6259 37.5494 47.6838 36.4484C47.2273 35.9138 46.7967 35.3647 46.4152 34.7723C45.0513 32.6542 43.6758 30.5446 42.306 28.4322C42.2598 28.36 42.2135 28.2906 42.1557 28.201C42.098 28.2502 42.0488 28.2819 42.0055 28.3224C39.7139 30.6227 37.4252 32.92 35.1365 35.2202C34.2234 36.1392 33.3102 37.0552 32.3942 37.9713C31.7931 38.5724 31.192 39.1734 30.5938 39.7803C30.4782 39.8988 30.3598 39.9566 30.1864 39.9566C28.7357 39.9537 27.2851 39.9566 25.8315 39.9623C25.7304 39.9623 25.6292 39.9797 25.5252 39.9883H3.37812L3.38679 39.9999Z" fill="#FEFEFE"/>
<path d="M178.22 0.234072C178.205 0.260079 178.179 0.283197 178.176 0.312094C178.009 1.25415 177.844 2.1991 177.674 3.14116C177.387 4.71319 177.098 6.28233 176.81 7.85147C176.714 8.3774 176.616 8.90623 176.515 9.45528H165.667C165.459 10.484 165.291 11.5012 165.103 12.5184C164.918 13.5298 164.733 14.5412 164.551 15.5527C164.366 16.5727 164.184 17.5928 163.999 18.61C163.817 19.6214 163.635 20.6329 163.453 21.6443C163.268 22.6643 163.083 23.6815 162.898 24.7016C162.713 25.7217 162.528 26.7389 162.343 27.759C162.158 28.7704 161.976 29.7818 161.794 30.7932C161.609 31.8133 161.427 32.8334 161.245 33.8506C161.063 34.862 160.881 35.8734 160.696 36.8848C160.511 37.902 160.326 38.9221 160.139 39.9509H148.068C148.201 39.0955 148.369 38.2604 148.516 37.4223C148.663 36.5699 148.822 35.7203 148.975 34.8707C149.129 34.0269 149.282 33.1859 149.435 32.3421C149.588 31.4983 149.741 30.6574 149.894 29.8136C150.047 28.964 150.201 28.1115 150.354 27.262C150.504 26.4181 150.654 25.5743 150.807 24.7305C150.961 23.8867 151.111 23.0429 151.264 22.202C151.417 21.3524 151.573 20.4999 151.726 19.6503C151.88 18.8065 152.033 17.9656 152.183 17.1218C152.336 16.278 152.484 15.4342 152.637 14.5904C152.79 13.7408 152.943 12.8883 153.096 12.0387C153.249 11.1978 153.402 10.3569 153.559 9.48418C153.449 9.47551 153.359 9.46395 153.27 9.46395C152.192 9.46395 151.117 9.46395 150.039 9.46395C147.73 9.46395 145.421 9.46395 143.109 9.46395H142.777C143.355 6.30256 143.93 3.17295 144.508 0.01734C144.629 0.01734 144.736 0.01734 144.843 0.01734C150.608 0.01734 156.376 0.01734 162.141 0.01734C167.392 0.01734 172.642 0.01734 177.893 0.01734C178.003 0.01734 178.11 0.00577951 178.22 0V0.234072Z" fill="#14A0FF"/>
<path d="M71.2528 0.0492173C71.38 0.0492173 71.4811 0.0492173 71.5822 0.0492173C74.1975 0.0492173 76.8098 0.0463263 79.425 0.0434365C82.0547 0.0405468 84.6844 0.0347686 87.3141 0.0289891C89.1404 0.0260993 90.9667 0.00587042 92.793 0.0260987C94.7841 0.046327 96.7433 0.303516 98.639 0.947931C99.8267 1.3525 100.945 1.89866 101.948 2.66155C103.91 4.15556 105.112 6.11192 105.413 8.56532C105.768 11.4666 105.112 14.1397 103.439 16.5468C102.841 17.4051 102.092 18.1217 101.237 18.7257C101.168 18.7748 101.098 18.8268 101.012 18.8875C101.061 18.928 101.095 18.9656 101.136 18.9887C102.867 19.9972 103.869 21.5201 104.286 23.4533C104.514 24.5081 104.52 25.5715 104.39 26.6407C104.153 28.6029 103.54 30.4379 102.529 32.1342C101.329 34.1454 99.6909 35.7204 97.7085 36.9485C95.9544 38.0322 94.0559 38.7661 92.0562 39.2487C90.7876 39.5551 89.5045 39.7718 88.2041 39.8585C87.3256 39.9163 86.4443 39.9654 85.5629 39.9683C80.685 39.9798 75.81 39.9741 70.932 39.9741C70.8916 39.9741 70.854 39.9712 70.8165 39.9741C70.6691 39.9914 70.5766 39.9336 70.4928 39.8036C68.837 37.2432 67.1783 34.6858 65.5138 32.1313C65.4328 32.0099 65.4184 31.8943 65.4444 31.7585C65.6554 30.6257 65.8634 29.49 66.0715 28.3544C66.4558 26.2622 66.8373 24.17 67.2216 22.0778C67.6348 19.818 68.051 17.5554 68.4642 15.2956C68.8601 13.1254 69.2589 10.958 69.6548 8.78783C70.0391 6.69565 70.4234 4.60347 70.8049 2.51129C70.9378 1.79174 71.0679 1.0693 71.2008 0.34975C71.2181 0.257278 71.2384 0.167697 71.2615 0.0492173H71.2528ZM77.6825 30.5361C77.8241 30.5361 77.9224 30.5361 78.0235 30.5361C81.2456 30.5332 84.4677 30.5275 87.6897 30.5246C88.1983 30.5246 88.7012 30.4754 89.1982 30.3656C90.2154 30.1431 91.1372 29.7299 91.9146 29.0277C92.4578 28.5364 92.8682 27.9585 93.0791 27.2505C93.3912 26.1957 93.0734 25.1872 92.2122 24.511C91.8972 24.2625 91.5447 24.0833 91.169 23.9446C90.4957 23.699 89.7935 23.5834 89.0826 23.5805C85.7825 23.566 82.4824 23.5632 79.1823 23.5603C79.1129 23.5603 79.0436 23.5689 78.954 23.5747C78.5321 25.8836 78.1131 28.1868 77.6854 30.539L77.6825 30.5361ZM80.3989 15.8388C80.5116 15.8446 80.5954 15.8504 80.6792 15.8504C83.4938 15.8504 86.3113 15.8475 89.1259 15.8446C89.5796 15.8446 90.0304 15.8128 90.4755 15.7261C91.4262 15.5412 92.2931 15.1742 93.0329 14.5384C93.5444 14.0992 93.9403 13.5733 94.1541 12.926C94.5009 11.877 94.1801 10.8829 93.2756 10.2472C93.0531 10.0911 92.8075 9.96686 92.559 9.85993C91.9637 9.60853 91.3337 9.50161 90.6893 9.48138C90.1113 9.46404 89.5363 9.45826 88.9583 9.45537C86.5859 9.44959 84.2163 9.4467 81.8438 9.44381C81.76 9.44381 81.6733 9.44381 81.5635 9.44381C81.1762 11.5736 80.789 13.6917 80.3989 15.8359V15.8388Z" fill="#14A0FF"/>
<path d="M141.685 0.0289307C141.107 3.18743 140.537 6.31126 139.962 9.46398H121.529C121.185 11.3365 120.847 13.1802 120.506 15.0528C121.199 15.0759 121.861 15.0614 122.52 15.0643C123.184 15.0672 123.846 15.0643 124.511 15.0643H134.46C135.122 15.0643 135.784 15.0643 136.48 15.0643C135.905 18.2286 135.333 21.3582 134.761 24.4994H118.835C118.746 24.6583 117.703 30.1922 117.697 30.5216H137.318C136.749 33.683 136.177 36.804 135.61 39.9162C135.593 39.9307 135.587 39.9364 135.581 39.9422C135.576 39.948 135.57 39.9538 135.561 39.9538C135.529 39.9596 135.501 39.9682 135.469 39.9682C125.014 39.9682 114.556 39.9682 104.1 39.9682C104.063 39.9682 104.022 39.9653 103.985 39.9596C103.97 39.9596 103.959 39.948 103.913 39.9249C106.331 26.632 108.753 13.3334 111.172 0.0289307H141.685Z" fill="#14A0FF"/>
<path d="M23.8608 0.0318874C23.9821 0.0261079 24.0573 0.01744 24.1295 0.01744C27.7822 0.01744 31.4319 0.00587936 35.0846 0.0203281C36.8647 0.0289974 38.6158 0.263069 40.3064 0.84391C41.7859 1.35251 43.1239 2.10095 44.2422 3.20773C44.5023 3.46492 44.7392 3.74233 45.0051 4.03131C41.2484 7.79955 37.512 11.5447 33.7553 15.31C30.4523 10.2154 27.1666 5.14386 23.855 0.0347778L23.8608 0.0318874Z" fill="#FEFEFE"/>
</svg>
